Lexend-Medium.ufo
<glyph name="asterisk" format="2">
  <advance width="387"/>
  <unicode hex="002A"/>
  <outline>
    <contour>
      <point x="234" y="376" type="line"/>
      <point x="159" y="376" type="line"/>
      <point x="167" y="491" type="line"/>
      <point x="172" y="491" type="line"/>
      <point x="69" y="421" type="line"/>
      <point x="32" y="486" type="line"/>
      <point x="144" y="540" type="line"/>
      <point x="142" y="535" type="line"/>
      <point x="30" y="589" type="line"/>
      <point x="68" y="653" type="line"/>
      <point x="172" y="583" type="line"/>
      <point x="167" y="585" type="line"/>
      <point x="159" y="700" type="line"/>
      <point x="234" y="700" type="line"/>
      <point x="225" y="573" type="line"/>
      <point x="217" y="581" type="line"/>
      <point x="320" y="651" type="line"/>
      <point x="357" y="586" type="line"/>
      <point x="244" y="531" type="line"/>
      <point x="244" y="542" type="line"/>
      <point x="356" y="487" type="line"/>
      <point x="319" y="423" type="line"/>
      <point x="215" y="493" type="line"/>
      <point x="226" y="491" type="line"/>
    </contour>
  </outline>
</glyph>
<glyph name="eight" format="2">
  <advance width="579"/>
  <unicode hex="0038"/>
  <outline>
    <contour>
      <point x="508" y="509" type="qcurve"/>
      <point x="508" y="460"/>
      <point x="450" y="386"/>
      <point x="395" y="364" type="qcurve"/>
      <point x="392" y="381" type="line"/>
      <point x="452" y="357"/>
      <point x="526" y="257"/>
      <point x="526" y="200" type="qcurve"/>
      <point x="526" y="115"/>
      <point x="388" y="-3"/>
      <point x="289" y="-3" type="qcurve"/>
      <point x="191" y="-3"/>
      <point x="53" y="116"/>
      <point x="53" y="200" type="qcurve"/>
      <point x="53" y="262"/>
      <point x="122" y="356"/>
      <point x="188" y="385" type="qcurve"/>
      <point x="182" y="364" type="line"/>
      <point x="130" y="384"/>
      <point x="70" y="460"/>
      <point x="70" y="509" type="qcurve"/>
      <point x="70" y="588"/>
      <point x="198" y="700"/>
      <point x="289" y="700" type="qcurve"/>
      <point x="380" y="700"/>
      <point x="508" y="588"/>
    </contour>
    <contour>
      <point x="289" y="600" type="qcurve"/>
      <point x="241" y="600"/>
      <point x="177" y="546"/>
      <point x="177" y="506" type="qcurve"/>
      <point x="177" y="466"/>
      <point x="241" y="414"/>
      <point x="289" y="414" type="qcurve"/>
      <point x="337" y="414"/>
      <point x="401" y="466"/>
      <point x="401" y="506" type="qcurve"/>
      <point x="401" y="546"/>
      <point x="337" y="600"/>
    </contour>
    <contour>
      <point x="160" y="204" type="qcurve"/>
      <point x="160" y="159"/>
      <point x="234" y="97"/>
      <point x="289" y="97" type="qcurve"/>
      <point x="345" y="97"/>
      <point x="419" y="158"/>
      <point x="419" y="204" type="qcurve"/>
      <point x="419" y="253"/>
      <point x="345" y="318"/>
      <point x="289" y="318" type="qcurve"/>
      <point x="234" y="318"/>
      <point x="160" y="253"/>
    </contour>
  </outline>
</glyph>
<glyph name="nine" format="2">
  <advance width="551"/>
  <unicode hex="0039"/>
  <outline>
    <contour>
      <point x="30" y="462" type="qcurve"/>
      <point x="30" y="569"/>
      <point x="170" y="712"/>
      <point x="274" y="712" type="qcurve"/>
      <point x="374" y="712"/>
      <point x="516" y="575"/>
      <point x="516" y="478" type="qcurve"/>
      <point x="516" y="428"/>
      <point x="473" y="293"/>
      <point x="417" y="174" type="qcurve"/>
      <point x="334" y="0" type="line"/>
      <point x="228" y="0" type="line"/>
      <point x="224" y="10" type="line"/>
      <point x="432" y="452" type="line"/>
      <point x="435" y="369" type="line"/>
      <point x="400" y="310"/>
      <point x="297" y="243"/>
      <point x="241" y="243" type="qcurve"/>
      <point x="155" y="243"/>
      <point x="30" y="373"/>
    </contour>
    <contour>
      <point x="400" y="474" type="qcurve"/>
      <point x="400" y="533"/>
      <point x="325" y="612"/>
      <point x="266" y="612" type="qcurve"/>
      <point x="212" y="612"/>
      <point x="141" y="536"/>
      <point x="141" y="475" type="qcurve"/>
      <point x="141" y="423"/>
      <point x="213" y="343"/>
      <point x="264" y="343" type="qcurve"/>
      <point x="323" y="343"/>
      <point x="400" y="419"/>
    </contour>
  </outline>
</glyph>
<glyph name="semicolon" format="2">
  <advance width="257"/>
  <unicode hex="003B"/>
  <outline>
    <contour>
      <point x="125" y="117" type="qcurve"/>
      <point x="163" y="117"/>
      <point x="214" y="54"/>
      <point x="214" y="4" type="qcurve"/>
      <point x="214" y="-55"/>
      <point x="138" y="-157"/>
      <point x="81" y="-179" type="qcurve"/>
      <point x="43" y="-133" type="line"/>
      <point x="78" y="-113"/>
      <point x="122" y="-61"/>
      <point x="122" y="-42" type="qcurve"/>
      <point x="122" y="-32"/>
      <point x="112" y="-13"/>
      <point x="96" y="4" type="qcurve"/>
      <point x="76" y="23"/>
      <point x="64" y="49"/>
      <point x="64" y="64" type="qcurve"/>
      <point x="64" y="88"/>
      <point x="98" y="117"/>
    </contour>
    <contour>
      <point x="199" y="460" type="qcurve"/>
      <point x="199" y="427"/>
      <point x="161" y="385"/>
      <point x="130" y="385" type="qcurve"/>
      <point x="97" y="385"/>
      <point x="61" y="424"/>
      <point x="61" y="460" type="qcurve"/>
      <point x="61" y="493"/>
      <point x="99" y="535"/>
      <point x="130" y="535" type="qcurve"/>
      <point x="163" y="535"/>
      <point x="199" y="496"/>
    </contour>
  </outline>
</glyph>
<glyph name="E" format="2">
  <advance width="614"/>
  <unicode hex="0045"/>
  <outline>
    <contour>
      <point x="206" y="0" type="line"/>
      <point x="98" y="0" type="line"/>
      <point x="98" y="700" type="line"/>
      <point x="206" y="700" type="line"/>
    </contour>
    <contour>
      <point x="539" y="0" type="line"/>
      <point x="147" y="0" type="line"/>
      <point x="147" y="104" type="line"/>
      <point x="539" y="104" type="line"/>
    </contour>
    <contour>
      <point x="484" y="307" type="line"/>
      <point x="147" y="307" type="line"/>
      <point x="147" y="411" type="line"/>
      <point x="484" y="411" type="line"/>
    </contour>
    <contour>
      <point x="539" y="596" type="line"/>
      <point x="147" y="596" type="line"/>
      <point x="147" y="700" type="line"/>
      <point x="539" y="700" type="line"/>
    </contour>
  </outline>
</glyph>
<glyph name="F" format="2">
  <advance width="602"/>
  <unicode hex="0046"/>
  <outline>
    <contour>
      <point x="98" y="0" type="line"/>
      <point x="98" y="700" type="line"/>
      <point x="206" y="700" type="line"/>
      <point x="206" y="0" type="line"/>
    </contour>
    <contour>
      <point x="507" y="298" type="line"/>
      <point x="146" y="298" type="line"/>
      <point x="146" y="402" type="line"/>
      <point x="507" y="402" type="line"/>
    </contour>
    <contour>
      <point x="552" y="596" type="line"/>
      <point x="146" y="596" type="line"/>
      <point x="146" y="700" type="line"/>
      <point x="552" y="700" type="line"/>
    </contour>
  </outline>
</glyph>
<glyph name="I" format="2">
  <advance width="478"/>
  <unicode hex="0049"/>
  <outline>
    <contour>
      <point x="293" y="700" type="qcurve"/>
      <point x="293" y="0" type="line"/>
      <point x="185" y="0" type="line"/>
      <point x="185" y="700" type="line"/>
      <point x="212" y="700"/>
      <point x="266" y="700"/>
    </contour>
    <contour>
      <point x="406" y="700" type="line"/>
      <point x="406" y="600" type="line"/>
      <point x="72" y="600" type="line"/>
      <point x="72" y="700" type="line"/>
    </contour>
    <contour>
      <point x="406" y="100" type="line"/>
      <point x="406" y="0" type="line"/>
      <point x="72" y="0" type="line"/>
      <point x="72" y="100" type="line"/>
    </contour>
  </outline>
</glyph>
<glyph name="K" format="2">
  <advance width="732"/>
  <unicode hex="004B"/>
  <outline>
    <contour>
      <point x="98" y="0" type="line"/>
      <point x="98" y="700" type="line"/>
      <point x="206" y="700" type="line"/>
      <point x="206" y="0" type="line"/>
    </contour>
    <contour>
      <point x="188" y="212" type="line"/>
      <point x="182" y="333" type="line"/>
      <point x="549" y="700" type="line"/>
      <point x="691" y="700" type="line"/>
    </contour>
    <contour>
      <point x="562" y="0" type="line"/>
      <point x="294" y="358" type="line"/>
      <point x="374" y="427" type="line"/>
      <point x="697" y="0" type="line"/>
    </contour>
  </outline>
</glyph>
<glyph name="P" format="2">
  <advance width="634"/>
  <unicode hex="0050"/>
  <outline>
    <contour>
      <point x="98" y="700" type="line"/>
      <point x="383" y="700" type="line"/>
      <point x="468" y="700"/>
      <point x="589" y="575"/>
      <point x="589" y="485" type="qcurve"/>
      <point x="589" y="395"/>
      <point x="468" y="268"/>
      <point x="383" y="268" type="qcurve"/>
      <point x="198" y="268" type="line"/>
      <point x="206" y="282" type="line"/>
      <point x="206" y="0" type="line"/>
      <point x="98" y="0" type="line"/>
    </contour>
    <contour>
      <point x="197" y="372" type="line"/>
      <point x="381" y="372" type="line"/>
      <point x="421" y="372"/>
      <point x="479" y="439"/>
      <point x="479" y="485" type="qcurve"/>
      <point x="479" y="531"/>
      <point x="421" y="596"/>
      <point x="381" y="596" type="qcurve"/>
      <point x="197" y="596" type="line"/>
      <point x="206" y="611" type="line"/>
      <point x="206" y="358" type="line"/>
    </contour>
  </outline>
</glyph>
<glyph name="R" format="2">
  <advance width="695"/>
  <unicode hex="0052"/>
  <outline>
    <contour>
      <point x="617" y="477" type="qcurve"/>
      <point x="617" y="391"/>
      <point x="487" y="263"/>
      <point x="396" y="263" type="qcurve"/>
      <point x="193" y="263" type="line"/>
      <point x="193" y="367" type="line"/>
      <point x="406" y="367" type="line"/>
      <point x="450" y="367"/>
      <point x="507" y="431"/>
      <point x="507" y="478" type="qcurve"/>
      <point x="507" y="530"/>
      <point x="434" y="596"/>
      <point x="378" y="596" type="qcurve"/>
      <point x="196" y="596" type="line"/>
      <point x="206" y="630" type="line"/>
      <point x="206" y="0" type="line"/>
      <point x="98" y="0" type="line"/>
      <point x="98" y="700" type="line"/>
      <point x="396" y="700" type="line"/>
      <point x="486" y="700"/>
      <point x="617" y="572"/>
    </contour>
    <contour>
      <point x="336" y="316" type="line"/>
      <point x="447" y="341" type="line"/>
      <point x="645" y="-1" type="line"/>
      <point x="514" y="0" type="line"/>
    </contour>
  </outline>
</glyph>
<glyph name="U" format="2">
  <advance width="740"/>
  <unicode hex="0055"/>
  <outline>
    <contour>
      <point x="549" y="701" type="line"/>
      <point x="652" y="701" type="line"/>
      <point x="652" y="269" type="line"/>
      <point x="652" y="150"/>
      <point x="492" y="-6"/>
      <point x="370" y="-6" type="qcurve"/>
      <point x="248" y="-6"/>
      <point x="88" y="150"/>
      <point x="88" y="269" type="qcurve"/>
      <point x="88" y="701" type="line"/>
      <point x="196" y="701" type="line"/>
      <point x="196" y="278" type="line"/>
      <point x="196" y="202"/>
      <point x="299" y="98"/>
      <point x="370" y="98" type="qcurve"/>
      <point x="445" y="98"/>
      <point x="549" y="202"/>
      <point x="549" y="278" type="qcurve"/>
    </contour>
  </outline>
</glyph>
<glyph name="W" format="2">
  <advance width="996"/>
  <unicode hex="0057"/>
  <outline>
    <contour>
      <point x="247" y="0" type="line"/>
      <point x="24" y="700" type="line"/>
      <point x="139" y="700" type="line"/>
      <point x="274" y="262" type="line"/>
      <point x="285" y="230"/>
      <point x="303" y="130"/>
      <point x="308" y="109" type="qcurve"/>
      <point x="279" y="110" type="line"/>
      <point x="286" y="133"/>
      <point x="313" y="231"/>
      <point x="325" y="263" type="qcurve"/>
      <point x="451" y="579" type="line"/>
      <point x="548" y="579" type="line"/>
      <point x="670" y="263" type="line"/>
      <point x="679" y="241"/>
      <point x="693" y="199"/>
      <point x="714" y="119" type="qcurve"/>
      <point x="688" y="112" type="line"/>
      <point x="704" y="197"/>
      <point x="716" y="241"/>
      <point x="723" y="265" type="qcurve"/>
      <point x="856" y="700" type="line"/>
      <point x="972" y="700" type="line"/>
      <point x="749" y="0" type="line"/>
      <point x="674" y="0" type="line"/>
      <point x="489" y="438" type="line"/>
      <point x="498" y="434" type="line"/>
      <point x="320" y="0" type="line"/>
    </contour>
  </outline>
</glyph>
<glyph name="grave" format="2">
  <advance width="246"/>
  <unicode hex="0060"/>
  <outline>
    <contour>
      <point x="214" y="624" type="line"/>
      <point x="180" y="573" type="line"/>
      <point x="6" y="667" type="line"/>
      <point x="71" y="749" type="line"/>
    </contour>
  </outline>
</glyph>
<glyph name="d" format="2">
  <advance width="634"/>
  <unicode hex="0064"/>
  <outline>
    <contour>
      <point x="461" y="740" type="line"/>
      <point x="564" y="740" type="line"/>
      <point x="564" y="0" type="line"/>
      <point x="461" y="0" type="line"/>
      <point x="461" y="125" type="line"/>
      <point x="481" y="125" type="line"/>
      <point x="481" y="78"/>
      <point x="364" y="-10"/>
      <point x="291" y="-10" type="qcurve"/>
      <point x="183" y="-10"/>
      <point x="40" y="145"/>
      <point x="40" y="263" type="qcurve"/>
      <point x="40" y="381"/>
      <point x="182" y="536"/>
      <point x="288" y="536" type="qcurve"/>
      <point x="367" y="536"/>
      <point x="491" y="443"/>
      <point x="491" y="391" type="qcurve"/>
      <point x="461" y="389" type="line"/>
    </contour>
    <contour>
      <point x="145" y="263" type="qcurve"/>
      <point x="145" y="183"/>
      <point x="235" y="79"/>
      <point x="305" y="79" type="qcurve"/>
      <point x="375" y="79"/>
      <point x="465" y="183"/>
      <point x="465" y="263" type="qcurve"/>
      <point x="465" y="343"/>
      <point x="375" y="447"/>
      <point x="305" y="447" type="qcurve"/>
      <point x="235" y="447"/>
      <point x="145" y="343"/>
    </contour>
  </outline>
</glyph>
<glyph name="e" format="2">
  <advance width="586"/>
  <unicode hex="0065"/>
  <outline>
    <contour>
      <point x="472" y="144" type="qcurve"/>
      <point x="524" y="71" type="line"/>
      <point x="487" y="35"/>
      <point x="373" y="-10"/>
      <point x="317" y="-10" type="qcurve"/>
      <point x="195" y="-10"/>
      <point x="40" y="140"/>
      <point x="40" y="257" type="qcurve"/>
      <point x="40" y="381"/>
      <point x="191" y="536"/>
      <point x="308" y="537" type="qcurve"/>
      <point x="410" y="536"/>
      <point x="546" y="392"/>
      <point x="546" y="282" type="qcurve"/>
      <point x="545" y="238" type="line"/>
      <point x="116" y="238" type="line"/>
      <point x="93" y="320" type="line"/>
      <point x="456" y="320" type="line"/>
      <point x="441" y="303" type="line"/>
      <point x="441" y="327" type="line"/>
      <point x="436" y="376"/>
      <point x="359" y="442"/>
      <point x="308" y="442" type="qcurve"/>
      <point x="227" y="442"/>
      <point x="142" y="351"/>
      <point x="142" y="264" type="qcurve"/>
      <point x="142" y="182"/>
      <point x="244" y="84"/>
      <point x="327" y="84" type="qcurve"/>
      <point x="366" y="84"/>
      <point x="433" y="110"/>
    </contour>
  </outline>
</glyph>
<glyph name="i" format="2">
  <advance width="278"/>
  <unicode hex="0069"/>
  <outline>
    <contour>
      <point x="194" y="525" type="line"/>
      <point x="194" y="0" type="line"/>
      <point x="91" y="0" type="line"/>
      <point x="91" y="525" type="line"/>
    </contour>
    <contour>
      <point x="210" y="704" type="qcurve"/>
      <point x="210" y="675"/>
      <point x="173" y="639"/>
      <point x="141" y="639" type="qcurve"/>
      <point x="108" y="639"/>
      <point x="72" y="673"/>
      <point x="72" y="704" type="qcurve"/>
      <point x="72" y="733"/>
      <point x="109" y="769"/>
      <point x="141" y="769" type="qcurve"/>
      <point x="174" y="769"/>
      <point x="210" y="735"/>
    </contour>
  </outline>
</glyph>
<glyph name="j" format="2">
  <advance width="263"/>
  <unicode hex="006A"/>
  <outline>
    <contour>
      <point x="188" y="525" type="line"/>
      <point x="188" y="-24" type="line"/>
      <point x="188" y="-101"/>
      <point x="88" y="-197"/>
      <point x="8" y="-197" type="qcurve"/>
      <point x="-31" y="-118" type="line"/>
      <point x="27" y="-118"/>
      <point x="85" y="-58"/>
      <point x="85" y="1" type="qcurve"/>
      <point x="85" y="525" type="line"/>
    </contour>
    <contour>
      <point x="208" y="710" type="qcurve"/>
      <point x="208" y="681"/>
      <point x="171" y="645"/>
      <point x="139" y="645" type="qcurve"/>
      <point x="106" y="645"/>
      <point x="70" y="679"/>
      <point x="70" y="710" type="qcurve"/>
      <point x="70" y="739"/>
      <point x="107" y="775"/>
      <point x="139" y="775" type="qcurve"/>
      <point x="172" y="775"/>
      <point x="208" y="741"/>
    </contour>
  </outline>
</glyph>
<glyph name="t" format="2">
  <advance width="384"/>
  <unicode hex="0074"/>
  <outline>
    <contour>
      <point x="240" y="659" type="line"/>
      <point x="240" y="0" type="line"/>
      <point x="137" y="0" type="line"/>
      <point x="137" y="659" type="line"/>
    </contour>
    <contour>
      <point x="362" y="525" type="line"/>
      <point x="362" y="425" type="line"/>
      <point x="28" y="425" type="line"/>
      <point x="28" y="525" type="line"/>
    </contour>
  </outline>
</glyph>
<glyph name="braceright" format="2">
  <advance width="411"/>
  <unicode hex="007D"/>
  <outline>
    <contour>
      <point x="24" y="631" type="qcurve"/>
      <point x="42" y="700" type="line"/>
      <point x="140" y="680"/>
      <point x="227" y="592"/>
      <point x="227" y="507" type="qcurve"/>
      <point x="226" y="412" type="line"/>
      <point x="226" y="354"/>
      <point x="277" y="289"/>
      <point x="324" y="288" type="qcurve"/>
      <point x="367" y="288" type="line"/>
      <point x="367" y="212" type="line"/>
      <point x="322" y="212" type="line"/>
      <point x="275" y="211"/>
      <point x="226" y="147"/>
      <point x="226" y="88" type="qcurve"/>
      <point x="227" y="-7" type="line"/>
      <point x="227" y="-89"/>
      <point x="141" y="-179"/>
      <point x="42" y="-200" type="qcurve"/>
      <point x="24" y="-131" type="line"/>
      <point x="88" y="-110"/>
      <point x="136" y="-55"/>
      <point x="136" y="7" type="qcurve"/>
      <point x="134" y="102" type="line"/>
      <point x="134" y="160"/>
      <point x="187" y="236"/>
      <point x="237" y="251" type="qcurve"/>
      <point x="238" y="248" type="line"/>
      <point x="187" y="265"/>
      <point x="134" y="341"/>
      <point x="134" y="398" type="qcurve"/>
      <point x="136" y="493" type="line"/>
      <point x="136" y="554"/>
      <point x="89" y="609"/>
    </contour>
  </outline>
</glyph>
<glyph name="currency" format="2">
  <advance width="550"/>
  <unicode hex="00A4"/>
  <outline>
    <contour>
      <point x="457" y="302" type="qcurve"/>
      <point x="457" y="227"/>
      <point x="353" y="122"/>
      <point x="279" y="122" type="qcurve"/>
      <point x="205" y="122"/>
      <point x="101" y="227"/>
      <point x="101" y="302" type="qcurve"/>
      <point x="101" y="377"/>
      <point x="205" y="482"/>
      <point x="279" y="482" type="qcurve"/>
      <point x="352" y="482"/>
      <point x="457" y="376"/>
    </contour>
    <contour>
      <point x="197" y="302" type="qcurve"/>
      <point x="197" y="262"/>
      <point x="243" y="210"/>
      <point x="279" y="210" type="qcurve"/>
      <point x="316" y="210"/>
      <point x="362" y="262"/>
      <point x="362" y="302" type="qcurve"/>
      <point x="362" y="342"/>
      <point x="316" y="395"/>
      <point x="279" y="395" type="qcurve"/>
      <point x="243" y="395"/>
      <point x="197" y="342"/>
    </contour>
    <contour>
      <point x="148" y="359" type="line"/>
      <point x="50" y="451" type="line"/>
      <point x="120" y="521" type="line"/>
      <point x="218" y="429" type="line"/>
    </contour>
    <contour>
      <point x="428" y="90" type="line"/>
      <point x="330" y="182" type="line"/>
      <point x="400" y="252" type="line"/>
      <point x="498" y="160" type="line"/>
    </contour>
    <contour>
      <point x="337" y="432" type="line"/>
      <point x="429" y="530" type="line"/>
      <point x="500" y="460" type="line"/>
      <point x="407" y="362" type="line"/>
    </contour>
    <contour>
      <point x="58" y="152" type="line"/>
      <point x="150" y="250" type="line"/>
      <point x="221" y="179" type="line"/>
      <point x="129" y="82" type="line"/>
    </contour>
  </outline>
</glyph>
<glyph name="dieresis" format="2">
  <advance width="413"/>
  <unicode hex="00A8"/>
  <outline>
    <contour>
      <point x="175" y="656" type="qcurve"/>
      <point x="175" y="627"/>
      <point x="138" y="591"/>
      <point x="106" y="591" type="qcurve"/>
      <point x="73" y="591"/>
      <point x="37" y="625"/>
      <point x="37" y="656" type="qcurve"/>
      <point x="37" y="685"/>
      <point x="74" y="721"/>
      <point x="106" y="721" type="qcurve"/>
      <point x="139" y="721"/>
      <point x="175" y="687"/>
    </contour>
    <contour>
      <point x="375" y="656" type="qcurve"/>
      <point x="375" y="627"/>
      <point x="338" y="591"/>
      <point x="306" y="591" type="qcurve"/>
      <point x="273" y="591"/>
      <point x="237" y="625"/>
      <point x="237" y="656" type="qcurve"/>
      <point x="237" y="685"/>
      <point x="274" y="721"/>
      <point x="306" y="721" type="qcurve"/>
      <point x="339" y="721"/>
      <point x="375" y="687"/>
    </contour>
  </outline>
</glyph>
<glyph name="ordfeminine" format="2">
  <advance width="365"/>
  <unicode hex="00AA"/>
  <outline>
    <contour>
      <point x="143" y="391" type="qcurve"/>
      <point x="84" y="391"/>
      <point x="15" y="485"/>
      <point x="15" y="562" type="qcurve"/>
      <point x="15" y="631"/>
      <point x="93" y="721"/>
      <point x="155" y="721" type="qcurve"/>
      <point x="204" y="721"/>
      <point x="257" y="654"/>
      <point x="257" y="592" type="qcurve"/>
      <point x="242" y="648" type="line"/>
      <point x="242" y="715" type="line"/>
      <point x="335" y="715" type="line"/>
      <point x="335" y="401" type="line"/>
      <point x="242" y="401" type="line"/>
      <point x="242" y="474" type="line"/>
      <point x="257" y="512" type="line"/>
      <point x="257" y="467"/>
      <point x="189" y="391"/>
    </contour>
    <contour>
      <point x="108" y="562" type="qcurve"/>
      <point x="108" y="514"/>
      <point x="142" y="458"/>
      <point x="172" y="458" type="qcurve"/>
      <point x="205" y="458"/>
      <point x="246" y="511"/>
      <point x="246" y="555" type="qcurve"/>
      <point x="246" y="601"/>
      <point x="206" y="654"/>
      <point x="171" y="654" type="qcurve"/>
      <point x="145" y="654"/>
      <point x="108" y="600"/>
    </contour>
  </outline>
</glyph>
<glyph name="uni00AD" format="2">
  <advance width="394"/>
  <unicode hex="00AD"/>
  <outline>
    <contour>
      <point x="341" y="235" type="line"/>
      <point x="53" y="235" type="line"/>
      <point x="53" y="337" type="line"/>
      <point x="341" y="337" type="line"/>
    </contour>
  </outline>
</glyph>
<glyph name="macron" format="2">
  <advance width="424"/>
  <unicode hex="00AF"/>
  <outline>
    <contour>
      <point x="354" y="590" type="line"/>
      <point x="70" y="590" type="line"/>
      <point x="70" y="665" type="line"/>
      <point x="354" y="665" type="line"/>
    </contour>
  </outline>
</glyph>
<glyph name="uni00B2" format="2">
  <advance width="346"/>
  <unicode hex="00B2"/>
  <outline>
    <contour>
      <point x="296" y="418" type="line"/>
      <point x="65" y="418" type="line"/>
      <point x="56" y="489" type="line"/>
      <point x="133" y="566" type="line"/>
      <point x="139" y="572"/>
      <point x="171" y="603"/>
      <point x="179" y="612" type="qcurve"/>
      <point x="195" y="629"/>
      <point x="209" y="655"/>
      <point x="209" y="667" type="qcurve"/>
      <point x="209" y="685"/>
      <point x="187" y="707"/>
      <point x="169" y="707" type="qcurve"/>
      <point x="154" y="707"/>
      <point x="118" y="683"/>
      <point x="94" y="656" type="qcurve"/>
      <point x="42" y="693" type="line"/>
      <point x="65" y="732"/>
      <point x="137" y="779"/>
      <point x="176" y="779" type="qcurve"/>
      <point x="230" y="779"/>
      <point x="293" y="717"/>
      <point x="293" y="669" type="qcurve"/>
      <point x="293" y="647"/>
      <point x="264" y="599"/>
      <point x="205" y="541" type="qcurve"/>
      <point x="138" y="476" type="line"/>
      <point x="142" y="485" type="line"/>
      <point x="296" y="485" type="line"/>
    </contour>
  </outline>
</glyph>
<glyph name="uni00B3" format="2">
  <advance width="342"/>
  <unicode hex="00B3"/>
  <outline>
    <contour>
      <point x="297" y="533" type="qcurve"/>
      <point x="297" y="480"/>
      <point x="221" y="412"/>
      <point x="165" y="412" type="qcurve"/>
      <point x="137" y="412"/>
      <point x="78" y="431"/>
      <point x="57" y="446" type="qcurve"/>
      <point x="90" y="501" type="line"/>
      <point x="109" y="489"/>
      <point x="142" y="478"/>
      <point x="159" y="478" type="qcurve"/>
      <point x="187" y="478"/>
      <point x="222" y="507"/>
      <point x="222" y="532" type="qcurve"/>
      <point x="222" y="552"/>
      <point x="191" y="577"/>
      <point x="165" y="577" type="qcurve"/>
      <point x="157" y="577"/>
      <point x="140" y="574"/>
      <point x="109" y="565" type="qcurve"/>
      <point x="88" y="622" type="line"/>
      <point x="190" y="710" type="line"/>
      <point x="209" y="704" type="line"/>
      <point x="79" y="704" type="line"/>
      <point x="79" y="772" type="line"/>
      <point x="265" y="772" type="line"/>
      <point x="272" y="706" type="line"/>
      <point x="173" y="624" type="line"/>
      <point x="160" y="631" type="line"/>
      <point x="165" y="634"/>
      <point x="181" y="638"/>
      <point x="186" y="638" type="qcurve"/>
      <point x="238" y="638"/>
      <point x="297" y="581"/>
    </contour>
  </outline>
</glyph>
<glyph name="periodcentered" format="2">
  <advance width="228"/>
  <unicode hex="00B7"/>
  <outline>
    <contour>
      <point x="183" y="328" type="qcurve"/>
      <point x="183" y="295"/>
      <point x="145" y="253"/>
      <point x="114" y="253" type="qcurve"/>
      <point x="81" y="253"/>
      <point x="45" y="292"/>
      <point x="45" y="328" type="qcurve"/>
      <point x="45" y="361"/>
      <point x="83" y="403"/>
      <point x="114" y="403" type="qcurve"/>
      <point x="147" y="403"/>
      <point x="183" y="364"/>
    </contour>
  </outline>
</glyph>
<glyph name="threequarters" format="2">
  <advance width="791"/>
  <unicode hex="00BE"/>
  <outline>
    <contour>
      <point x="260" y="463" type="qcurve"/>
      <point x="260" y="410"/>
      <point x="184" y="342"/>
      <point x="128" y="342" type="qcurve"/>
      <point x="100" y="342"/>
      <point x="41" y="361"/>
      <point x="20" y="376" type="qcurve"/>
      <point x="53" y="431" type="line"/>
      <point x="72" y="419"/>
      <point x="105" y="408"/>
      <point x="122" y="408" type="qcurve"/>
      <point x="150" y="408"/>
      <point x="185" y="437"/>
      <point x="185" y="462" type="qcurve"/>
      <point x="185" y="482"/>
      <point x="154" y="507"/>
      <point x="128" y="507" type="qcurve"/>
      <point x="120" y="507"/>
      <point x="103" y="504"/>
      <point x="72" y="495" type="qcurve"/>
      <point x="51" y="552" type="line"/>
      <point x="153" y="640" type="line"/>
      <point x="172" y="634" type="line"/>
      <point x="42" y="634" type="line"/>
      <point x="42" y="702" type="line"/>
      <point x="228" y="702" type="line"/>
      <point x="235" y="636" type="line"/>
      <point x="136" y="554" type="line"/>
      <point x="123" y="561" type="line"/>
      <point x="128" y="564"/>
      <point x="144" y="568"/>
      <point x="149" y="568" type="qcurve"/>
      <point x="201" y="568"/>
      <point x="260" y="511"/>
    </contour>
    <contour>
      <point x="219" y="0" type="line"/>
      <point x="121" y="0" type="line"/>
      <point x="342" y="335" type="line"/>
      <point x="584" y="700" type="line"/>
      <point x="687" y="700" type="line"/>
      <point x="424" y="307" type="line"/>
    </contour>
    <contour>
      <point x="688" y="-2" type="line"/>
      <point x="613" y="-2" type="line"/>
      <point x="613" y="104" type="line"/>
      <point x="613" y="122" type="line"/>
      <point x="613" y="290" type="line"/>
      <point x="645" y="276" type="line"/>
      <point x="519" y="130" type="line"/>
      <point x="522" y="149" type="line"/>
      <point x="749" y="149" type="line"/>
      <point x="749" y="81" type="line"/>
      <point x="471" y="81" type="line"/>
      <point x="454" y="150" type="line"/>
      <point x="622" y="356" type="line"/>
      <point x="688" y="356" type="line"/>
    </contour>
  </outline>
</glyph>
<glyph name="questiondown" format="2">
  <advance width="511"/>
  <unicode hex="00BF"/>
  <outline>
    <contour>
      <point x="300" y="323" type="line"/>
      <point x="326" y="182" type="line"/>
      <point x="228" y="156"/>
      <point x="135" y="79"/>
      <point x="135" y="23" type="qcurve"/>
      <point x="135" y="-21"/>
      <point x="203" y="-78"/>
      <point x="254" y="-78" type="qcurve"/>
      <point x="294" y="-78"/>
      <point x="369" y="-23"/>
      <point x="396" y="27" type="qcurve"/>
      <point x="471" y="-36" type="line"/>
      <point x="428" y="-102"/>
      <point x="309" y="-175"/>
      <point x="244" y="-175" type="qcurve"/>
      <point x="150" y="-175"/>
      <point x="22" y="-61"/>
      <point x="22" y="23" type="qcurve"/>
      <point x="22" y="93"/>
      <point x="137" y="213"/>
      <point x="223" y="239" type="qcurve"/>
      <point x="203" y="220" type="line"/>
      <point x="223" y="323" type="line"/>
    </contour>
    <contour>
      <point x="197" y="470" type="qcurve"/>
      <point x="197" y="503"/>
      <point x="235" y="545"/>
      <point x="266" y="545" type="qcurve"/>
      <point x="299" y="545"/>
      <point x="335" y="506"/>
      <point x="335" y="470" type="qcurve"/>
      <point x="335" y="437"/>
      <point x="297" y="395"/>
      <point x="266" y="395" type="qcurve"/>
      <point x="233" y="395"/>
      <point x="197" y="434"/>
    </contour>
  </outline>
</glyph>
<glyph name="Agrave" format="2">
  <advance width="700"/>
  <unicode hex="00C0"/>
  <outline>
    <contour>
      <point x="337" y="612" type="qcurve"/>
      <point x="360" y="613" type="line"/>
      <point x="348" y="580"/>
      <point x="306" y="449"/>
      <point x="294" y="418" type="qcurve"/>
      <point x="135" y="0" type="line"/>
      <point x="25" y="0" type="line"/>
      <point x="296" y="700" type="line"/>
      <point x="406" y="700" type="line"/>
      <point x="675" y="0" type="line"/>
      <point x="560" y="0" type="line"/>
      <point x="400" y="422" type="line"/>
      <point x="390" y="451"/>
      <point x="349" y="579"/>
    </contour>
    <contour>
      <point x="354" y="174" type="line"/>
      <point x="145" y="174" type="line"/>
      <point x="185" y="278" type="line"/>
      <point x="354" y="278" type="line"/>
    </contour>
    <contour>
      <point x="549" y="174" type="line"/>
      <point x="354" y="174" type="line"/>
      <point x="354" y="278" type="line"/>
      <point x="503" y="278" type="line"/>
    </contour>
    <contour>
      <point x="420" y="805" type="line"/>
      <point x="386" y="754" type="line"/>
      <point x="212" y="848" type="line"/>
      <point x="277" y="930" type="line"/>
    </contour>
  </outline>
</glyph>
<glyph name="Aacute" format="2">
  <advance width="700"/>
  <unicode hex="00C1"/>
  <outline>
    <contour>
      <point x="337" y="612" type="qcurve"/>
      <point x="360" y="613" type="line"/>
      <point x="348" y="580"/>
      <point x="306" y="449"/>
      <point x="294" y="418" type="qcurve"/>
      <point x="135" y="0" type="line"/>
      <point x="25" y="0" type="line"/>
      <point x="296" y="700" type="line"/>
      <point x="406" y="700" type="line"/>
      <point x="675" y="0" type="line"/>
      <point x="560" y="0" type="line"/>
      <point x="400" y="422" type="line"/>
      <point x="390" y="451"/>
      <point x="349" y="579"/>
    </contour>
    <contour>
      <point x="354" y="174" type="line"/>
      <point x="145" y="174" type="line"/>
      <point x="185" y="278" type="line"/>
      <point x="354" y="278" type="line"/>
    </contour>
    <contour>
      <point x="549" y="174" type="line"/>
      <point x="354" y="174" type="line"/>
      <point x="354" y="278" type="line"/>
      <point x="503" y="278" type="line"/>
    </contour>
    <contour>
      <point x="500" y="844" type="line"/>
      <point x="326" y="750" type="line"/>
      <point x="292" y="801" type="line"/>
      <point x="435" y="926" type="line"/>
    </contour>
  </outline>
</glyph>
<glyph name="Atilde" format="2">
  <advance width="700"/>
  <unicode hex="00C3"/>
  <outline>
    <contour>
      <point x="337" y="612" type="qcurve"/>
      <point x="360" y="613" type="line"/>
      <point x="348" y="580"/>
      <point x="306" y="449"/>
      <point x="294" y="418" type="qcurve"/>
      <point x="135" y="0" type="line"/>
      <point x="25" y="0" type="line"/>
      <point x="296" y="700" type="line"/>
      <point x="406" y="700" type="line"/>
      <point x="675" y="0" type="line"/>
      <point x="560" y="0" type="line"/>
      <point x="400" y="422" type="line"/>
      <point x="390" y="451"/>
      <point x="349" y="579"/>
    </contour>
    <contour>
      <point x="354" y="174" type="line"/>
      <point x="145" y="174" type="line"/>
      <point x="185" y="278" type="line"/>
      <point x="354" y="278" type="line"/>
    </contour>
    <contour>
      <point x="549" y="174" type="line"/>
      <point x="354" y="174" type="line"/>
      <point x="354" y="278" type="line"/>
      <point x="503" y="278" type="line"/>
    </contour>
    <contour>
      <point x="259" y="816" type="qcurve"/>
      <point x="182" y="816" type="line"/>
      <point x="182" y="868"/>
      <point x="239" y="929"/>
      <point x="288" y="929" type="qcurve"/>
      <point x="303" y="929"/>
      <point x="337" y="920"/>
      <point x="369" y="906" type="qcurve"/>
      <point x="394" y="895"/>
      <point x="416" y="889"/>
      <point x="424" y="889" type="qcurve"/>
      <point x="437" y="889"/>
      <point x="450" y="911"/>
      <point x="449" y="929" type="qcurve"/>
      <point x="525" y="929" type="line"/>
      <point x="525" y="880"/>
      <point x="474" y="815"/>
      <point x="433" y="815" type="qcurve"/>
      <point x="416" y="815"/>
      <point x="377" y="825"/>
      <point x="340" y="839" type="qcurve"/>
      <point x="315" y="849"/>
      <point x="293" y="855"/>
      <point x="286" y="855" type="qcurve"/>
      <point x="274" y="855"/>
      <point x="259" y="834"/>
    </contour>
  </outline>
</glyph>
<glyph name="Ccedilla" format="2">
  <advance width="679"/>
  <unicode hex="00C7"/>
  <outline>
    <contour>
      <point x="576" y="174" type="qcurve"/>
      <point x="630" y="86" type="line"/>
      <point x="595" y="45"/>
      <point x="456" y="-10"/>
      <point x="382" y="-10" type="qcurve"/>
      <point x="236" y="-10"/>
      <point x="48" y="191"/>
      <point x="48" y="350" type="qcurve"/>
      <point x="48" y="500"/>
      <point x="248" y="706"/>
      <point x="391" y="706" type="qcurve"/>
      <point x="467" y="706"/>
      <point x="606" y="638"/>
      <point x="643" y="585" type="qcurve"/>
      <point x="571" y="510" type="line"/>
      <point x="528" y="554"/>
      <point x="438" y="598"/>
      <point x="391" y="598" type="qcurve"/>
      <point x="293" y="598"/>
      <point x="158" y="458"/>
      <point x="158" y="350" type="qcurve"/>
      <point x="158" y="235"/>
      <point x="292" y="99"/>
      <point x="400" y="99" type="qcurve"/>
      <point x="450" y="99"/>
      <point x="542" y="139"/>
    </contour>
    <contour>
      <point x="347" y="-97" type="line"/>
      <point x="289" y="-90" type="line"/>
      <point x="361" y="24" type="line"/>
      <point x="420" y="24" type="line"/>
    </contour>
    <contour>
      <point x="477" y="-139" type="qcurve"/>
      <point x="477" y="-162"/>
      <point x="437" y="-210"/>
      <point x="403" y="-225" type="qcurve"/>
      <point x="379" y="-235"/>
      <point x="320" y="-245"/>
      <point x="287" y="-244" type="qcurve"/>
      <point x="280" y="-191" type="line"/>
      <point x="316" y="-191"/>
      <point x="392" y="-157"/>
      <point x="392" y="-138" type="qcurve"/>
      <point x="392" y="-124"/>
      <point x="341" y="-101"/>
      <point x="302" y="-100" type="qcurve"/>
      <point x="289" y="-92" type="line"/>
      <point x="289" y="-90" type="line"/>
      <point x="348" y="-41" type="line"/>
      <point x="412" y="-49"/>
      <point x="477" y="-99"/>
    </contour>
  </outline>
</glyph>
<glyph name="Edieresis" format="2">
  <advance width="614"/>
  <unicode hex="00CB"/>
  <outline>
    <contour>
      <point x="206" y="0" type="line"/>
      <point x="98" y="0" type="line"/>
      <point x="98" y="700" type="line"/>
      <point x="206" y="700" type="line"/>
    </contour>
    <contour>
      <point x="539" y="0" type="line"/>
      <point x="147" y="0" type="line"/>
      <point x="147" y="104" type="line"/>
      <point x="539" y="104" type="line"/>
    </contour>
    <contour>
      <point x="484" y="307" type="line"/>
      <point x="147" y="307" type="line"/>
      <point x="147" y="411" type="line"/>
      <point x="484" y="411" type="line"/>
    </contour>
    <contour>
      <point x="539" y="596" type="line"/>
      <point x="147" y="596" type="line"/>
      <point x="147" y="700" type="line"/>
      <point x="539" y="700" type="line"/>
    </contour>
    <contour>
      <point x="285" y="814" type="qcurve"/>
      <point x="285" y="785"/>
      <point x="248" y="749"/>
      <point x="216" y="749" type="qcurve"/>
      <point x="183" y="749"/>
      <point x="147" y="783"/>
      <point x="147" y="814" type="qcurve"/>
      <point x="147" y="843"/>
      <point x="184" y="879"/>
      <point x="216" y="879" type="qcurve"/>
      <point x="249" y="879"/>
      <point x="285" y="845"/>
    </contour>
    <contour>
      <point x="491" y="814" type="qcurve"/>
      <point x="491" y="785"/>
      <point x="454" y="749"/>
      <point x="422" y="749" type="qcurve"/>
      <point x="389" y="749"/>
      <point x="353" y="783"/>
      <point x="353" y="814" type="qcurve"/>
      <point x="353" y="843"/>
      <point x="390" y="879"/>
      <point x="422" y="879" type="qcurve"/>
      <point x="455" y="879"/>
      <point x="491" y="845"/>
    </contour>
  </outline>
</glyph>
<glyph name="Iacute" format="2">
  <advance width="478"/>
  <unicode hex="00CD"/>
  <outline>
    <contour>
      <point x="293" y="700" type="qcurve"/>
      <point x="293" y="0" type="line"/>
      <point x="185" y="0" type="line"/>
      <point x="185" y="700" type="line"/>
      <point x="212" y="700"/>
      <point x="266" y="700"/>
    </contour>
    <contour>
      <point x="406" y="700" type="line"/>
      <point x="406" y="600" type="line"/>
      <point x="72" y="600" type="line"/>
      <point x="72" y="700" type="line"/>
    </contour>
    <contour>
      <point x="406" y="100" type="line"/>
      <point x="406" y="0" type="line"/>
      <point x="72" y="0" type="line"/>
      <point x="72" y="100" type="line"/>
    </contour>
    <contour>
      <point x="386" y="844" type="line"/>
      <point x="212" y="750" type="line"/>
      <point x="178" y="801" type="line"/>
      <point x="321" y="926" type="line"/>
    </contour>
  </outline>
</glyph>
<glyph name="Icircumflex" format="2">
  <advance width="478"/>
  <unicode hex="00CE"/>
  <outline>
    <contour>
      <point x="293" y="700" type="qcurve"/>
      <point x="293" y="0" type="line"/>
      <point x="185" y="0" type="line"/>
      <point x="185" y="700" type="line"/>
      <point x="212" y="700"/>
      <point x="266" y="700"/>
    </contour>
    <contour>
      <point x="406" y="700" type="line"/>
      <point x="406" y="600" type="line"/>
      <point x="72" y="600" type="line"/>
      <point x="72" y="700" type="line"/>
    </contour>
    <contour>
      <point x="406" y="100" type="line"/>
      <point x="406" y="0" type="line"/>
      <point x="72" y="0" type="line"/>
      <point x="72" y="100" type="line"/>
    </contour>
    <contour>
      <point x="356" y="748" type="line"/>
      <point x="223" y="823" type="line"/>
      <point x="252" y="823" type="line"/>
      <point x="119" y="748" type="line"/>
      <point x="82" y="783" type="line"/>
      <point x="201" y="894" type="line"/>
      <point x="274" y="894" type="line"/>
      <point x="393" y="783" type="line"/>
    </contour>
  </outline>
</glyph>
<glyph name="Idieresis" format="2">
  <advance width="478"/>
  <unicode hex="00CF"/>
  <outline>
    <contour>
      <point x="293" y="700" type="qcurve"/>
      <point x="293" y="0" type="line"/>
      <point x="185" y="0" type="line"/>
      <point x="185" y="700" type="line"/>
      <point x="212" y="700"/>
      <point x="266" y="700"/>
    </contour>
    <contour>
      <point x="406" y="700" type="line"/>
      <point x="406" y="600" type="line"/>
      <point x="72" y="600" type="line"/>
      <point x="72" y="700" type="line"/>
    </contour>
    <contour>
      <point x="406" y="100" type="line"/>
      <point x="406" y="0" type="line"/>
      <point x="72" y="0" type="line"/>
      <point x="72" y="100" type="line"/>
    </contour>
    <contour>
      <point x="206" y="814" type="qcurve"/>
      <point x="206" y="785"/>
      <point x="169" y="749"/>
      <point x="137" y="749" type="qcurve"/>
      <point x="104" y="749"/>
      <point x="68" y="783"/>
      <point x="68" y="814" type="qcurve"/>
      <point x="68" y="843"/>
      <point x="105" y="879"/>
      <point x="137" y="879" type="qcurve"/>
      <point x="170" y="879"/>
      <point x="206" y="845"/>
    </contour>
    <contour>
      <point x="412" y="814" type="qcurve"/>
      <point x="412" y="785"/>
      <point x="375" y="749"/>
      <point x="343" y="749" type="qcurve"/>
      <point x="310" y="749"/>
      <point x="274" y="783"/>
      <point x="274" y="814" type="qcurve"/>
      <point x="274" y="843"/>
      <point x="311" y="879"/>
      <point x="343" y="879" type="qcurve"/>
      <point x="376" y="879"/>
      <point x="412" y="845"/>
    </contour>
  </outline>
</glyph>
<glyph name="Ograve" format="2">
  <advance width="782"/>
  <unicode hex="00D2"/>
  <outline>
    <contour>
      <point x="391" y="710" type="qcurve"/>
      <point x="539" y="710"/>
      <point x="734" y="504"/>
      <point x="734" y="350" type="qcurve"/>
      <point x="734" y="196"/>
      <point x="539" y="-10"/>
      <point x="391" y="-10" type="qcurve"/>
      <point x="243" y="-10"/>
      <point x="48" y="195"/>
      <point x="48" y="350" type="qcurve"/>
      <point x="48" y="505"/>
      <point x="243" y="710"/>
    </contour>
    <contour>
      <point x="391" y="95" type="qcurve"/>
      <point x="492" y="95"/>
      <point x="624" y="240"/>
      <point x="624" y="350" type="qcurve"/>
      <point x="624" y="460"/>
      <point x="492" y="605"/>
      <point x="391" y="605" type="qcurve"/>
      <point x="289" y="605"/>
      <point x="158" y="461"/>
      <point x="158" y="350" type="qcurve"/>
      <point x="158" y="239"/>
      <point x="289" y="95"/>
    </contour>
    <contour>
      <point x="454" y="805" type="line"/>
      <point x="420" y="754" type="line"/>
      <point x="246" y="848" type="line"/>
      <point x="311" y="930" type="line"/>
    </contour>
  </outline>
</glyph>
<glyph name="Oacute" format="2">
  <advance width="782"/>
  <unicode hex="00D3"/>
  <outline>
    <contour>
      <point x="391" y="710" type="qcurve"/>
      <point x="539" y="710"/>
      <point x="734" y="504"/>
      <point x="734" y="350" type="qcurve"/>
      <point x="734" y="196"/>
      <point x="539" y="-10"/>
      <point x="391" y="-10" type="qcurve"/>
      <point x="243" y="-10"/>
      <point x="48" y="195"/>
      <point x="48" y="350" type="qcurve"/>
      <point x="48" y="505"/>
      <point x="243" y="710"/>
    </contour>
    <contour>
      <point x="391" y="95" type="qcurve"/>
      <point x="492" y="95"/>
      <point x="624" y="240"/>
      <point x="624" y="350" type="qcurve"/>
      <point x="624" y="460"/>
      <point x="492" y="605"/>
      <point x="391" y="605" type="qcurve"/>
      <point x="289" y="605"/>
      <point x="158" y="461"/>
      <point x="158" y="350" type="qcurve"/>
      <point x="158" y="239"/>
      <point x="289" y="95"/>
    </contour>
    <contour>
      <point x="534" y="844" type="line"/>
      <point x="360" y="750" type="line"/>
      <point x="326" y="801" type="line"/>
      <point x="469" y="926" type="line"/>
    </contour>
  </outline>
</glyph>
<glyph name="Ugrave" format="2">
  <advance width="740"/>
  <unicode hex="00D9"/>
  <outline>
    <contour>
      <point x="549" y="701" type="line"/>
      <point x="652" y="701" type="line"/>
      <point x="652" y="269" type="line"/>
      <point x="652" y="150"/>
      <point x="492" y="-6"/>
      <point x="370" y="-6" type="qcurve"/>
      <point x="248" y="-6"/>
      <point x="88" y="150"/>
      <point x="88" y="269" type="qcurve"/>
      <point x="88" y="701" type="line"/>
      <point x="196" y="701" type="line"/>
      <point x="196" y="278" type="line"/>
      <point x="196" y="202"/>
      <point x="299" y="98"/>
      <point x="370" y="98" type="qcurve"/>
      <point x="445" y="98"/>
      <point x="549" y="202"/>
      <point x="549" y="278" type="qcurve"/>
    </contour>
    <contour>
      <point x="438" y="805" type="line"/>
      <point x="404" y="754" type="line"/>
      <point x="230" y="848" type="line"/>
      <point x="295" y="930" type="line"/>
    </contour>
  </outline>
</glyph>
<glyph name="Yacute" format="2">
  <advance width="660"/>
  <unicode hex="00DD"/>
  <outline>
    <contour>
      <point x="526" y="700" type="line"/>
      <point x="650" y="700" type="line"/>
      <point x="379" y="289" type="line"/>
      <point x="394" y="357" type="line"/>
      <point x="394" y="0" type="line"/>
      <point x="286" y="0" type="line"/>
      <point x="286" y="349" type="line"/>
      <point x="293" y="300" type="line"/>
      <point x="10" y="700" type="line"/>
      <point x="140" y="700" type="line"/>
      <point x="356" y="390" type="line"/>
      <point x="331" y="393" type="line"/>
    </contour>
    <contour>
      <point x="479" y="844" type="line"/>
      <point x="305" y="750" type="line"/>
      <point x="271" y="801" type="line"/>
      <point x="414" y="926" type="line"/>
    </contour>
  </outline>
</glyph>
<glyph name="germandbls" format="2">
  <advance width="664"/>
  <unicode hex="00DF"/>
  <outline>
    <contour>
      <point x="180" y="404" type="line"/>
      <point x="45" y="404" type="line"/>
      <point x="45" y="497" type="line"/>
      <point x="180" y="497" type="line"/>
    </contour>
    <contour>
      <point x="226" y="0" type="line"/>
      <point x="129" y="0" type="line"/>
      <point x="129" y="499" type="line"/>
      <point x="129" y="604"/>
      <point x="251" y="734"/>
      <point x="354" y="734" type="qcurve"/>
      <point x="445" y="734"/>
      <point x="553" y="645"/>
      <point x="553" y="574" type="qcurve"/>
      <point x="553" y="533"/>
      <point x="496" y="460"/>
      <point x="449" y="439" type="qcurve"/>
      <point x="447" y="443" type="line"/>
      <point x="525" y="418"/>
      <point x="622" y="289"/>
      <point x="622" y="203" type="qcurve"/>
      <point x="622" y="112"/>
      <point x="509" y="-10"/>
      <point x="422" y="-10" type="qcurve"/>
      <point x="374" y="-10"/>
      <point x="302" y="23"/>
      <point x="275" y="57" type="qcurve"/>
      <point x="327" y="112" type="line"/>
      <point x="354" y="88"/>
      <point x="400" y="68"/>
      <point x="424" y="68" type="qcurve"/>
      <point x="470" y="68"/>
      <point x="525" y="136"/>
      <point x="525" y="189" type="qcurve"/>
      <point x="525" y="267"/>
      <point x="438" y="362"/>
      <point x="344" y="385" type="qcurve"/>
      <point x="344" y="450" type="line"/>
      <point x="401" y="475"/>
      <point x="457" y="532"/>
      <point x="457" y="565" type="qcurve"/>
      <point x="457" y="602"/>
      <point x="400" y="644"/>
      <point x="350" y="644" type="qcurve"/>
      <point x="293" y="644"/>
      <point x="226" y="566"/>
      <point x="226" y="502" type="qcurve"/>
    </contour>
  </outline>
</glyph>
<glyph name="aacute" format="2">
  <advance width="633"/>
  <unicode hex="00E1"/>
  <outline>
    <contour>
      <point x="457" y="525" type="line"/>
      <point x="561" y="525" type="line"/>
      <point x="561" y="0" type="line"/>
      <point x="457" y="0" type="line"/>
      <point x="457" y="125" type="line"/>
      <point x="481" y="132" type="line"/>
      <point x="469" y="78"/>
      <point x="350" y="-10"/>
      <point x="274" y="-10" type="qcurve"/>
      <point x="176" y="-10"/>
      <point x="38" y="147"/>
      <point x="38" y="264" type="qcurve"/>
      <point x="38" y="383"/>
      <point x="180" y="536"/>
      <point x="283" y="536" type="qcurve"/>
      <point x="364" y="536"/>
      <point x="471" y="445"/>
      <point x="480" y="381" type="qcurve"/>
      <point x="457" y="389" type="line"/>
    </contour>
    <contour>
      <point x="143" y="264" type="qcurve"/>
      <point x="143" y="186"/>
      <point x="232" y="85"/>
      <point x="301" y="85" type="qcurve"/>
      <point x="371" y="85"/>
      <point x="461" y="186"/>
      <point x="461" y="264" type="qcurve"/>
      <point x="461" y="341"/>
      <point x="371" y="441"/>
      <point x="301" y="441" type="qcurve"/>
      <point x="232" y="441"/>
      <point x="143" y="341"/>
    </contour>
    <contour>
      <point x="464" y="725" type="line"/>
      <point x="290" y="631" type="line"/>
      <point x="256" y="682" type="line"/>
      <point x="399" y="807" type="line"/>
    </contour>
  </outline>
</glyph>
<glyph name="adieresis" format="2">
  <advance width="633"/>
  <unicode hex="00E4"/>
  <outline>
    <contour>
      <point x="457" y="525" type="line"/>
      <point x="561" y="525" type="line"/>
      <point x="561" y="0" type="line"/>
      <point x="457" y="0" type="line"/>
      <point x="457" y="125" type="line"/>
      <point x="481" y="132" type="line"/>
      <point x="469" y="78"/>
      <point x="350" y="-10"/>
      <point x="274" y="-10" type="qcurve"/>
      <point x="176" y="-10"/>
      <point x="38" y="147"/>
      <point x="38" y="264" type="qcurve"/>
      <point x="38" y="383"/>
      <point x="180" y="536"/>
      <point x="283" y="536" type="qcurve"/>
      <point x="364" y="536"/>
      <point x="471" y="445"/>
      <point x="480" y="381" type="qcurve"/>
      <point x="457" y="389" type="line"/>
    </contour>
    <contour>
      <point x="143" y="264" type="qcurve"/>
      <point x="143" y="186"/>
      <point x="232" y="85"/>
      <point x="301" y="85" type="qcurve"/>
      <point x="371" y="85"/>
      <point x="461" y="186"/>
      <point x="461" y="264" type="qcurve"/>
      <point x="461" y="341"/>
      <point x="371" y="441"/>
      <point x="301" y="441" type="qcurve"/>
      <point x="232" y="441"/>
      <point x="143" y="341"/>
    </contour>
    <contour>
      <point x="272" y="706" type="qcurve"/>
      <point x="272" y="677"/>
      <point x="235" y="641"/>
      <point x="203" y="641" type="qcurve"/>
      <point x="170" y="641"/>
      <point x="134" y="675"/>
      <point x="134" y="706" type="qcurve"/>
      <point x="134" y="735"/>
      <point x="171" y="771"/>
      <point x="203" y="771" type="qcurve"/>
      <point x="236" y="771"/>
      <point x="272" y="737"/>
    </contour>
    <contour>
      <point x="472" y="706" type="qcurve"/>
      <point x="472" y="677"/>
      <point x="435" y="641"/>
      <point x="403" y="641" type="qcurve"/>
      <point x="370" y="641"/>
      <point x="334" y="675"/>
      <point x="334" y="706" type="qcurve"/>
      <point x="334" y="735"/>
      <point x="371" y="771"/>
      <point x="403" y="771" type="qcurve"/>
      <point x="436" y="771"/>
      <point x="472" y="737"/>
    </contour>
  </outline>
</glyph>
<glyph name="ccedilla" format="2">
  <advance width="535"/>
  <unicode hex="00E7"/>
  <outline>
    <contour>
      <point x="305" y="443" type="qcurve"/>
      <point x="233" y="443"/>
      <point x="138" y="340"/>
      <point x="138" y="263" type="qcurve"/>
      <point x="138" y="187"/>
      <point x="237" y="83"/>
      <point x="306" y="83" type="qcurve"/>
      <point x="346" y="83"/>
      <point x="421" y="124"/>
      <point x="453" y="163" type="qcurve"/>
      <point x="510" y="93" type="line"/>
      <point x="478" y="48"/>
      <point x="359" y="-10"/>
      <point x="295" y="-10" type="qcurve"/>
      <point x="186" y="-10"/>
      <point x="40" y="147"/>
      <point x="40" y="263" type="qcurve"/>
      <point x="40" y="379"/>
      <point x="186" y="536"/>
      <point x="295" y="536" type="qcurve"/>
      <point x="365" y="536"/>
      <point x="480" y="479"/>
      <point x="510" y="430" type="qcurve"/>
      <point x="453" y="360" type="line"/>
      <point x="429" y="395"/>
      <point x="344" y="443"/>
    </contour>
    <contour>
      <point x="289" y="-97" type="line"/>
      <point x="231" y="-90" type="line"/>
      <point x="303" y="24" type="line"/>
      <point x="362" y="24" type="line"/>
    </contour>
    <contour>
      <point x="419" y="-139" type="qcurve"/>
      <point x="419" y="-162"/>
      <point x="379" y="-210"/>
      <point x="345" y="-225" type="qcurve"/>
      <point x="321" y="-235"/>
      <point x="262" y="-245"/>
      <point x="229" y="-244" type="qcurve"/>
      <point x="222" y="-191" type="line"/>
      <point x="258" y="-191"/>
      <point x="334" y="-157"/>
      <point x="334" y="-138" type="qcurve"/>
      <point x="334" y="-124"/>
      <point x="283" y="-101"/>
      <point x="244" y="-100" type="qcurve"/>
      <point x="231" y="-92" type="line"/>
      <point x="231" y="-90" type="line"/>
      <point x="290" y="-41" type="line"/>
      <point x="354" y="-49"/>
      <point x="419" y="-99"/>
    </contour>
  </outline>
</glyph>
<glyph name="edieresis" format="2">
  <advance width="586"/>
  <unicode hex="00EB"/>
  <outline>
    <contour>
      <point x="472" y="144" type="qcurve"/>
      <point x="524" y="71" type="line"/>
      <point x="487" y="35"/>
      <point x="373" y="-10"/>
      <point x="317" y="-10" type="qcurve"/>
      <point x="195" y="-10"/>
      <point x="40" y="140"/>
      <point x="40" y="257" type="qcurve"/>
      <point x="40" y="381"/>
      <point x="191" y="536"/>
      <point x="308" y="537" type="qcurve"/>
      <point x="410" y="536"/>
      <point x="546" y="392"/>
      <point x="546" y="282" type="qcurve"/>
      <point x="545" y="238" type="line"/>
      <point x="116" y="238" type="line"/>
      <point x="93" y="320" type="line"/>
      <point x="456" y="320" type="line"/>
      <point x="441" y="303" type="line"/>
      <point x="441" y="327" type="line"/>
      <point x="436" y="376"/>
      <point x="359" y="442"/>
      <point x="308" y="442" type="qcurve"/>
      <point x="227" y="442"/>
      <point x="142" y="351"/>
      <point x="142" y="264" type="qcurve"/>
      <point x="142" y="182"/>
      <point x="244" y="84"/>
      <point x="327" y="84" type="qcurve"/>
      <point x="366" y="84"/>
      <point x="433" y="110"/>
    </contour>
    <contour>
      <point x="258" y="706" type="qcurve"/>
      <point x="258" y="677"/>
      <point x="221" y="641"/>
      <point x="189" y="641" type="qcurve"/>
      <point x="156" y="641"/>
      <point x="120" y="675"/>
      <point x="120" y="706" type="qcurve"/>
      <point x="120" y="735"/>
      <point x="157" y="771"/>
      <point x="189" y="771" type="qcurve"/>
      <point x="222" y="771"/>
      <point x="258" y="737"/>
    </contour>
    <contour>
      <point x="458" y="706" type="qcurve"/>
      <point x="458" y="677"/>
      <point x="421" y="641"/>
      <point x="389" y="641" type="qcurve"/>
      <point x="356" y="641"/>
      <point x="320" y="675"/>
      <point x="320" y="706" type="qcurve"/>
      <point x="320" y="735"/>
      <point x="357" y="771"/>
      <point x="389" y="771" type="qcurve"/>
      <point x="422" y="771"/>
      <point x="458" y="737"/>
    </contour>
  </outline>
</glyph>
<glyph name="igrave" format="2">
  <advance width="243"/>
  <unicode hex="00EC"/>
  <outline>
    <contour>
      <point x="175" y="525" type="line"/>
      <point x="175" y="0" type="line"/>
      <point x="72" y="0" type="line"/>
      <point x="72" y="525" type="line"/>
    </contour>
    <contour>
      <point x="184" y="679" type="line"/>
      <point x="150" y="628" type="line"/>
      <point x="-24" y="722" type="line"/>
      <point x="41" y="804" type="line"/>
    </contour>
  </outline>
</glyph>
<glyph name="iacute" format="2">
  <advance width="243"/>
  <unicode hex="00ED"/>
  <outline>
    <contour>
      <point x="175" y="525" type="line"/>
      <point x="175" y="0" type="line"/>
      <point x="72" y="0" type="line"/>
      <point x="72" y="525" type="line"/>
    </contour>
    <contour>
      <point x="281" y="720" type="line"/>
      <point x="107" y="626" type="line"/>
      <point x="73" y="677" type="line"/>
      <point x="216" y="802" type="line"/>
    </contour>
  </outline>
</glyph>
<glyph name="idieresis" format="2">
  <advance width="243"/>
  <unicode hex="00EF"/>
  <outline>
    <contour>
      <point x="175" y="525" type="line"/>
      <point x="175" y="0" type="line"/>
      <point x="72" y="0" type="line"/>
      <point x="72" y="525" type="line"/>
    </contour>
    <contour>
      <point x="89" y="701" type="qcurve"/>
      <point x="89" y="672"/>
      <point x="52" y="636"/>
      <point x="20" y="636" type="qcurve"/>
      <point x="-13" y="636"/>
      <point x="-49" y="670"/>
      <point x="-49" y="701" type="qcurve"/>
      <point x="-49" y="730"/>
      <point x="-12" y="766"/>
      <point x="20" y="766" type="qcurve"/>
      <point x="53" y="766"/>
      <point x="89" y="732"/>
    </contour>
    <contour>
      <point x="289" y="701" type="qcurve"/>
      <point x="289" y="672"/>
      <point x="252" y="636"/>
      <point x="220" y="636" type="qcurve"/>
      <point x="187" y="636"/>
      <point x="151" y="670"/>
      <point x="151" y="701" type="qcurve"/>
      <point x="151" y="730"/>
      <point x="188" y="766"/>
      <point x="220" y="766" type="qcurve"/>
      <point x="253" y="766"/>
      <point x="289" y="732"/>
    </contour>
  </outline>
</glyph>
<glyph name="eth" format="2">
  <advance width="574"/>
  <unicode hex="00F0"/>
  <outline>
    <contour>
      <point x="534" y="281" type="qcurve"/>
      <point x="534" y="153"/>
      <point x="395" y="-7"/>
      <point x="287" y="-7" type="qcurve"/>
      <point x="184" y="-7"/>
      <point x="40" y="149"/>
      <point x="40" y="262" type="qcurve"/>
      <point x="40" y="370"/>
      <point x="182" y="528"/>
      <point x="275" y="528" type="qcurve"/>
      <point x="350" y="528"/>
      <point x="452" y="431"/>
      <point x="468" y="348" type="qcurve"/>
      <point x="418" y="379" type="line"/>
      <point x="412" y="495"/>
      <point x="298" y="623"/>
      <point x="169" y="662" type="qcurve"/>
      <point x="211" y="740" type="line"/>
      <point x="359" y="704"/>
      <point x="534" y="464"/>
    </contour>
    <contour>
      <point x="137" y="262" type="qcurve"/>
      <point x="137" y="189"/>
      <point x="224" y="89"/>
      <point x="287" y="89" type="qcurve"/>
      <point x="350" y="89"/>
      <point x="437" y="189"/>
      <point x="437" y="262" type="qcurve"/>
      <point x="437" y="333"/>
      <point x="350" y="432"/>
      <point x="287" y="432" type="qcurve"/>
      <point x="224" y="432"/>
      <point x="137" y="334"/>
    </contour>
    <contour>
      <point x="353" y="574" type="line"/>
      <point x="156" y="528" type="line"/>
      <point x="143" y="593" type="line"/>
      <point x="288" y="630" type="line"/>
      <point x="343" y="650" type="line"/>
      <point x="489" y="683" type="line"/>
      <point x="507" y="617" type="line"/>
      <point x="394" y="591" type="line"/>
    </contour>
  </outline>
</glyph>
<glyph name="oacute" format="2">
  <advance width="615"/>
  <unicode hex="00F3"/>
  <outline>
    <contour>
      <point x="308" y="536" type="qcurve"/>
      <point x="422" y="536"/>
      <point x="575" y="381"/>
      <point x="575" y="263" type="qcurve"/>
      <point x="575" y="145"/>
      <point x="422" y="-10"/>
      <point x="308" y="-10" type="qcurve"/>
      <point x="193" y="-10"/>
      <point x="40" y="145"/>
      <point x="40" y="263" type="qcurve"/>
      <point x="40" y="381"/>
      <point x="193" y="536"/>
    </contour>
    <contour>
      <point x="308" y="84" type="qcurve"/>
      <point x="379" y="84"/>
      <point x="471" y="186"/>
      <point x="470" y="263" type="qcurve"/>
      <point x="471" y="341"/>
      <point x="379" y="442"/>
      <point x="308" y="442" type="qcurve"/>
      <point x="237" y="442"/>
      <point x="144" y="340"/>
      <point x="145" y="263" type="qcurve"/>
      <point x="144" y="186"/>
      <point x="237" y="84"/>
    </contour>
    <contour>
      <point x="462" y="708" type="line"/>
      <point x="288" y="614" type="line"/>
      <point x="254" y="665" type="line"/>
      <point x="397" y="790" type="line"/>
    </contour>
  </outline>
</glyph>
<glyph name="otilde" format="2">
  <advance width="615"/>
  <unicode hex="00F5"/>
  <outline>
    <contour>
      <point x="308" y="536" type="qcurve"/>
      <point x="422" y="536"/>
      <point x="575" y="381"/>
      <point x="575" y="263" type="qcurve"/>
      <point x="575" y="145"/>
      <point x="422" y="-10"/>
      <point x="308" y="-10" type="qcurve"/>
      <point x="193" y="-10"/>
      <point x="40" y="145"/>
      <point x="40" y="263" type="qcurve"/>
      <point x="40" y="381"/>
      <point x="193" y="536"/>
    </contour>
    <contour>
      <point x="308" y="84" type="qcurve"/>
      <point x="379" y="84"/>
      <point x="471" y="186"/>
      <point x="470" y="263" type="qcurve"/>
      <point x="471" y="341"/>
      <point x="379" y="442"/>
      <point x="308" y="442" type="qcurve"/>
      <point x="237" y="442"/>
      <point x="144" y="340"/>
      <point x="145" y="263" type="qcurve"/>
      <point x="144" y="186"/>
      <point x="237" y="84"/>
    </contour>
    <contour>
      <point x="215" y="617" type="qcurve"/>
      <point x="142" y="627" type="line"/>
      <point x="144" y="679"/>
      <point x="206" y="748"/>
      <point x="252" y="748" type="qcurve"/>
      <point x="271" y="748"/>
      <point x="304" y="732"/>
      <point x="326" y="709" type="qcurve"/>
      <point x="341" y="694"/>
      <point x="355" y="686"/>
      <point x="362" y="686" type="qcurve"/>
      <point x="375" y="686"/>
      <point x="391" y="715"/>
      <point x="390" y="736" type="qcurve"/>
      <point x="463" y="720" type="line"/>
      <point x="460" y="676"/>
      <point x="404" y="614"/>
      <point x="362" y="614" type="qcurve"/>
      <point x="339" y="614"/>
      <point x="301" y="632"/>
      <point x="277" y="656" type="qcurve"/>
      <point x="265" y="668"/>
      <point x="255" y="675"/>
      <point x="250" y="675" type="qcurve"/>
      <point x="233" y="675"/>
      <point x="215" y="646"/>
    </contour>
  </outline>
</glyph>
<glyph name="odieresis" format="2">
  <advance width="615"/>
  <unicode hex="00F6"/>
  <outline>
    <contour>
      <point x="308" y="536" type="qcurve"/>
      <point x="422" y="536"/>
      <point x="575" y="381"/>
      <point x="575" y="263" type="qcurve"/>
      <point x="575" y="145"/>
      <point x="422" y="-10"/>
      <point x="308" y="-10" type="qcurve"/>
      <point x="193" y="-10"/>
      <point x="40" y="145"/>
      <point x="40" y="263" type="qcurve"/>
      <point x="40" y="381"/>
      <point x="193" y="536"/>
    </contour>
    <contour>
      <point x="308" y="84" type="qcurve"/>
      <point x="379" y="84"/>
      <point x="471" y="186"/>
      <point x="470" y="263" type="qcurve"/>
      <point x="471" y="341"/>
      <point x="379" y="442"/>
      <point x="308" y="442" type="qcurve"/>
      <point x="237" y="442"/>
      <point x="144" y="340"/>
      <point x="145" y="263" type="qcurve"/>
      <point x="144" y="186"/>
      <point x="237" y="84"/>
    </contour>
    <contour>
      <point x="270" y="689" type="qcurve"/>
      <point x="270" y="660"/>
      <point x="233" y="624"/>
      <point x="201" y="624" type="qcurve"/>
      <point x="168" y="624"/>
      <point x="132" y="658"/>
      <point x="132" y="689" type="qcurve"/>
      <point x="132" y="718"/>
      <point x="169" y="754"/>
      <point x="201" y="754" type="qcurve"/>
      <point x="234" y="754"/>
      <point x="270" y="720"/>
    </contour>
    <contour>
      <point x="470" y="689" type="qcurve"/>
      <point x="470" y="660"/>
      <point x="433" y="624"/>
      <point x="401" y="624" type="qcurve"/>
      <point x="368" y="624"/>
      <point x="332" y="658"/>
      <point x="332" y="689" type="qcurve"/>
      <point x="332" y="718"/>
      <point x="369" y="754"/>
      <point x="401" y="754" type="qcurve"/>
      <point x="434" y="754"/>
      <point x="470" y="720"/>
    </contour>
  </outline>
</glyph>
<glyph name="divide" format="2">
  <advance width="597"/>
  <unicode hex="00F7"/>
  <outline>
    <contour>
      <point x="547" y="215" type="line"/>
      <point x="50" y="215" type="line"/>
      <point x="50" y="305" type="line"/>
      <point x="547" y="305" type="line"/>
    </contour>
    <contour>
      <point x="358" y="80" type="qcurve"/>
      <point x="358" y="53"/>
      <point x="320" y="15"/>
      <point x="293" y="15" type="qcurve"/>
      <point x="266" y="15"/>
      <point x="227" y="53"/>
      <point x="227" y="80" type="qcurve"/>
      <point x="227" y="107"/>
      <point x="266" y="145"/>
      <point x="293" y="145" type="qcurve"/>
      <point x="320" y="145"/>
      <point x="358" y="107"/>
    </contour>
    <contour>
      <point x="358" y="436" type="qcurve"/>
      <point x="358" y="410"/>
      <point x="319" y="372"/>
      <point x="293" y="372" type="qcurve"/>
      <point x="266" y="372"/>
      <point x="227" y="410"/>
      <point x="227" y="436" type="qcurve"/>
      <point x="227" y="463"/>
      <point x="266" y="502"/>
      <point x="293" y="502" type="qcurve"/>
      <point x="320" y="502"/>
      <point x="358" y="463"/>
    </contour>
  </outline>
</glyph>
<glyph name="ucircumflex" format="2">
  <advance width="605"/>
  <unicode hex="00FB"/>
  <outline>
    <contour>
      <point x="298" y="80" type="qcurve"/>
      <point x="355" y="80"/>
      <point x="430" y="152"/>
      <point x="430" y="209" type="qcurve"/>
      <point x="430" y="525" type="line"/>
      <point x="533" y="525" type="line"/>
      <point x="533" y="0" type="line"/>
      <point x="430" y="0" type="line"/>
      <point x="430" y="110" type="line"/>
      <point x="448" y="122" type="line"/>
      <point x="430" y="66"/>
      <point x="323" y="-10"/>
      <point x="256" y="-10" type="qcurve"/>
      <point x="172" y="-10"/>
      <point x="72" y="104"/>
      <point x="72" y="201" type="qcurve"/>
      <point x="72" y="525" type="line"/>
      <point x="175" y="525" type="line"/>
      <point x="175" y="229" type="line"/>
      <point x="175" y="160"/>
      <point x="240" y="80"/>
    </contour>
    <contour>
      <point x="422" y="613" type="line"/>
      <point x="287" y="686" type="line"/>
      <point x="317" y="686" type="line"/>
      <point x="182" y="613" type="line"/>
      <point x="144" y="646" type="line"/>
      <point x="259" y="759" type="line"/>
      <point x="345" y="759" type="line"/>
      <point x="460" y="646" type="line"/>
    </contour>
  </outline>
</glyph>
<glyph name="udieresis" format="2">
  <advance width="605"/>
  <unicode hex="00FC"/>
  <outline>
    <contour>
      <point x="298" y="80" type="qcurve"/>
      <point x="355" y="80"/>
      <point x="430" y="152"/>
      <point x="430" y="209" type="qcurve"/>
      <point x="430" y="525" type="line"/>
      <point x="533" y="525" type="line"/>
      <point x="533" y="0" type="line"/>
      <point x="430" y="0" type="line"/>
      <point x="430" y="110" type="line"/>
      <point x="448" y="122" type="line"/>
      <point x="430" y="66"/>
      <point x="323" y="-10"/>
      <point x="256" y="-10" type="qcurve"/>
      <point x="172" y="-10"/>
      <point x="72" y="104"/>
      <point x="72" y="201" type="qcurve"/>
      <point x="72" y="525" type="line"/>
      <point x="175" y="525" type="line"/>
      <point x="175" y="229" type="line"/>
      <point x="175" y="160"/>
      <point x="240" y="80"/>
    </contour>
    <contour>
      <point x="264" y="686" type="qcurve"/>
      <point x="264" y="657"/>
      <point x="227" y="621"/>
      <point x="195" y="621" type="qcurve"/>
      <point x="162" y="621"/>
      <point x="126" y="655"/>
      <point x="126" y="686" type="qcurve"/>
      <point x="126" y="715"/>
      <point x="163" y="751"/>
      <point x="195" y="751" type="qcurve"/>
      <point x="228" y="751"/>
      <point x="264" y="717"/>
    </contour>
    <contour>
      <point x="464" y="686" type="qcurve"/>
      <point x="464" y="657"/>
      <point x="427" y="621"/>
      <point x="395" y="621" type="qcurve"/>
      <point x="362" y="621"/>
      <point x="326" y="655"/>
      <point x="326" y="686" type="qcurve"/>
      <point x="326" y="715"/>
      <point x="363" y="751"/>
      <point x="395" y="751" type="qcurve"/>
      <point x="428" y="751"/>
      <point x="464" y="717"/>
    </contour>
  </outline>
</glyph>
<glyph name="yacute" format="2">
  <advance width="581"/>
  <unicode hex="00FD"/>
  <outline>
    <contour>
      <point x="320" y="45" type="qcurve"/>
      <point x="265" y="-63" type="line"/>
      <point x="5" y="525" type="line"/>
      <point x="125" y="525" type="line"/>
      <point x="289" y="139" type="line"/>
      <point x="295" y="126"/>
      <point x="315" y="64"/>
    </contour>
    <contour>
      <point x="271" y="-230" type="line"/>
      <point x="160" y="-230" type="line"/>
      <point x="246" y="-33" type="line"/>
      <point x="285" y="58" type="line"/>
      <point x="290" y="71"/>
      <point x="302" y="104"/>
      <point x="317" y="146" type="qcurve"/>
      <point x="454" y="525" type="line"/>
      <point x="576" y="525" type="line"/>
      <point x="360" y="0" type="line"/>
    </contour>
    <contour>
      <point x="442" y="705" type="line"/>
      <point x="268" y="611" type="line"/>
      <point x="234" y="662" type="line"/>
      <point x="377" y="787" type="line"/>
    </contour>
  </outline>
</glyph>
<glyph name="ydieresis" format="2">
  <advance width="581"/>
  <unicode hex="00FF"/>
  <outline>
    <contour>
      <point x="320" y="45" type="qcurve"/>
      <point x="265" y="-63" type="line"/>
      <point x="5" y="525" type="line"/>
      <point x="125" y="525" type="line"/>
      <point x="289" y="139" type="line"/>
      <point x="295" y="126"/>
      <point x="315" y="64"/>
    </contour>
    <contour>
      <point x="271" y="-230" type="line"/>
      <point x="160" y="-230" type="line"/>
      <point x="246" y="-33" type="line"/>
      <point x="285" y="58" type="line"/>
      <point x="290" y="71"/>
      <point x="302" y="104"/>
      <point x="317" y="146" type="qcurve"/>
      <point x="454" y="525" type="line"/>
      <point x="576" y="525" type="line"/>
      <point x="360" y="0" type="line"/>
    </contour>
    <contour>
      <point x="250" y="686" type="qcurve"/>
      <point x="250" y="657"/>
      <point x="213" y="621"/>
      <point x="181" y="621" type="qcurve"/>
      <point x="148" y="621"/>
      <point x="112" y="655"/>
      <point x="112" y="686" type="qcurve"/>
      <point x="112" y="715"/>
      <point x="149" y="751"/>
      <point x="181" y="751" type="qcurve"/>
      <point x="214" y="751"/>
      <point x="250" y="717"/>
    </contour>
    <contour>
      <point x="450" y="686" type="qcurve"/>
      <point x="450" y="657"/>
      <point x="413" y="621"/>
      <point x="381" y="621" type="qcurve"/>
      <point x="348" y="621"/>
      <point x="312" y="655"/>
      <point x="312" y="686" type="qcurve"/>
      <point x="312" y="715"/>
      <point x="349" y="751"/>
      <point x="381" y="751" type="qcurve"/>
      <point x="414" y="751"/>
      <point x="450" y="717"/>
    </contour>
  </outline>
</glyph>
<glyph name="abreve" format="2">
  <advance width="633"/>
  <unicode hex="0103"/>
  <outline>
    <contour>
      <point x="457" y="525" type="line"/>
      <point x="561" y="525" type="line"/>
      <point x="561" y="0" type="line"/>
      <point x="457" y="0" type="line"/>
      <point x="457" y="125" type="line"/>
      <point x="481" y="132" type="line"/>
      <point x="469" y="78"/>
      <point x="350" y="-10"/>
      <point x="274" y="-10" type="qcurve"/>
      <point x="176" y="-10"/>
      <point x="38" y="147"/>
      <point x="38" y="264" type="qcurve"/>
      <point x="38" y="383"/>
      <point x="180" y="536"/>
      <point x="283" y="536" type="qcurve"/>
      <point x="364" y="536"/>
      <point x="471" y="445"/>
      <point x="480" y="381" type="qcurve"/>
      <point x="457" y="389" type="line"/>
    </contour>
    <contour>
      <point x="143" y="264" type="qcurve"/>
      <point x="143" y="186"/>
      <point x="232" y="85"/>
      <point x="301" y="85" type="qcurve"/>
      <point x="371" y="85"/>
      <point x="461" y="186"/>
      <point x="461" y="264" type="qcurve"/>
      <point x="461" y="341"/>
      <point x="371" y="441"/>
      <point x="301" y="441" type="qcurve"/>
      <point x="232" y="441"/>
      <point x="143" y="341"/>
    </contour>
    <contour>
      <point x="304" y="634" type="qcurve"/>
      <point x="243" y="634"/>
      <point x="156" y="717"/>
      <point x="142" y="788" type="qcurve"/>
      <point x="216" y="800" type="line"/>
      <point x="229" y="761"/>
      <point x="277" y="715"/>
      <point x="304" y="715" type="qcurve"/>
      <point x="331" y="715"/>
      <point x="379" y="761"/>
      <point x="392" y="800" type="qcurve"/>
      <point x="466" y="788" type="line"/>
      <point x="452" y="717"/>
      <point x="365" y="634"/>
    </contour>
  </outline>
</glyph>
<glyph name="ccircumflex" format="2">
  <advance width="535"/>
  <unicode hex="0109"/>
  <outline>
    <contour>
      <point x="305" y="443" type="qcurve"/>
      <point x="233" y="443"/>
      <point x="138" y="340"/>
      <point x="138" y="263" type="qcurve"/>
      <point x="138" y="187"/>
      <point x="237" y="83"/>
      <point x="306" y="83" type="qcurve"/>
      <point x="346" y="83"/>
      <point x="421" y="124"/>
      <point x="453" y="163" type="qcurve"/>
      <point x="510" y="93" type="line"/>
      <point x="478" y="48"/>
      <point x="359" y="-10"/>
      <point x="295" y="-10" type="qcurve"/>
      <point x="186" y="-10"/>
      <point x="40" y="147"/>
      <point x="40" y="263" type="qcurve"/>
      <point x="40" y="379"/>
      <point x="186" y="536"/>
      <point x="295" y="536" type="qcurve"/>
      <point x="365" y="536"/>
      <point x="480" y="479"/>
      <point x="510" y="430" type="qcurve"/>
      <point x="453" y="360" type="line"/>
      <point x="429" y="395"/>
      <point x="344" y="443"/>
    </contour>
    <contour>
      <point x="422" y="633" type="line"/>
      <point x="287" y="706" type="line"/>
      <point x="317" y="706" type="line"/>
      <point x="182" y="633" type="line"/>
      <point x="144" y="666" type="line"/>
      <point x="259" y="779" type="line"/>
      <point x="345" y="779" type="line"/>
      <point x="460" y="666" type="line"/>
    </contour>
  </outline>
</glyph>
<glyph name="Dcroat" format="2">
  <advance width="748"/>
  <unicode hex="0110"/>
  <outline>
    <contour>
      <point x="98" y="700" type="line"/>
      <point x="372" y="700" type="line"/>
      <point x="522" y="700"/>
      <point x="700" y="506"/>
      <point x="700" y="350" type="qcurve"/>
      <point x="700" y="193"/>
      <point x="523" y="0"/>
      <point x="372" y="0" type="qcurve"/>
      <point x="98" y="0" type="line"/>
    </contour>
    <contour>
      <point x="203" y="104" type="line"/>
      <point x="367" y="104" type="line"/>
      <point x="473" y="104"/>
      <point x="590" y="235"/>
      <point x="590" y="350" type="qcurve"/>
      <point x="590" y="464"/>
      <point x="472" y="596"/>
      <point x="367" y="596" type="qcurve"/>
      <point x="200" y="596" type="line"/>
      <point x="206" y="605" type="line"/>
      <point x="206" y="93" type="line"/>
    </contour>
    <contour>
      <point x="288" y="307" type="line"/>
      <point x="20" y="307" type="line"/>
      <point x="20" y="397" type="line"/>
      <point x="288" y="397" type="line"/>
    </contour>
  </outline>
</glyph>
<glyph name="Gcircumflex" format="2">
  <advance width="766"/>
  <unicode hex="011C"/>
  <outline>
    <contour>
      <point x="48" y="350" type="qcurve"/>
      <point x="48" y="501"/>
      <point x="257" y="706"/>
      <point x="410" y="706" type="qcurve"/>
      <point x="490" y="706"/>
      <point x="633" y="640"/>
      <point x="672" y="587" type="qcurve"/>
      <point x="602" y="514" type="line"/>
      <point x="557" y="557"/>
      <point x="460" y="601"/>
      <point x="410" y="601" type="qcurve"/>
      <point x="303" y="601"/>
      <point x="158" y="457"/>
      <point x="158" y="350" type="qcurve"/>
      <point x="158" y="245"/>
      <point x="309" y="95"/>
      <point x="414" y="95" type="qcurve"/>
      <point x="493" y="95"/>
      <point x="607" y="183"/>
      <point x="607" y="246" type="qcurve"/>
      <point x="607" y="266" type="line"/>
      <point x="622" y="252" type="line"/>
      <point x="408" y="252" type="line"/>
      <point x="408" y="359" type="line"/>
      <point x="718" y="359" type="line"/>
      <point x="721" y="342"/>
      <point x="723" y="313"/>
      <point x="723" y="299" type="qcurve"/>
      <point x="723" y="161"/>
      <point x="542" y="-10"/>
      <point x="411" y="-10" type="qcurve"/>
      <point x="258" y="-10"/>
      <point x="48" y="198"/>
    </contour>
    <contour>
      <point x="518" y="748" type="line"/>
      <point x="385" y="823" type="line"/>
      <point x="414" y="823" type="line"/>
      <point x="281" y="748" type="line"/>
      <point x="244" y="783" type="line"/>
      <point x="363" y="894" type="line"/>
      <point x="436" y="894" type="line"/>
      <point x="555" y="783" type="line"/>
    </contour>
  </outline>
</glyph>
<glyph name="Gbreve" format="2">
  <advance width="766"/>
  <unicode hex="011E"/>
  <outline>
    <contour>
      <point x="48" y="350" type="qcurve"/>
      <point x="48" y="501"/>
      <point x="257" y="706"/>
      <point x="410" y="706" type="qcurve"/>
      <point x="490" y="706"/>
      <point x="633" y="640"/>
      <point x="672" y="587" type="qcurve"/>
      <point x="602" y="514" type="line"/>
      <point x="557" y="557"/>
      <point x="460" y="601"/>
      <point x="410" y="601" type="qcurve"/>
      <point x="303" y="601"/>
      <point x="158" y="457"/>
      <point x="158" y="350" type="qcurve"/>
      <point x="158" y="245"/>
      <point x="309" y="95"/>
      <point x="414" y="95" type="qcurve"/>
      <point x="493" y="95"/>
      <point x="607" y="183"/>
      <point x="607" y="246" type="qcurve"/>
      <point x="607" y="266" type="line"/>
      <point x="622" y="252" type="line"/>
      <point x="408" y="252" type="line"/>
      <point x="408" y="359" type="line"/>
      <point x="718" y="359" type="line"/>
      <point x="721" y="342"/>
      <point x="723" y="313"/>
      <point x="723" y="299" type="qcurve"/>
      <point x="723" y="161"/>
      <point x="542" y="-10"/>
      <point x="411" y="-10" type="qcurve"/>
      <point x="258" y="-10"/>
      <point x="48" y="198"/>
    </contour>
    <contour>
      <point x="397" y="751" type="qcurve"/>
      <point x="336" y="751"/>
      <point x="249" y="834"/>
      <point x="235" y="905" type="qcurve"/>
      <point x="309" y="917" type="line"/>
      <point x="322" y="878"/>
      <point x="370" y="832"/>
      <point x="397" y="832" type="qcurve"/>
      <point x="424" y="832"/>
      <point x="472" y="878"/>
      <point x="485" y="917" type="qcurve"/>
      <point x="559" y="905" type="line"/>
      <point x="545" y="834"/>
      <point x="458" y="751"/>
    </contour>
  </outline>
</glyph>
<glyph name="uni0122" format="2">
  <advance width="766"/>
  <unicode hex="0122"/>
  <outline>
    <contour>
      <point x="48" y="350" type="qcurve"/>
      <point x="48" y="501"/>
      <point x="257" y="706"/>
      <point x="410" y="706" type="qcurve"/>
      <point x="490" y="706"/>
      <point x="633" y="640"/>
      <point x="672" y="587" type="qcurve"/>
      <point x="602" y="514" type="line"/>
      <point x="557" y="557"/>
      <point x="460" y="601"/>
      <point x="410" y="601" type="qcurve"/>
      <point x="303" y="601"/>
      <point x="158" y="457"/>
      <point x="158" y="350" type="qcurve"/>
      <point x="158" y="245"/>
      <point x="309" y="95"/>
      <point x="414" y="95" type="qcurve"/>
      <point x="493" y="95"/>
      <point x="607" y="183"/>
      <point x="607" y="246" type="qcurve"/>
      <point x="607" y="266" type="line"/>
      <point x="622" y="252" type="line"/>
      <point x="408" y="252" type="line"/>
      <point x="408" y="359" type="line"/>
      <point x="718" y="359" type="line"/>
      <point x="721" y="342"/>
      <point x="723" y="313"/>
      <point x="723" y="299" type="qcurve"/>
      <point x="723" y="161"/>
      <point x="542" y="-10"/>
      <point x="411" y="-10" type="qcurve"/>
      <point x="258" y="-10"/>
      <point x="48" y="198"/>
    </contour>
    <contour>
      <point x="368" y="-243" type="qcurve"/>
      <point x="344" y="-201" type="line"/>
      <point x="365" y="-196"/>
      <point x="398" y="-164"/>
      <point x="398" y="-149" type="qcurve"/>
      <point x="398" y="-143"/>
      <point x="391" y="-135"/>
      <point x="379" y="-132" type="qcurve"/>
      <point x="361" y="-127"/>
      <point x="349" y="-109"/>
      <point x="349" y="-94" type="qcurve"/>
      <point x="349" y="-72"/>
      <point x="385" y="-45"/>
      <point x="414" y="-45" type="qcurve"/>
      <point x="447" y="-45"/>
      <point x="492" y="-87"/>
      <point x="492" y="-122" type="qcurve"/>
      <point x="492" y="-160"/>
      <point x="424" y="-224"/>
    </contour>
  </outline>
</glyph>
<glyph name="Itilde" format="2">
  <advance width="478"/>
  <unicode hex="0128"/>
  <outline>
    <contour>
      <point x="293" y="700" type="qcurve"/>
      <point x="293" y="0" type="line"/>
      <point x="185" y="0" type="line"/>
      <point x="185" y="700" type="line"/>
      <point x="212" y="700"/>
      <point x="266" y="700"/>
    </contour>
    <contour>
      <point x="406" y="700" type="line"/>
      <point x="406" y="600" type="line"/>
      <point x="72" y="600" type="line"/>
      <point x="72" y="700" type="line"/>
    </contour>
    <contour>
      <point x="406" y="100" type="line"/>
      <point x="406" y="0" type="line"/>
      <point x="72" y="0" type="line"/>
      <point x="72" y="100" type="line"/>
    </contour>
    <contour>
      <point x="145" y="816" type="qcurve"/>
      <point x="68" y="816" type="line"/>
      <point x="68" y="868"/>
      <point x="125" y="929"/>
      <point x="174" y="929" type="qcurve"/>
      <point x="189" y="929"/>
      <point x="223" y="920"/>
      <point x="255" y="906" type="qcurve"/>
      <point x="280" y="895"/>
      <point x="302" y="889"/>
      <point x="310" y="889" type="qcurve"/>
      <point x="323" y="889"/>
      <point x="336" y="911"/>
      <point x="335" y="929" type="qcurve"/>
      <point x="411" y="929" type="line"/>
      <point x="411" y="880"/>
      <point x="360" y="815"/>
      <point x="319" y="815" type="qcurve"/>
      <point x="302" y="815"/>
      <point x="263" y="825"/>
      <point x="226" y="839" type="qcurve"/>
      <point x="201" y="849"/>
      <point x="179" y="855"/>
      <point x="172" y="855" type="qcurve"/>
      <point x="160" y="855"/>
      <point x="145" y="834"/>
    </contour>
  </outline>
</glyph>
<glyph name="itilde" format="2">
  <advance width="243"/>
  <unicode hex="0129"/>
  <outline>
    <contour>
      <point x="175" y="525" type="line"/>
      <point x="175" y="0" type="line"/>
      <point x="72" y="0" type="line"/>
      <point x="72" y="525" type="line"/>
    </contour>
    <contour>
      <point x="34" y="629" type="qcurve"/>
      <point x="-39" y="639" type="line"/>
      <point x="-37" y="691"/>
      <point x="25" y="760"/>
      <point x="71" y="760" type="qcurve"/>
      <point x="90" y="760"/>
      <point x="123" y="744"/>
      <point x="145" y="721" type="qcurve"/>
      <point x="160" y="706"/>
      <point x="174" y="698"/>
      <point x="181" y="698" type="qcurve"/>
      <point x="194" y="698"/>
      <point x="210" y="727"/>
      <point x="209" y="748" type="qcurve"/>
      <point x="282" y="732" type="line"/>
      <point x="279" y="688"/>
      <point x="223" y="626"/>
      <point x="181" y="626" type="qcurve"/>
      <point x="158" y="626"/>
      <point x="120" y="644"/>
      <point x="96" y="668" type="qcurve"/>
      <point x="84" y="680"/>
      <point x="74" y="687"/>
      <point x="69" y="687" type="qcurve"/>
      <point x="52" y="687"/>
      <point x="34" y="658"/>
    </contour>
  </outline>
</glyph>
<glyph name="imacron" format="2">
  <advance width="243"/>
  <unicode hex="012B"/>
  <outline>
    <contour>
      <point x="175" y="525" type="line"/>
      <point x="175" y="0" type="line"/>
      <point x="72" y="0" type="line"/>
      <point x="72" y="525" type="line"/>
    </contour>
    <contour>
      <point x="265" y="632" type="line"/>
      <point x="-19" y="632" type="line"/>
      <point x="-19" y="707" type="line"/>
      <point x="265" y="707" type="line"/>
    </contour>
  </outline>
</glyph>
<glyph name="ibreve" format="2">
  <advance width="243"/>
  <unicode hex="012D"/>
  <outline>
    <contour>
      <point x="175" y="525" type="line"/>
      <point x="175" y="0" type="line"/>
      <point x="72" y="0" type="line"/>
      <point x="72" y="525" type="line"/>
    </contour>
    <contour>
      <point x="121" y="629" type="qcurve"/>
      <point x="60" y="629"/>
      <point x="-27" y="712"/>
      <point x="-41" y="783" type="qcurve"/>
      <point x="33" y="795" type="line"/>
      <point x="46" y="756"/>
      <point x="94" y="710"/>
      <point x="121" y="710" type="qcurve"/>
      <point x="148" y="710"/>
      <point x="196" y="756"/>
      <point x="209" y="795" type="qcurve"/>
      <point x="283" y="783" type="line"/>
      <point x="269" y="712"/>
      <point x="182" y="629"/>
    </contour>
  </outline>
</glyph>
<glyph name="Iogonek" format="2">
  <advance width="434"/>
  <unicode hex="012E"/>
  <outline>
    <contour>
      <point x="293" y="700" type="qcurve"/>
      <point x="293" y="0" type="line"/>
      <point x="185" y="0" type="line"/>
      <point x="185" y="700" type="line"/>
      <point x="212" y="700"/>
      <point x="266" y="700"/>
    </contour>
    <contour>
      <point x="406" y="700" type="line"/>
      <point x="406" y="600" type="line"/>
      <point x="72" y="600" type="line"/>
      <point x="72" y="700" type="line"/>
    </contour>
    <contour>
      <point x="406" y="100" type="line"/>
      <point x="406" y="0" type="line"/>
      <point x="72" y="0" type="line"/>
      <point x="72" y="100" type="line"/>
    </contour>
    <contour>
      <point x="316" y="-200" type="qcurve"/>
      <point x="273" y="-200"/>
      <point x="207" y="-139"/>
      <point x="207" y="-97" type="qcurve"/>
      <point x="207" y="-47"/>
      <point x="290" y="31"/>
      <point x="362" y="51" type="qcurve"/>
      <point x="406" y="44" type="line"/>
      <point x="406" y="0" type="line"/>
      <point x="362" y="-10"/>
      <point x="298" y="-60"/>
      <point x="298" y="-87" type="qcurve"/>
      <point x="298" y="-103"/>
      <point x="317" y="-123"/>
      <point x="332" y="-123" type="qcurve"/>
      <point x="343" y="-123"/>
      <point x="361" y="-110"/>
      <point x="369" y="-98" type="qcurve"/>
      <point x="425" y="-138" type="line"/>
      <point x="415" y="-163"/>
      <point x="352" y="-200"/>
    </contour>
  </outline>
</glyph>
<glyph name="Idotaccent" format="2">
  <advance width="478"/>
  <unicode hex="0130"/>
  <outline>
    <contour>
      <point x="293" y="700" type="qcurve"/>
      <point x="293" y="0" type="line"/>
      <point x="185" y="0" type="line"/>
      <point x="185" y="700" type="line"/>
      <point x="212" y="700"/>
      <point x="266" y="700"/>
    </contour>
    <contour>
      <point x="406" y="700" type="line"/>
      <point x="406" y="600" type="line"/>
      <point x="72" y="600" type="line"/>
      <point x="72" y="700" type="line"/>
    </contour>
    <contour>
      <point x="406" y="100" type="line"/>
      <point x="406" y="0" type="line"/>
      <point x="72" y="0" type="line"/>
      <point x="72" y="100" type="line"/>
    </contour>
    <contour>
      <point x="308" y="824" type="qcurve"/>
      <point x="308" y="795"/>
      <point x="271" y="759"/>
      <point x="239" y="759" type="qcurve"/>
      <point x="206" y="759"/>
      <point x="170" y="793"/>
      <point x="170" y="824" type="qcurve"/>
      <point x="170" y="853"/>
      <point x="207" y="889"/>
      <point x="239" y="889" type="qcurve"/>
      <point x="272" y="889"/>
      <point x="308" y="855"/>
    </contour>
  </outline>
</glyph>
<glyph name="dotlessi" format="2">
  <advance width="243"/>
  <unicode hex="0131"/>
  <outline>
    <contour>
      <point x="175" y="525" type="line"/>
      <point x="175" y="0" type="line"/>
      <point x="72" y="0" type="line"/>
      <point x="72" y="525" type="line"/>
    </contour>
  </outline>
</glyph>
<glyph name="ij" format="2">
  <advance width="519"/>
  <unicode hex="0133"/>
  <outline>
    <contour>
      <point x="194" y="525" type="line"/>
      <point x="194" y="0" type="line"/>
      <point x="91" y="0" type="line"/>
      <point x="91" y="525" type="line"/>
    </contour>
    <contour>
      <point x="210" y="704" type="qcurve"/>
      <point x="210" y="675"/>
      <point x="173" y="639"/>
      <point x="141" y="639" type="qcurve"/>
      <point x="108" y="639"/>
      <point x="72" y="673"/>
      <point x="72" y="704" type="qcurve"/>
      <point x="72" y="733"/>
      <point x="109" y="769"/>
      <point x="141" y="769" type="qcurve"/>
      <point x="174" y="769"/>
      <point x="210" y="735"/>
    </contour>
    <contour>
      <point x="444" y="525" type="line"/>
      <point x="444" y="-24" type="line"/>
      <point x="444" y="-101"/>
      <point x="344" y="-197"/>
      <point x="264" y="-197" type="qcurve"/>
      <point x="225" y="-118" type="line"/>
      <point x="283" y="-118"/>
      <point x="341" y="-58"/>
      <point x="341" y="1" type="qcurve"/>
      <point x="341" y="525" type="line"/>
    </contour>
    <contour>
      <point x="464" y="710" type="qcurve"/>
      <point x="464" y="681"/>
      <point x="427" y="645"/>
      <point x="395" y="645" type="qcurve"/>
      <point x="362" y="645"/>
      <point x="326" y="679"/>
      <point x="326" y="710" type="qcurve"/>
      <point x="326" y="739"/>
      <point x="363" y="775"/>
      <point x="395" y="775" type="qcurve"/>
      <point x="428" y="775"/>
      <point x="464" y="741"/>
    </contour>
  </outline>
</glyph>
<glyph name="jcircumflex" format="2">
  <advance width="263"/>
  <unicode hex="0135"/>
  <outline>
    <contour>
      <point x="188" y="525" type="line"/>
      <point x="188" y="-24" type="line"/>
      <point x="188" y="-101"/>
      <point x="88" y="-197"/>
      <point x="8" y="-197" type="qcurve"/>
      <point x="-31" y="-118" type="line"/>
      <point x="27" y="-118"/>
      <point x="85" y="-58"/>
      <point x="85" y="1" type="qcurve"/>
      <point x="85" y="525" type="line"/>
    </contour>
    <contour>
      <point x="261" y="634" type="line"/>
      <point x="126" y="707" type="line"/>
      <point x="156" y="707" type="line"/>
      <point x="21" y="634" type="line"/>
      <point x="-17" y="667" type="line"/>
      <point x="98" y="780" type="line"/>
      <point x="184" y="780" type="line"/>
      <point x="299" y="667" type="line"/>
    </contour>
  </outline>
</glyph>
<glyph name="uni0136" format="2">
  <advance width="732"/>
  <unicode hex="0136"/>
  <outline>
    <contour>
      <point x="98" y="0" type="line"/>
      <point x="98" y="700" type="line"/>
      <point x="206" y="700" type="line"/>
      <point x="206" y="0" type="line"/>
    </contour>
    <contour>
      <point x="188" y="212" type="line"/>
      <point x="182" y="333" type="line"/>
      <point x="549" y="700" type="line"/>
      <point x="691" y="700" type="line"/>
    </contour>
    <contour>
      <point x="562" y="0" type="line"/>
      <point x="294" y="358" type="line"/>
      <point x="374" y="427" type="line"/>
      <point x="697" y="0" type="line"/>
    </contour>
    <contour>
      <point x="291" y="-243" type="qcurve"/>
      <point x="267" y="-201" type="line"/>
      <point x="288" y="-196"/>
      <point x="321" y="-164"/>
      <point x="321" y="-149" type="qcurve"/>
      <point x="321" y="-143"/>
      <point x="314" y="-135"/>
      <point x="302" y="-132" type="qcurve"/>
      <point x="284" y="-127"/>
      <point x="272" y="-109"/>
      <point x="272" y="-94" type="qcurve"/>
      <point x="272" y="-72"/>
      <point x="308" y="-45"/>
      <point x="337" y="-45" type="qcurve"/>
      <point x="370" y="-45"/>
      <point x="415" y="-87"/>
      <point x="415" y="-122" type="qcurve"/>
      <point x="415" y="-160"/>
      <point x="347" y="-224"/>
    </contour>
  </outline>
</glyph>
<glyph name="uni0137" format="2">
  <advance width="570"/>
  <unicode hex="0137"/>
  <outline>
    <contour>
      <point x="177" y="0" type="line"/>
      <point x="74" y="0" type="line"/>
      <point x="74" y="740" type="line"/>
      <point x="177" y="740" type="line"/>
    </contour>
    <contour>
      <point x="414" y="525" type="line"/>
      <point x="553" y="525" type="line"/>
      <point x="168" y="164" type="line"/>
      <point x="163" y="276" type="line"/>
    </contour>
    <contour>
      <point x="560" y="0" type="line"/>
      <point x="428" y="0" type="line"/>
      <point x="230" y="231" type="line"/>
      <point x="303" y="298" type="line"/>
    </contour>
    <contour>
      <point x="234" y="-242" type="qcurve"/>
      <point x="210" y="-200" type="line"/>
      <point x="231" y="-195"/>
      <point x="264" y="-163"/>
      <point x="264" y="-148" type="qcurve"/>
      <point x="264" y="-142"/>
      <point x="257" y="-134"/>
      <point x="245" y="-131" type="qcurve"/>
      <point x="227" y="-126"/>
      <point x="215" y="-108"/>
      <point x="215" y="-93" type="qcurve"/>
      <point x="215" y="-71"/>
      <point x="251" y="-44"/>
      <point x="280" y="-44" type="qcurve"/>
      <point x="313" y="-44"/>
      <point x="358" y="-86"/>
      <point x="358" y="-121" type="qcurve"/>
      <point x="358" y="-159"/>
      <point x="290" y="-223"/>
    </contour>
  </outline>
</glyph>
<glyph name="Lacute" format="2">
  <advance width="599"/>
  <unicode hex="0139"/>
  <outline>
    <contour>
      <point x="178" y="104" type="line"/>
      <point x="534" y="104" type="line"/>
      <point x="534" y="0" type="line"/>
      <point x="98" y="0" type="line"/>
      <point x="98" y="700" type="line"/>
      <point x="206" y="700" type="line"/>
      <point x="206" y="78" type="line"/>
    </contour>
    <contour>
      <point x="289" y="844" type="line"/>
      <point x="115" y="750" type="line"/>
      <point x="81" y="801" type="line"/>
      <point x="224" y="926" type="line"/>
    </contour>
  </outline>
</glyph>
<glyph name="uni013C" format="2">
  <advance width="251"/>
  <unicode hex="013C"/>
  <outline>
    <contour>
      <point x="177" y="0" type="line"/>
      <point x="74" y="0" type="line"/>
      <point x="74" y="740" type="line"/>
      <point x="177" y="740" type="line"/>
    </contour>
    <contour>
      <point x="77" y="-242" type="qcurve"/>
      <point x="53" y="-200" type="line"/>
      <point x="74" y="-195"/>
      <point x="107" y="-163"/>
      <point x="107" y="-148" type="qcurve"/>
      <point x="107" y="-142"/>
      <point x="100" y="-134"/>
      <point x="88" y="-131" type="qcurve"/>
      <point x="70" y="-126"/>
      <point x="58" y="-108"/>
      <point x="58" y="-93" type="qcurve"/>
      <point x="58" y="-71"/>
      <point x="94" y="-44"/>
      <point x="123" y="-44" type="qcurve"/>
      <point x="156" y="-44"/>
      <point x="201" y="-86"/>
      <point x="201" y="-121" type="qcurve"/>
      <point x="201" y="-159"/>
      <point x="133" y="-223"/>
    </contour>
  </outline>
</glyph>
<glyph name="Lcaron" format="2">
  <advance width="834"/>
  <unicode hex="013D"/>
  <outline>
    <contour>
      <point x="178" y="104" type="line"/>
      <point x="534" y="104" type="line"/>
      <point x="534" y="0" type="line"/>
      <point x="98" y="0" type="line"/>
      <point x="98" y="700" type="line"/>
      <point x="206" y="700" type="line"/>
      <point x="206" y="78" type="line"/>
    </contour>
    <contour>
      <point x="478" y="716" type="qcurve"/>
      <point x="516" y="716"/>
      <point x="567" y="653"/>
      <point x="567" y="603" type="qcurve"/>
      <point x="567" y="544"/>
      <point x="491" y="442"/>
      <point x="434" y="420" type="qcurve"/>
      <point x="396" y="466" type="line"/>
      <point x="431" y="486"/>
      <point x="475" y="538"/>
      <point x="475" y="557" type="qcurve"/>
      <point x="475" y="567"/>
      <point x="465" y="586"/>
      <point x="449" y="603" type="qcurve"/>
      <point x="429" y="622"/>
      <point x="417" y="648"/>
      <point x="417" y="663" type="qcurve"/>
      <point x="417" y="687"/>
      <point x="451" y="716"/>
    </contour>
  </outline>
</glyph>
<glyph name="Ldot" format="2">
  <advance width="924"/>
  <unicode hex="013F"/>
  <outline>
    <contour>
      <point x="178" y="104" type="line"/>
      <point x="534" y="104" type="line"/>
      <point x="534" y="0" type="line"/>
      <point x="98" y="0" type="line"/>
      <point x="98" y="700" type="line"/>
      <point x="206" y="700" type="line"/>
      <point x="206" y="78" type="line"/>
    </contour>
    <contour>
      <point x="483" y="374" type="qcurve"/>
      <point x="483" y="341"/>
      <point x="445" y="299"/>
      <point x="414" y="299" type="qcurve"/>
      <point x="381" y="299"/>
      <point x="345" y="338"/>
      <point x="345" y="374" type="qcurve"/>
      <point x="345" y="407"/>
      <point x="383" y="449"/>
      <point x="414" y="449" type="qcurve"/>
      <point x="447" y="449"/>
      <point x="483" y="410"/>
    </contour>
  </outline>
</glyph>
<glyph name="ldot" format="2">
  <advance width="363"/>
  <unicode hex="0140"/>
  <outline>
    <contour>
      <point x="177" y="0" type="line"/>
      <point x="74" y="0" type="line"/>
      <point x="74" y="740" type="line"/>
      <point x="177" y="740" type="line"/>
    </contour>
    <contour>
      <point x="378" y="351" type="qcurve"/>
      <point x="378" y="318"/>
      <point x="340" y="276"/>
      <point x="309" y="276" type="qcurve"/>
      <point x="276" y="276"/>
      <point x="240" y="315"/>
      <point x="240" y="351" type="qcurve"/>
      <point x="240" y="384"/>
      <point x="278" y="426"/>
      <point x="309" y="426" type="qcurve"/>
      <point x="342" y="426"/>
      <point x="378" y="387"/>
    </contour>
  </outline>
</glyph>
<glyph name="Nacute" format="2">
  <advance width="793"/>
  <unicode hex="0143"/>
  <outline>
    <contour>
      <point x="587" y="470" type="qcurve"/>
      <point x="587" y="700" type="line"/>
      <point x="695" y="700" type="line"/>
      <point x="695" y="0" type="line"/>
      <point x="596" y="0" type="line"/>
      <point x="175" y="552" type="line"/>
      <point x="186" y="566" type="line"/>
      <point x="192" y="502"/>
      <point x="206" y="336"/>
      <point x="206" y="291" type="qcurve"/>
      <point x="206" y="0" type="line"/>
      <point x="98" y="0" type="line"/>
      <point x="98" y="700" type="line"/>
      <point x="195" y="700" type="line"/>
      <point x="623" y="127" type="line"/>
      <point x="607" y="118" type="line"/>
      <point x="597" y="180"/>
      <point x="587" y="360"/>
    </contour>
    <contour>
      <point x="541" y="844" type="line"/>
      <point x="367" y="750" type="line"/>
      <point x="333" y="801" type="line"/>
      <point x="476" y="926" type="line"/>
    </contour>
  </outline>
</glyph>
<glyph name="Ncaron" format="2">
  <advance width="793"/>
  <unicode hex="0147"/>
  <outline>
    <contour>
      <point x="587" y="470" type="qcurve"/>
      <point x="587" y="700" type="line"/>
      <point x="695" y="700" type="line"/>
      <point x="695" y="0" type="line"/>
      <point x="596" y="0" type="line"/>
      <point x="175" y="552" type="line"/>
      <point x="186" y="566" type="line"/>
      <point x="192" y="502"/>
      <point x="206" y="336"/>
      <point x="206" y="291" type="qcurve"/>
      <point x="206" y="0" type="line"/>
      <point x="98" y="0" type="line"/>
      <point x="98" y="700" type="line"/>
      <point x="195" y="700" type="line"/>
      <point x="623" y="127" type="line"/>
      <point x="607" y="118" type="line"/>
      <point x="597" y="180"/>
      <point x="587" y="360"/>
    </contour>
    <contour>
      <point x="509" y="902" type="line"/>
      <point x="374" y="829" type="line"/>
      <point x="404" y="829" type="line"/>
      <point x="269" y="902" type="line"/>
      <point x="231" y="869" type="line"/>
      <point x="346" y="756" type="line"/>
      <point x="432" y="756" type="line"/>
      <point x="547" y="869" type="line"/>
    </contour>
  </outline>
</glyph>
<glyph name="napostrophe" format="2">
  <advance width="761"/>
  <unicode hex="0149"/>
  <outline>
    <contour>
      <point x="40" y="442" type="line"/>
      <point x="63" y="700" type="line"/>
      <point x="181" y="700" type="line"/>
      <point x="100" y="442" type="line"/>
    </contour>
    <contour>
      <point x="513" y="536" type="qcurve"/>
      <point x="603" y="536"/>
      <point x="693" y="429"/>
      <point x="693" y="320" type="qcurve"/>
      <point x="693" y="0" type="line"/>
      <point x="590" y="0" type="line"/>
      <point x="590" y="313" type="line"/>
      <point x="590" y="381"/>
      <point x="535" y="445"/>
      <point x="479" y="442" type="qcurve"/>
      <point x="420" y="442"/>
      <point x="341" y="370"/>
      <point x="341" y="318" type="qcurve"/>
      <point x="341" y="0" type="line"/>
      <point x="315" y="0"/>
      <point x="264" y="0"/>
      <point x="238" y="0" type="qcurve"/>
      <point x="238" y="525" type="line"/>
      <point x="341" y="525" type="line"/>
      <point x="341" y="417" type="line"/>
      <point x="323" y="405" type="line"/>
      <point x="338" y="457"/>
      <point x="450" y="536"/>
    </contour>
  </outline>
</glyph>
<glyph name="obreve" format="2">
  <advance width="615"/>
  <unicode hex="014F"/>
  <outline>
    <contour>
      <point x="308" y="536" type="qcurve"/>
      <point x="422" y="536"/>
      <point x="575" y="381"/>
      <point x="575" y="263" type="qcurve"/>
      <point x="575" y="145"/>
      <point x="422" y="-10"/>
      <point x="308" y="-10" type="qcurve"/>
      <point x="193" y="-10"/>
      <point x="40" y="145"/>
      <point x="40" y="263" type="qcurve"/>
      <point x="40" y="381"/>
      <point x="193" y="536"/>
    </contour>
    <contour>
      <point x="308" y="84" type="qcurve"/>
      <point x="379" y="84"/>
      <point x="471" y="186"/>
      <point x="470" y="263" type="qcurve"/>
      <point x="471" y="341"/>
      <point x="379" y="442"/>
      <point x="308" y="442" type="qcurve"/>
      <point x="237" y="442"/>
      <point x="144" y="340"/>
      <point x="145" y="263" type="qcurve"/>
      <point x="144" y="186"/>
      <point x="237" y="84"/>
    </contour>
    <contour>
      <point x="302" y="617" type="qcurve"/>
      <point x="241" y="617"/>
      <point x="154" y="700"/>
      <point x="140" y="771" type="qcurve"/>
      <point x="214" y="783" type="line"/>
      <point x="227" y="744"/>
      <point x="275" y="698"/>
      <point x="302" y="698" type="qcurve"/>
      <point x="329" y="698"/>
      <point x="377" y="744"/>
      <point x="390" y="783" type="qcurve"/>
      <point x="464" y="771" type="line"/>
      <point x="450" y="700"/>
      <point x="363" y="617"/>
    </contour>
  </outline>
</glyph>
<glyph name="Ohungarumlaut" format="2">
  <advance width="782"/>
  <unicode hex="0150"/>
  <outline>
    <contour>
      <point x="391" y="710" type="qcurve"/>
      <point x="539" y="710"/>
      <point x="734" y="504"/>
      <point x="734" y="350" type="qcurve"/>
      <point x="734" y="196"/>
      <point x="539" y="-10"/>
      <point x="391" y="-10" type="qcurve"/>
      <point x="243" y="-10"/>
      <point x="48" y="195"/>
      <point x="48" y="350" type="qcurve"/>
      <point x="48" y="505"/>
      <point x="243" y="710"/>
    </contour>
    <contour>
      <point x="391" y="95" type="qcurve"/>
      <point x="492" y="95"/>
      <point x="624" y="240"/>
      <point x="624" y="350" type="qcurve"/>
      <point x="624" y="460"/>
      <point x="492" y="605"/>
      <point x="391" y="605" type="qcurve"/>
      <point x="289" y="605"/>
      <point x="158" y="461"/>
      <point x="158" y="350" type="qcurve"/>
      <point x="158" y="239"/>
      <point x="289" y="95"/>
    </contour>
    <contour>
      <point x="443" y="838" type="line"/>
      <point x="269" y="744" type="line"/>
      <point x="235" y="795" type="line"/>
      <point x="378" y="920" type="line"/>
    </contour>
    <contour>
      <point x="642" y="838" type="line"/>
      <point x="468" y="744" type="line"/>
      <point x="434" y="795" type="line"/>
      <point x="577" y="920" type="line"/>
    </contour>
  </outline>
</glyph>
<glyph name="ohungarumlaut" format="2">
  <advance width="615"/>
  <unicode hex="0151"/>
  <outline>
    <contour>
      <point x="308" y="536" type="qcurve"/>
      <point x="422" y="536"/>
      <point x="575" y="381"/>
      <point x="575" y="263" type="qcurve"/>
      <point x="575" y="145"/>
      <point x="422" y="-10"/>
      <point x="308" y="-10" type="qcurve"/>
      <point x="193" y="-10"/>
      <point x="40" y="145"/>
      <point x="40" y="263" type="qcurve"/>
      <point x="40" y="381"/>
      <point x="193" y="536"/>
    </contour>
    <contour>
      <point x="308" y="84" type="qcurve"/>
      <point x="379" y="84"/>
      <point x="471" y="186"/>
      <point x="470" y="263" type="qcurve"/>
      <point x="471" y="341"/>
      <point x="379" y="442"/>
      <point x="308" y="442" type="qcurve"/>
      <point x="237" y="442"/>
      <point x="144" y="340"/>
      <point x="145" y="263" type="qcurve"/>
      <point x="144" y="186"/>
      <point x="237" y="84"/>
    </contour>
    <contour>
      <point x="358" y="668" type="line"/>
      <point x="184" y="574" type="line"/>
      <point x="150" y="625" type="line"/>
      <point x="293" y="750" type="line"/>
    </contour>
    <contour>
      <point x="557" y="668" type="line"/>
      <point x="383" y="574" type="line"/>
      <point x="349" y="625" type="line"/>
      <point x="492" y="750" type="line"/>
    </contour>
  </outline>
</glyph>
<glyph name="racute" format="2">
  <advance width="403"/>
  <unicode hex="0155"/>
  <outline>
    <contour>
      <point x="393" y="526" type="qcurve"/>
      <point x="366" y="414" type="line"/>
      <point x="354" y="419"/>
      <point x="325" y="426"/>
      <point x="311" y="426" type="qcurve"/>
      <point x="257" y="426"/>
      <point x="176" y="347"/>
      <point x="176" y="290" type="qcurve"/>
      <point x="176" y="0" type="line"/>
      <point x="72" y="0" type="line"/>
      <point x="72" y="525" type="line"/>
      <point x="176" y="525" type="line"/>
      <point x="176" y="360" type="line"/>
      <point x="166" y="400" type="line"/>
      <point x="183" y="457"/>
      <point x="281" y="536"/>
      <point x="336" y="536" type="qcurve"/>
      <point x="353" y="536"/>
      <point x="384" y="530"/>
    </contour>
    <contour>
      <point x="374" y="705" type="line"/>
      <point x="200" y="611" type="line"/>
      <point x="166" y="662" type="line"/>
      <point x="309" y="787" type="line"/>
    </contour>
  </outline>
</glyph>
<glyph name="uni0156" format="2">
  <advance width="695"/>
  <unicode hex="0156"/>
  <outline>
    <contour>
      <point x="617" y="477" type="qcurve"/>
      <point x="617" y="391"/>
      <point x="487" y="263"/>
      <point x="396" y="263" type="qcurve"/>
      <point x="193" y="263" type="line"/>
      <point x="193" y="367" type="line"/>
      <point x="406" y="367" type="line"/>
      <point x="450" y="367"/>
      <point x="507" y="431"/>
      <point x="507" y="478" type="qcurve"/>
      <point x="507" y="530"/>
      <point x="434" y="596"/>
      <point x="378" y="596" type="qcurve"/>
      <point x="196" y="596" type="line"/>
      <point x="206" y="630" type="line"/>
      <point x="206" y="0" type="line"/>
      <point x="98" y="0" type="line"/>
      <point x="98" y="700" type="line"/>
      <point x="396" y="700" type="line"/>
      <point x="486" y="700"/>
      <point x="617" y="572"/>
    </contour>
    <contour>
      <point x="336" y="316" type="line"/>
      <point x="447" y="341" type="line"/>
      <point x="645" y="-1" type="line"/>
      <point x="514" y="0" type="line"/>
    </contour>
    <contour>
      <point x="320" y="-243" type="qcurve"/>
      <point x="296" y="-201" type="line"/>
      <point x="317" y="-196"/>
      <point x="350" y="-164"/>
      <point x="350" y="-149" type="qcurve"/>
      <point x="350" y="-143"/>
      <point x="343" y="-135"/>
      <point x="331" y="-132" type="qcurve"/>
      <point x="313" y="-127"/>
      <point x="301" y="-109"/>
      <point x="301" y="-94" type="qcurve"/>
      <point x="301" y="-72"/>
      <point x="337" y="-45"/>
      <point x="366" y="-45" type="qcurve"/>
      <point x="399" y="-45"/>
      <point x="444" y="-87"/>
      <point x="444" y="-122" type="qcurve"/>
      <point x="444" y="-160"/>
      <point x="376" y="-224"/>
    </contour>
  </outline>
</glyph>
<glyph name="rcaron" format="2">
  <advance width="403"/>
  <unicode hex="0159"/>
  <outline>
    <contour>
      <point x="393" y="526" type="qcurve"/>
      <point x="366" y="414" type="line"/>
      <point x="354" y="419"/>
      <point x="325" y="426"/>
      <point x="311" y="426" type="qcurve"/>
      <point x="257" y="426"/>
      <point x="176" y="347"/>
      <point x="176" y="290" type="qcurve"/>
      <point x="176" y="0" type="line"/>
      <point x="72" y="0" type="line"/>
      <point x="72" y="525" type="line"/>
      <point x="176" y="525" type="line"/>
      <point x="176" y="360" type="line"/>
      <point x="166" y="400" type="line"/>
      <point x="183" y="457"/>
      <point x="281" y="536"/>
      <point x="336" y="536" type="qcurve"/>
      <point x="353" y="536"/>
      <point x="384" y="530"/>
    </contour>
    <contour>
      <point x="233" y="690" type="line"/>
      <point x="203" y="690" type="line"/>
      <point x="328" y="763" type="line"/>
      <point x="366" y="730" type="line"/>
      <point x="261" y="617" type="line"/>
      <point x="175" y="617" type="line"/>
      <point x="70" y="730" type="line"/>
      <point x="108" y="763" type="line"/>
    </contour>
  </outline>
</glyph>
<glyph name="Scedilla" format="2">
  <advance width="624"/>
  <unicode hex="015E"/>
  <outline>
    <contour>
      <point x="50" y="126" type="qcurve"/>
      <point x="124" y="211" type="line"/>
      <point x="173" y="141"/>
      <point x="263" y="87"/>
      <point x="325" y="87" type="qcurve"/>
      <point x="382" y="87"/>
      <point x="461" y="139"/>
      <point x="461" y="180" type="qcurve"/>
      <point x="461" y="226"/>
      <point x="383" y="285"/>
      <point x="299" y="301" type="qcurve"/>
      <point x="191" y="322"/>
      <point x="85" y="428"/>
      <point x="85" y="514" type="qcurve"/>
      <point x="85" y="599"/>
      <point x="224" y="710"/>
      <point x="326" y="710" type="qcurve"/>
      <point x="407" y="710"/>
      <point x="528" y="647"/>
      <point x="563" y="587" type="qcurve"/>
      <point x="487" y="512" type="line"/>
      <point x="457" y="561"/>
      <point x="374" y="613"/>
      <point x="323" y="613" type="qcurve"/>
      <point x="265" y="613"/>
      <point x="193" y="560"/>
      <point x="193" y="517" type="qcurve"/>
      <point x="193" y="474"/>
      <point x="258" y="421"/>
      <point x="337" y="405" type="qcurve"/>
      <point x="447" y="382"/>
      <point x="569" y="280"/>
      <point x="569" y="208" type="qcurve"/>
      <point x="569" y="108"/>
      <point x="432" y="-10"/>
      <point x="314" y="-10" type="qcurve"/>
      <point x="228" y="-10"/>
      <point x="97" y="58"/>
    </contour>
    <contour>
      <point x="291" y="-99" type="line"/>
      <point x="233" y="-92" type="line"/>
      <point x="305" y="22" type="line"/>
      <point x="364" y="22" type="line"/>
    </contour>
    <contour>
      <point x="421" y="-141" type="qcurve"/>
      <point x="421" y="-164"/>
      <point x="381" y="-212"/>
      <point x="347" y="-227" type="qcurve"/>
      <point x="323" y="-237"/>
      <point x="264" y="-247"/>
      <point x="231" y="-246" type="qcurve"/>
      <point x="224" y="-193" type="line"/>
      <point x="260" y="-193"/>
      <point x="336" y="-159"/>
      <point x="336" y="-140" type="qcurve"/>
      <point x="336" y="-126"/>
      <point x="285" y="-103"/>
      <point x="246" y="-102" type="qcurve"/>
      <point x="233" y="-94" type="line"/>
      <point x="233" y="-92" type="line"/>
      <point x="292" y="-43" type="line"/>
      <point x="356" y="-51"/>
      <point x="421" y="-101"/>
    </contour>
  </outline>
</glyph>
<glyph name="uni0162" format="2">
  <advance width="576"/>
  <unicode hex="0162"/>
  <outline>
    <contour>
      <point x="339" y="0" type="line"/>
      <point x="231" y="0" type="line"/>
      <point x="231" y="651" type="line"/>
      <point x="339" y="651" type="line"/>
    </contour>
    <contour>
      <point x="541" y="596" type="line"/>
      <point x="35" y="596" type="line"/>
      <point x="35" y="700" type="line"/>
      <point x="541" y="700" type="line"/>
    </contour>
    <contour>
      <point x="258" y="-97" type="line"/>
      <point x="200" y="-90" type="line"/>
      <point x="272" y="24" type="line"/>
      <point x="331" y="24" type="line"/>
    </contour>
    <contour>
      <point x="388" y="-139" type="qcurve"/>
      <point x="388" y="-162"/>
      <point x="348" y="-210"/>
      <point x="314" y="-225" type="qcurve"/>
      <point x="290" y="-235"/>
      <point x="231" y="-245"/>
      <point x="198" y="-244" type="qcurve"/>
      <point x="191" y="-191" type="line"/>
      <point x="227" y="-191"/>
      <point x="303" y="-157"/>
      <point x="303" y="-138" type="qcurve"/>
      <point x="303" y="-124"/>
      <point x="252" y="-101"/>
      <point x="213" y="-100" type="qcurve"/>
      <point x="200" y="-92" type="line"/>
      <point x="200" y="-90" type="line"/>
      <point x="259" y="-41" type="line"/>
      <point x="323" y="-49"/>
      <point x="388" y="-99"/>
    </contour>
  </outline>
</glyph>
<glyph name="Tcaron" format="2">
  <advance width="576"/>
  <unicode hex="0164"/>
  <outline>
    <contour>
      <point x="339" y="0" type="line"/>
      <point x="231" y="0" type="line"/>
      <point x="231" y="651" type="line"/>
      <point x="339" y="651" type="line"/>
    </contour>
    <contour>
      <point x="541" y="596" type="line"/>
      <point x="35" y="596" type="line"/>
      <point x="35" y="700" type="line"/>
      <point x="541" y="700" type="line"/>
    </contour>
    <contour>
      <point x="404" y="902" type="line"/>
      <point x="269" y="829" type="line"/>
      <point x="299" y="829" type="line"/>
      <point x="164" y="902" type="line"/>
      <point x="126" y="869" type="line"/>
      <point x="241" y="756" type="line"/>
      <point x="327" y="756" type="line"/>
      <point x="442" y="869" type="line"/>
    </contour>
  </outline>
</glyph>
<glyph name="tcaron" format="2">
  <advance width="389"/>
  <unicode hex="0165"/>
  <outline>
    <contour>
      <point x="240" y="659" type="line"/>
      <point x="240" y="0" type="line"/>
      <point x="137" y="0" type="line"/>
      <point x="137" y="659" type="line"/>
    </contour>
    <contour>
      <point x="362" y="525" type="line"/>
      <point x="362" y="425" type="line"/>
      <point x="28" y="425" type="line"/>
      <point x="28" y="525" type="line"/>
    </contour>
    <contour>
      <point x="285" y="583" type="qcurve"/>
      <point x="261" y="625" type="line"/>
      <point x="282" y="630"/>
      <point x="315" y="662"/>
      <point x="315" y="677" type="qcurve"/>
      <point x="315" y="683"/>
      <point x="308" y="691"/>
      <point x="296" y="694" type="qcurve"/>
      <point x="278" y="699"/>
      <point x="266" y="717"/>
      <point x="266" y="732" type="qcurve"/>
      <point x="266" y="754"/>
      <point x="302" y="781"/>
      <point x="331" y="781" type="qcurve"/>
      <point x="364" y="781"/>
      <point x="409" y="739"/>
      <point x="409" y="704" type="qcurve"/>
      <point x="409" y="666"/>
      <point x="341" y="602"/>
    </contour>
  </outline>
</glyph>
<glyph name="Utilde" format="2">
  <advance width="740"/>
  <unicode hex="0168"/>
  <outline>
    <contour>
      <point x="549" y="701" type="line"/>
      <point x="652" y="701" type="line"/>
      <point x="652" y="269" type="line"/>
      <point x="652" y="150"/>
      <point x="492" y="-6"/>
      <point x="370" y="-6" type="qcurve"/>
      <point x="248" y="-6"/>
      <point x="88" y="150"/>
      <point x="88" y="269" type="qcurve"/>
      <point x="88" y="701" type="line"/>
      <point x="196" y="701" type="line"/>
      <point x="196" y="278" type="line"/>
      <point x="196" y="202"/>
      <point x="299" y="98"/>
      <point x="370" y="98" type="qcurve"/>
      <point x="445" y="98"/>
      <point x="549" y="202"/>
      <point x="549" y="278" type="qcurve"/>
    </contour>
    <contour>
      <point x="277" y="816" type="qcurve"/>
      <point x="200" y="816" type="line"/>
      <point x="200" y="868"/>
      <point x="257" y="929"/>
      <point x="306" y="929" type="qcurve"/>
      <point x="321" y="929"/>
      <point x="355" y="920"/>
      <point x="387" y="906" type="qcurve"/>
      <point x="412" y="895"/>
      <point x="434" y="889"/>
      <point x="442" y="889" type="qcurve"/>
      <point x="455" y="889"/>
      <point x="468" y="911"/>
      <point x="467" y="929" type="qcurve"/>
      <point x="543" y="929" type="line"/>
      <point x="543" y="880"/>
      <point x="492" y="815"/>
      <point x="451" y="815" type="qcurve"/>
      <point x="434" y="815"/>
      <point x="395" y="825"/>
      <point x="358" y="839" type="qcurve"/>
      <point x="333" y="849"/>
      <point x="311" y="855"/>
      <point x="304" y="855" type="qcurve"/>
      <point x="292" y="855"/>
      <point x="277" y="834"/>
    </contour>
  </outline>
</glyph>
<glyph name="ubreve" format="2">
  <advance width="605"/>
  <unicode hex="016D"/>
  <outline>
    <contour>
      <point x="298" y="80" type="qcurve"/>
      <point x="355" y="80"/>
      <point x="430" y="152"/>
      <point x="430" y="209" type="qcurve"/>
      <point x="430" y="525" type="line"/>
      <point x="533" y="525" type="line"/>
      <point x="533" y="0" type="line"/>
      <point x="430" y="0" type="line"/>
      <point x="430" y="110" type="line"/>
      <point x="448" y="122" type="line"/>
      <point x="430" y="66"/>
      <point x="323" y="-10"/>
      <point x="256" y="-10" type="qcurve"/>
      <point x="172" y="-10"/>
      <point x="72" y="104"/>
      <point x="72" y="201" type="qcurve"/>
      <point x="72" y="525" type="line"/>
      <point x="175" y="525" type="line"/>
      <point x="175" y="229" type="line"/>
      <point x="175" y="160"/>
      <point x="240" y="80"/>
    </contour>
    <contour>
      <point x="296" y="614" type="qcurve"/>
      <point x="235" y="614"/>
      <point x="148" y="697"/>
      <point x="134" y="768" type="qcurve"/>
      <point x="208" y="780" type="line"/>
      <point x="221" y="741"/>
      <point x="269" y="695"/>
      <point x="296" y="695" type="qcurve"/>
      <point x="323" y="695"/>
      <point x="371" y="741"/>
      <point x="384" y="780" type="qcurve"/>
      <point x="458" y="768" type="line"/>
      <point x="444" y="697"/>
      <point x="357" y="614"/>
    </contour>
  </outline>
</glyph>
<glyph name="Uring" format="2">
  <advance width="740"/>
  <unicode hex="016E"/>
  <outline>
    <contour>
      <point x="549" y="701" type="line"/>
      <point x="652" y="701" type="line"/>
      <point x="652" y="269" type="line"/>
      <point x="652" y="150"/>
      <point x="492" y="-6"/>
      <point x="370" y="-6" type="qcurve"/>
      <point x="248" y="-6"/>
      <point x="88" y="150"/>
      <point x="88" y="269" type="qcurve"/>
      <point x="88" y="701" type="line"/>
      <point x="196" y="701" type="line"/>
      <point x="196" y="278" type="line"/>
      <point x="196" y="202"/>
      <point x="299" y="98"/>
      <point x="370" y="98" type="qcurve"/>
      <point x="445" y="98"/>
      <point x="549" y="202"/>
      <point x="549" y="278" type="qcurve"/>
    </contour>
    <contour>
      <point x="480" y="852" type="qcurve"/>
      <point x="480" y="810"/>
      <point x="414" y="747"/>
      <point x="370" y="747" type="qcurve"/>
      <point x="327" y="747"/>
      <point x="261" y="810"/>
      <point x="261" y="852" type="qcurve"/>
      <point x="261" y="895"/>
      <point x="326" y="958"/>
      <point x="370" y="958" type="qcurve"/>
      <point x="414" y="958"/>
      <point x="480" y="895"/>
    </contour>
    <contour>
      <point x="321" y="852" type="qcurve"/>
      <point x="321" y="833"/>
      <point x="350" y="806"/>
      <point x="370" y="806" type="qcurve"/>
      <point x="391" y="806"/>
      <point x="420" y="833"/>
      <point x="420" y="852" type="qcurve"/>
      <point x="420" y="873"/>
      <point x="391" y="899"/>
      <point x="370" y="899" type="qcurve"/>
      <point x="349" y="899"/>
      <point x="321" y="872"/>
    </contour>
  </outline>
</glyph>
<glyph name="uring" format="2">
  <advance width="605"/>
  <unicode hex="016F"/>
  <outline>
    <contour>
      <point x="298" y="80" type="qcurve"/>
      <point x="355" y="80"/>
      <point x="430" y="152"/>
      <point x="430" y="209" type="qcurve"/>
      <point x="430" y="525" type="line"/>
      <point x="533" y="525" type="line"/>
      <point x="533" y="0" type="line"/>
      <point x="430" y="0" type="line"/>
      <point x="430" y="110" type="line"/>
      <point x="448" y="122" type="line"/>
      <point x="430" y="66"/>
      <point x="323" y="-10"/>
      <point x="256" y="-10" type="qcurve"/>
      <point x="172" y="-10"/>
      <point x="72" y="104"/>
      <point x="72" y="201" type="qcurve"/>
      <point x="72" y="525" type="line"/>
      <point x="175" y="525" type="line"/>
      <point x="175" y="229" type="line"/>
      <point x="175" y="160"/>
      <point x="240" y="80"/>
    </contour>
    <contour>
      <point x="410" y="689" type="qcurve"/>
      <point x="410" y="647"/>
      <point x="344" y="584"/>
      <point x="300" y="584" type="qcurve"/>
      <point x="257" y="584"/>
      <point x="191" y="647"/>
      <point x="191" y="689" type="qcurve"/>
      <point x="191" y="732"/>
      <point x="256" y="795"/>
      <point x="300" y="795" type="qcurve"/>
      <point x="344" y="795"/>
      <point x="410" y="732"/>
    </contour>
    <contour>
      <point x="251" y="689" type="qcurve"/>
      <point x="251" y="670"/>
      <point x="280" y="643"/>
      <point x="300" y="643" type="qcurve"/>
      <point x="321" y="643"/>
      <point x="350" y="670"/>
      <point x="350" y="689" type="qcurve"/>
      <point x="350" y="710"/>
      <point x="321" y="736"/>
      <point x="300" y="736" type="qcurve"/>
      <point x="279" y="736"/>
      <point x="251" y="709"/>
    </contour>
  </outline>
</glyph>
<glyph name="Uhungarumlaut" format="2">
  <advance width="740"/>
  <unicode hex="0170"/>
  <outline>
    <contour>
      <point x="549" y="701" type="line"/>
      <point x="652" y="701" type="line"/>
      <point x="652" y="269" type="line"/>
      <point x="652" y="150"/>
      <point x="492" y="-6"/>
      <point x="370" y="-6" type="qcurve"/>
      <point x="248" y="-6"/>
      <point x="88" y="150"/>
      <point x="88" y="269" type="qcurve"/>
      <point x="88" y="701" type="line"/>
      <point x="196" y="701" type="line"/>
      <point x="196" y="278" type="line"/>
      <point x="196" y="202"/>
      <point x="299" y="98"/>
      <point x="370" y="98" type="qcurve"/>
      <point x="445" y="98"/>
      <point x="549" y="202"/>
      <point x="549" y="278" type="qcurve"/>
    </contour>
    <contour>
      <point x="427" y="838" type="line"/>
      <point x="253" y="744" type="line"/>
      <point x="219" y="795" type="line"/>
      <point x="362" y="920" type="line"/>
    </contour>
    <contour>
      <point x="626" y="838" type="line"/>
      <point x="452" y="744" type="line"/>
      <point x="418" y="795" type="line"/>
      <point x="561" y="920" type="line"/>
    </contour>
  </outline>
</glyph>
<glyph name="uhungarumlaut" format="2">
  <advance width="605"/>
  <unicode hex="0171"/>
  <outline>
    <contour>
      <point x="298" y="80" type="qcurve"/>
      <point x="355" y="80"/>
      <point x="430" y="152"/>
      <point x="430" y="209" type="qcurve"/>
      <point x="430" y="525" type="line"/>
      <point x="533" y="525" type="line"/>
      <point x="533" y="0" type="line"/>
      <point x="430" y="0" type="line"/>
      <point x="430" y="110" type="line"/>
      <point x="448" y="122" type="line"/>
      <point x="430" y="66"/>
      <point x="323" y="-10"/>
      <point x="256" y="-10" type="qcurve"/>
      <point x="172" y="-10"/>
      <point x="72" y="104"/>
      <point x="72" y="201" type="qcurve"/>
      <point x="72" y="525" type="line"/>
      <point x="175" y="525" type="line"/>
      <point x="175" y="229" type="line"/>
      <point x="175" y="160"/>
      <point x="240" y="80"/>
    </contour>
    <contour>
      <point x="352" y="665" type="line"/>
      <point x="178" y="571" type="line"/>
      <point x="144" y="622" type="line"/>
      <point x="287" y="747" type="line"/>
    </contour>
    <contour>
      <point x="551" y="665" type="line"/>
      <point x="377" y="571" type="line"/>
      <point x="343" y="622" type="line"/>
      <point x="486" y="747" type="line"/>
    </contour>
  </outline>
</glyph>
<glyph name="Uogonek" format="2">
  <advance width="728"/>
  <unicode hex="0172"/>
  <outline>
    <contour>
      <point x="364" y="-18" type="qcurve"/>
      <point x="244" y="-18"/>
      <point x="82" y="153"/>
      <point x="82" y="269" type="qcurve"/>
      <point x="82" y="701" type="line"/>
      <point x="190" y="701" type="line"/>
      <point x="190" y="278" type="line"/>
      <point x="190" y="198"/>
      <point x="293" y="88"/>
      <point x="364" y="88" type="qcurve"/>
      <point x="439" y="88"/>
      <point x="543" y="197"/>
      <point x="543" y="278" type="qcurve"/>
      <point x="543" y="701" type="line"/>
      <point x="646" y="701" type="line"/>
      <point x="646" y="269" type="line"/>
      <point x="646" y="181"/>
      <point x="555" y="45"/>
      <point x="475" y="8" type="qcurve"/>
      <point x="438" y="-7"/>
      <point x="393" y="-53"/>
      <point x="393" y="-75" type="qcurve"/>
      <point x="393" y="-99"/>
      <point x="415" y="-124"/>
      <point x="437" y="-124" type="qcurve"/>
      <point x="448" y="-124"/>
      <point x="466" y="-111"/>
      <point x="474" y="-99" type="qcurve"/>
      <point x="530" y="-139" type="line"/>
      <point x="520" y="-164"/>
      <point x="457" y="-201"/>
      <point x="421" y="-201" type="qcurve"/>
      <point x="376" y="-201"/>
      <point x="312" y="-136"/>
      <point x="312" y="-87" type="qcurve"/>
      <point x="312" y="-40"/>
      <point x="383" y="31"/>
      <point x="451" y="52" type="qcurve"/>
      <point x="464" y="12" type="line"/>
      <point x="451" y="-1"/>
      <point x="386" y="-18"/>
    </contour>
  </outline>
</glyph>
<glyph name="uogonek" format="2">
  <advance width="605"/>
  <unicode hex="0173"/>
  <outline>
    <contour>
      <point x="298" y="80" type="qcurve"/>
      <point x="355" y="80"/>
      <point x="430" y="152"/>
      <point x="430" y="209" type="qcurve"/>
      <point x="430" y="525" type="line"/>
      <point x="533" y="525" type="line"/>
      <point x="533" y="0" type="line"/>
      <point x="430" y="0" type="line"/>
      <point x="430" y="110" type="line"/>
      <point x="448" y="122" type="line"/>
      <point x="430" y="66"/>
      <point x="323" y="-10"/>
      <point x="256" y="-10" type="qcurve"/>
      <point x="172" y="-10"/>
      <point x="72" y="104"/>
      <point x="72" y="201" type="qcurve"/>
      <point x="72" y="525" type="line"/>
      <point x="175" y="525" type="line"/>
      <point x="175" y="229" type="line"/>
      <point x="175" y="160"/>
      <point x="240" y="80"/>
    </contour>
    <contour>
      <point x="443" y="-200" type="qcurve"/>
      <point x="400" y="-200"/>
      <point x="334" y="-139"/>
      <point x="334" y="-97" type="qcurve"/>
      <point x="334" y="-47"/>
      <point x="417" y="31"/>
      <point x="489" y="51" type="qcurve"/>
      <point x="533" y="44" type="line"/>
      <point x="533" y="0" type="line"/>
      <point x="489" y="-10"/>
      <point x="425" y="-60"/>
      <point x="425" y="-87" type="qcurve"/>
      <point x="425" y="-103"/>
      <point x="444" y="-123"/>
      <point x="459" y="-123" type="qcurve"/>
      <point x="470" y="-123"/>
      <point x="488" y="-110"/>
      <point x="496" y="-98" type="qcurve"/>
      <point x="552" y="-138" type="line"/>
      <point x="542" y="-163"/>
      <point x="479" y="-200"/>
    </contour>
  </outline>
</glyph>
<glyph name="wcircumflex" format="2">
  <advance width="800"/>
  <unicode hex="0175"/>
  <outline>
    <contour>
      <point x="674" y="525" type="line"/>
      <point x="778" y="525" type="line"/>
      <point x="601" y="0" type="line"/>
      <point x="530" y="0" type="line"/>
      <point x="384" y="334" type="line"/>
      <point x="407" y="331" type="line"/>
      <point x="271" y="0" type="line"/>
      <point x="201" y="0" type="line"/>
      <point x="22" y="525" type="line"/>
      <point x="126" y="526" type="line"/>
      <point x="254" y="133" type="line"/>
      <point x="231" y="135" type="line"/>
      <point x="370" y="442" type="line"/>
      <point x="432" y="442" type="line"/>
      <point x="572" y="134" type="line"/>
      <point x="545" y="132" type="line"/>
    </contour>
    <contour>
      <point x="533" y="608" type="line"/>
      <point x="398" y="681" type="line"/>
      <point x="428" y="681" type="line"/>
      <point x="293" y="608" type="line"/>
      <point x="255" y="641" type="line"/>
      <point x="370" y="754" type="line"/>
      <point x="456" y="754" type="line"/>
      <point x="571" y="641" type="line"/>
    </contour>
  </outline>
</glyph>
<glyph name="zdotaccent" format="2">
  <advance width="484"/>
  <unicode hex="017C"/>
  <outline>
    <contour>
      <point x="162" y="89" type="line"/>
      <point x="439" y="89" type="line"/>
      <point x="439" y="0" type="line"/>
      <point x="50" y="0" type="line"/>
      <point x="50" y="86" type="line"/>
      <point x="321" y="448" type="line"/>
      <point x="321" y="436" type="line"/>
      <point x="50" y="436" type="line"/>
      <point x="50" y="525" type="line"/>
      <point x="433" y="525" type="line"/>
      <point x="433" y="441" type="line"/>
      <point x="166" y="84" type="line"/>
    </contour>
    <contour>
      <point x="318" y="689" type="qcurve"/>
      <point x="318" y="660"/>
      <point x="281" y="624"/>
      <point x="249" y="624" type="qcurve"/>
      <point x="216" y="624"/>
      <point x="180" y="658"/>
      <point x="180" y="689" type="qcurve"/>
      <point x="180" y="718"/>
      <point x="217" y="754"/>
      <point x="249" y="754" type="qcurve"/>
      <point x="282" y="754"/>
      <point x="318" y="720"/>
    </contour>
  </outline>
</glyph>
<glyph name="zcaron" format="2">
  <advance width="484"/>
  <unicode hex="017E"/>
  <outline>
    <contour>
      <point x="162" y="89" type="line"/>
      <point x="439" y="89" type="line"/>
      <point x="439" y="0" type="line"/>
      <point x="50" y="0" type="line"/>
      <point x="50" y="86" type="line"/>
      <point x="321" y="448" type="line"/>
      <point x="321" y="436" type="line"/>
      <point x="50" y="436" type="line"/>
      <point x="50" y="525" type="line"/>
      <point x="433" y="525" type="line"/>
      <point x="433" y="441" type="line"/>
      <point x="166" y="84" type="line"/>
    </contour>
    <contour>
      <point x="264" y="690" type="line"/>
      <point x="234" y="690" type="line"/>
      <point x="359" y="763" type="line"/>
      <point x="397" y="730" type="line"/>
      <point x="292" y="617" type="line"/>
      <point x="206" y="617" type="line"/>
      <point x="101" y="730" type="line"/>
      <point x="139" y="763" type="line"/>
    </contour>
  </outline>
</glyph>
<glyph name="uni018F" format="2">
  <advance width="780"/>
  <unicode hex="018F"/>
  <outline>
    <contour>
      <point x="732" y="350" type="qcurve"/>
      <point x="732" y="201"/>
      <point x="531" y="-10"/>
      <point x="390" y="-10" type="qcurve"/>
      <point x="254" y="-10"/>
      <point x="55" y="174"/>
      <point x="48" y="313" type="qcurve"/>
      <point x="48" y="393" type="line"/>
      <point x="686" y="393" type="line"/>
      <point x="695" y="296" type="line"/>
      <point x="152" y="296" type="line"/>
      <point x="167" y="206"/>
      <point x="303" y="87"/>
      <point x="390" y="87" type="qcurve"/>
      <point x="494" y="87"/>
      <point x="629" y="233"/>
      <point x="629" y="351" type="qcurve"/>
      <point x="629" y="472"/>
      <point x="496" y="613"/>
      <point x="387" y="613" type="qcurve"/>
      <point x="324" y="613"/>
      <point x="226" y="575"/>
      <point x="184" y="536" type="qcurve"/>
      <point x="116" y="606" type="line"/>
      <point x="171" y="660"/>
      <point x="300" y="710"/>
      <point x="387" y="710" type="qcurve"/>
      <point x="529" y="710"/>
      <point x="732" y="499"/>
    </contour>
  </outline>
</glyph>
<glyph name="florin" format="2">
  <advance width="519"/>
  <unicode hex="0192"/>
  <outline>
    <contour>
      <point x="96" y="-31" type="qcurve"/>
      <point x="70" y="-31"/>
      <point x="20" y="-13"/>
      <point x="4" y="1" type="qcurve"/>
      <point x="32" y="69" type="line"/>
      <point x="47" y="61"/>
      <point x="73" y="54"/>
      <point x="90" y="54" type="qcurve"/>
      <point x="115" y="54"/>
      <point x="148" y="93"/>
      <point x="155" y="129" type="qcurve"/>
      <point x="227" y="538" type="line"/>
      <point x="241" y="616"/>
      <point x="325" y="692"/>
      <point x="398" y="692" type="qcurve"/>
      <point x="432" y="692"/>
      <point x="490" y="675"/>
      <point x="516" y="657" type="qcurve"/>
      <point x="486" y="593" type="line"/>
      <point x="464" y="601"/>
      <point x="431" y="608"/>
      <point x="417" y="608" type="qcurve"/>
      <point x="377" y="608"/>
      <point x="332" y="567"/>
      <point x="324" y="523" type="qcurve"/>
      <point x="253" y="119" type="line"/>
      <point x="239" y="43"/>
      <point x="161" y="-31"/>
    </contour>
    <contour>
      <point x="440" y="361" type="line"/>
      <point x="71" y="362" type="line"/>
      <point x="71" y="445" type="line"/>
      <point x="440" y="444" type="line"/>
    </contour>
  </outline>
</glyph>
<glyph name="Ohorn" format="2">
  <advance width="782"/>
  <unicode hex="01A0"/>
  <outline>
    <contour>
      <point x="391" y="710" type="qcurve"/>
      <point x="539" y="710"/>
      <point x="734" y="504"/>
      <point x="734" y="350" type="qcurve"/>
      <point x="734" y="196"/>
      <point x="539" y="-10"/>
      <point x="391" y="-10" type="qcurve"/>
      <point x="243" y="-10"/>
      <point x="48" y="195"/>
      <point x="48" y="350" type="qcurve"/>
      <point x="48" y="505"/>
      <point x="243" y="710"/>
    </contour>
    <contour>
      <point x="391" y="95" type="qcurve"/>
      <point x="492" y="95"/>
      <point x="624" y="240"/>
      <point x="624" y="350" type="qcurve"/>
      <point x="624" y="460"/>
      <point x="492" y="605"/>
      <point x="391" y="605" type="qcurve"/>
      <point x="289" y="605"/>
      <point x="158" y="461"/>
      <point x="158" y="350" type="qcurve"/>
      <point x="158" y="239"/>
      <point x="289" y="95"/>
    </contour>
    <contour>
      <point x="461" y="616" type="qcurve"/>
      <point x="461" y="698" type="line"/>
      <point x="506" y="698"/>
      <point x="550" y="755"/>
      <point x="550" y="812" type="qcurve"/>
      <point x="642" y="812" type="line"/>
      <point x="642" y="721"/>
      <point x="547" y="616"/>
    </contour>
  </outline>
</glyph>
<glyph name="ohorn" format="2">
  <advance width="615"/>
  <unicode hex="01A1"/>
  <outline>
    <contour>
      <point x="308" y="536" type="qcurve"/>
      <point x="422" y="536"/>
      <point x="575" y="381"/>
      <point x="575" y="263" type="qcurve"/>
      <point x="575" y="145"/>
      <point x="422" y="-10"/>
      <point x="308" y="-10" type="qcurve"/>
      <point x="193" y="-10"/>
      <point x="40" y="145"/>
      <point x="40" y="263" type="qcurve"/>
      <point x="40" y="381"/>
      <point x="193" y="536"/>
    </contour>
    <contour>
      <point x="308" y="84" type="qcurve"/>
      <point x="379" y="84"/>
      <point x="471" y="186"/>
      <point x="470" y="263" type="qcurve"/>
      <point x="471" y="341"/>
      <point x="379" y="442"/>
      <point x="308" y="442" type="qcurve"/>
      <point x="237" y="442"/>
      <point x="144" y="340"/>
      <point x="145" y="263" type="qcurve"/>
      <point x="144" y="186"/>
      <point x="237" y="84"/>
    </contour>
    <contour>
      <point x="393" y="441" type="qcurve"/>
      <point x="393" y="523" type="line"/>
      <point x="437" y="523"/>
      <point x="481" y="580"/>
      <point x="481" y="637" type="qcurve"/>
      <point x="563" y="637" type="line"/>
      <point x="563" y="546"/>
      <point x="473" y="441"/>
    </contour>
  </outline>
</glyph>
<glyph name="uni01C4" format="2">
  <advance width="1392"/>
  <unicode hex="01C4"/>
  <outline>
    <contour>
      <point x="98" y="700" type="line"/>
      <point x="372" y="700" type="line"/>
      <point x="522" y="700"/>
      <point x="700" y="506"/>
      <point x="700" y="350" type="qcurve"/>
      <point x="700" y="193"/>
      <point x="523" y="0"/>
      <point x="372" y="0" type="qcurve"/>
      <point x="98" y="0" type="line"/>
    </contour>
    <contour>
      <point x="203" y="104" type="line"/>
      <point x="367" y="104" type="line"/>
      <point x="473" y="104"/>
      <point x="590" y="235"/>
      <point x="590" y="350" type="qcurve"/>
      <point x="590" y="464"/>
      <point x="472" y="596"/>
      <point x="367" y="596" type="qcurve"/>
      <point x="200" y="596" type="line"/>
      <point x="206" y="605" type="line"/>
      <point x="206" y="93" type="line"/>
    </contour>
    <contour>
      <point x="819" y="700" type="line"/>
      <point x="1326" y="700" type="line"/>
      <point x="1326" y="622" type="line"/>
      <point x="929" y="87" type="line"/>
      <point x="913" y="104" type="line"/>
      <point x="1337" y="104" type="line"/>
      <point x="1337" y="0" type="line"/>
      <point x="793" y="0" type="line"/>
      <point x="793" y="79" type="line"/>
      <point x="1192" y="613" type="line"/>
      <point x="1207" y="596" type="line"/>
      <point x="819" y="596" type="line"/>
    </contour>
    <contour>
      <point x="1179" y="902" type="line"/>
      <point x="1044" y="829" type="line"/>
      <point x="1074" y="829" type="line"/>
      <point x="939" y="902" type="line"/>
      <point x="901" y="869" type="line"/>
      <point x="1016" y="756" type="line"/>
      <point x="1102" y="756" type="line"/>
      <point x="1217" y="869" type="line"/>
    </contour>
  </outline>
</glyph>
<glyph name="uni01C7" format="2">
  <advance width="1241"/>
  <unicode hex="01C7"/>
  <outline>
    <contour>
      <point x="178" y="104" type="line"/>
      <point x="534" y="104" type="line"/>
      <point x="534" y="0" type="line"/>
      <point x="98" y="0" type="line"/>
      <point x="98" y="700" type="line"/>
      <point x="206" y="700" type="line"/>
      <point x="206" y="78" type="line"/>
    </contour>
    <contour>
      <point x="855" y="-10" type="qcurve"/>
      <point x="787" y="-10"/>
      <point x="678" y="60"/>
      <point x="649" y="117" type="qcurve"/>
      <point x="717" y="188" type="line"/>
      <point x="760" y="129"/>
      <point x="818" y="95"/>
      <point x="855" y="95" type="qcurve"/>
      <point x="909" y="95"/>
      <point x="975" y="167"/>
      <point x="975" y="223" type="qcurve"/>
      <point x="975" y="700" type="line"/>
      <point x="1083" y="700" type="line"/>
      <point x="1083" y="213" type="line"/>
      <point x="1083" y="118"/>
      <point x="956" y="-10"/>
    </contour>
    <contour>
      <point x="1191" y="700" type="line"/>
      <point x="1191" y="600" type="line"/>
      <point x="847" y="600" type="line"/>
      <point x="847" y="700" type="line"/>
    </contour>
  </outline>
</glyph>
<glyph name="uni01EA" format="2">
  <advance width="782"/>
  <unicode hex="01EA"/>
  <outline>
    <contour>
      <point x="391" y="710" type="qcurve"/>
      <point x="539" y="710"/>
      <point x="734" y="504"/>
      <point x="734" y="350" type="qcurve"/>
      <point x="734" y="196"/>
      <point x="539" y="-10"/>
      <point x="391" y="-10" type="qcurve"/>
      <point x="243" y="-10"/>
      <point x="48" y="195"/>
      <point x="48" y="350" type="qcurve"/>
      <point x="48" y="505"/>
      <point x="243" y="710"/>
    </contour>
    <contour>
      <point x="391" y="95" type="qcurve"/>
      <point x="492" y="95"/>
      <point x="624" y="240"/>
      <point x="624" y="350" type="qcurve"/>
      <point x="624" y="460"/>
      <point x="492" y="605"/>
      <point x="391" y="605" type="qcurve"/>
      <point x="289" y="605"/>
      <point x="158" y="461"/>
      <point x="158" y="350" type="qcurve"/>
      <point x="158" y="239"/>
      <point x="289" y="95"/>
    </contour>
    <contour>
      <point x="386" y="-200" type="qcurve"/>
      <point x="343" y="-200"/>
      <point x="277" y="-139"/>
      <point x="277" y="-97" type="qcurve"/>
      <point x="277" y="-47"/>
      <point x="360" y="31"/>
      <point x="432" y="51" type="qcurve"/>
      <point x="476" y="44" type="line"/>
      <point x="476" y="0" type="line"/>
      <point x="432" y="-10"/>
      <point x="368" y="-60"/>
      <point x="368" y="-87" type="qcurve"/>
      <point x="368" y="-103"/>
      <point x="387" y="-123"/>
      <point x="402" y="-123" type="qcurve"/>
      <point x="413" y="-123"/>
      <point x="431" y="-110"/>
      <point x="439" y="-98" type="qcurve"/>
      <point x="495" y="-138" type="line"/>
      <point x="485" y="-163"/>
      <point x="422" y="-200"/>
    </contour>
  </outline>
</glyph>
<glyph name="uni01F2" format="2">
  <advance width="1231"/>
  <unicode hex="01F2"/>
  <outline>
    <contour>
      <point x="98" y="700" type="line"/>
      <point x="372" y="700" type="line"/>
      <point x="522" y="700"/>
      <point x="700" y="506"/>
      <point x="700" y="350" type="qcurve"/>
      <point x="700" y="193"/>
      <point x="523" y="0"/>
      <point x="372" y="0" type="qcurve"/>
      <point x="98" y="0" type="line"/>
    </contour>
    <contour>
      <point x="203" y="104" type="line"/>
      <point x="367" y="104" type="line"/>
      <point x="473" y="104"/>
      <point x="590" y="235"/>
      <point x="590" y="350" type="qcurve"/>
      <point x="590" y="464"/>
      <point x="472" y="596"/>
      <point x="367" y="596" type="qcurve"/>
      <point x="200" y="596" type="line"/>
      <point x="206" y="605" type="line"/>
      <point x="206" y="93" type="line"/>
    </contour>
    <contour>
      <point x="909" y="89" type="line"/>
      <point x="1186" y="89" type="line"/>
      <point x="1186" y="0" type="line"/>
      <point x="797" y="0" type="line"/>
      <point x="797" y="86" type="line"/>
      <point x="1068" y="448" type="line"/>
      <point x="1068" y="436" type="line"/>
      <point x="797" y="436" type="line"/>
      <point x="797" y="525" type="line"/>
      <point x="1180" y="525" type="line"/>
      <point x="1180" y="441" type="line"/>
      <point x="913" y="84" type="line"/>
    </contour>
  </outline>
</glyph>
<glyph name="aringacute" format="2">
  <advance width="615"/>
  <unicode hex="01FB"/>
  <outline>
    <contour>
      <point x="457" y="525" type="line"/>
      <point x="561" y="525" type="line"/>
      <point x="561" y="0" type="line"/>
      <point x="457" y="0" type="line"/>
      <point x="457" y="125" type="line"/>
      <point x="481" y="132" type="line"/>
      <point x="469" y="78"/>
      <point x="350" y="-10"/>
      <point x="274" y="-10" type="qcurve"/>
      <point x="176" y="-10"/>
      <point x="38" y="147"/>
      <point x="38" y="264" type="qcurve"/>
      <point x="38" y="383"/>
      <point x="180" y="536"/>
      <point x="283" y="536" type="qcurve"/>
      <point x="364" y="536"/>
      <point x="471" y="445"/>
      <point x="480" y="381" type="qcurve"/>
      <point x="457" y="389" type="line"/>
    </contour>
    <contour>
      <point x="143" y="264" type="qcurve"/>
      <point x="143" y="186"/>
      <point x="232" y="85"/>
      <point x="301" y="85" type="qcurve"/>
      <point x="371" y="85"/>
      <point x="461" y="186"/>
      <point x="461" y="264" type="qcurve"/>
      <point x="461" y="341"/>
      <point x="371" y="441"/>
      <point x="301" y="441" type="qcurve"/>
      <point x="232" y="441"/>
      <point x="143" y="341"/>
    </contour>
    <contour>
      <point x="416" y="669" type="qcurve"/>
      <point x="416" y="627"/>
      <point x="350" y="564"/>
      <point x="306" y="564" type="qcurve"/>
      <point x="263" y="564"/>
      <point x="197" y="627"/>
      <point x="197" y="669" type="qcurve"/>
      <point x="197" y="712"/>
      <point x="262" y="775"/>
      <point x="306" y="775" type="qcurve"/>
      <point x="350" y="775"/>
      <point x="416" y="712"/>
    </contour>
    <contour>
      <point x="257" y="669" type="qcurve"/>
      <point x="257" y="650"/>
      <point x="286" y="623"/>
      <point x="306" y="623" type="qcurve"/>
      <point x="327" y="623"/>
      <point x="356" y="650"/>
      <point x="356" y="669" type="qcurve"/>
      <point x="356" y="690"/>
      <point x="327" y="716"/>
      <point x="306" y="716" type="qcurve"/>
      <point x="285" y="716"/>
      <point x="257" y="689"/>
    </contour>
    <contour>
      <point x="452" y="885" type="line"/>
      <point x="278" y="791" type="line"/>
      <point x="244" y="842" type="line"/>
      <point x="387" y="967" type="line"/>
    </contour>
  </outline>
</glyph>
<glyph name="AEacute" format="2">
  <advance width="969"/>
  <unicode hex="01FC"/>
  <outline>
    <contour>
      <point x="174" y="153" type="line"/>
      <point x="228" y="245" type="line"/>
      <point x="483" y="245" type="line"/>
      <point x="465" y="213" type="line"/>
      <point x="465" y="552" type="line"/>
      <point x="484" y="541" type="line"/>
      <point x="114" y="0" type="line"/>
      <point x="5" y="0" type="line"/>
      <point x="493" y="700" type="line"/>
      <point x="894" y="700" type="line"/>
      <point x="894" y="607" type="line"/>
      <point x="557" y="607" type="line"/>
      <point x="566" y="616" type="line"/>
      <point x="566" y="385" type="line"/>
      <point x="558" y="402" type="line"/>
      <point x="849" y="402" type="line"/>
      <point x="849" y="308" type="line"/>
      <point x="556" y="308" type="line"/>
      <point x="566" y="322" type="line"/>
      <point x="566" y="72" type="line"/>
      <point x="557" y="93" type="line"/>
      <point x="894" y="93" type="line"/>
      <point x="894" y="0" type="line"/>
      <point x="465" y="0" type="line"/>
      <point x="465" y="166" type="line"/>
      <point x="488" y="153" type="line"/>
    </contour>
    <contour>
      <point x="794" y="844" type="line"/>
      <point x="620" y="750" type="line"/>
      <point x="586" y="801" type="line"/>
      <point x="729" y="926" type="line"/>
    </contour>
  </outline>
</glyph>
<glyph name="Oslashacute" format="2">
  <advance width="770"/>
  <unicode hex="01FE"/>
  <outline>
    <contour>
      <point x="123" y="-33" type="line"/>
      <point x="60" y="20" type="line"/>
      <point x="649" y="741" type="line"/>
      <point x="717" y="694" type="line"/>
    </contour>
    <contour>
      <point x="392" y="710" type="qcurve"/>
      <point x="540" y="710"/>
      <point x="735" y="504"/>
      <point x="735" y="350" type="qcurve"/>
      <point x="735" y="196"/>
      <point x="540" y="-10"/>
      <point x="392" y="-10" type="qcurve"/>
      <point x="244" y="-10"/>
      <point x="49" y="195"/>
      <point x="49" y="350" type="qcurve"/>
      <point x="49" y="505"/>
      <point x="244" y="710"/>
    </contour>
    <contour>
      <point x="392" y="95" type="qcurve"/>
      <point x="493" y="95"/>
      <point x="625" y="240"/>
      <point x="625" y="350" type="qcurve"/>
      <point x="625" y="460"/>
      <point x="493" y="605"/>
      <point x="392" y="605" type="qcurve"/>
      <point x="290" y="605"/>
      <point x="159" y="461"/>
      <point x="159" y="350" type="qcurve"/>
      <point x="159" y="239"/>
      <point x="290" y="95"/>
    </contour>
    <contour>
      <point x="516" y="844" type="line"/>
      <point x="342" y="750" type="line"/>
      <point x="308" y="801" type="line"/>
      <point x="451" y="926" type="line"/>
    </contour>
  </outline>
</glyph>
<glyph name="uni0201" format="2">
  <advance width="633"/>
  <unicode hex="0201"/>
  <outline>
    <contour>
      <point x="457" y="525" type="line"/>
      <point x="561" y="525" type="line"/>
      <point x="561" y="0" type="line"/>
      <point x="457" y="0" type="line"/>
      <point x="457" y="125" type="line"/>
      <point x="481" y="132" type="line"/>
      <point x="469" y="78"/>
      <point x="350" y="-10"/>
      <point x="274" y="-10" type="qcurve"/>
      <point x="176" y="-10"/>
      <point x="38" y="147"/>
      <point x="38" y="264" type="qcurve"/>
      <point x="38" y="383"/>
      <point x="180" y="536"/>
      <point x="283" y="536" type="qcurve"/>
      <point x="364" y="536"/>
      <point x="471" y="445"/>
      <point x="480" y="381" type="qcurve"/>
      <point x="457" y="389" type="line"/>
    </contour>
    <contour>
      <point x="143" y="264" type="qcurve"/>
      <point x="143" y="186"/>
      <point x="232" y="85"/>
      <point x="301" y="85" type="qcurve"/>
      <point x="371" y="85"/>
      <point x="461" y="186"/>
      <point x="461" y="264" type="qcurve"/>
      <point x="461" y="341"/>
      <point x="371" y="441"/>
      <point x="301" y="441" type="qcurve"/>
      <point x="232" y="441"/>
      <point x="143" y="341"/>
    </contour>
    <contour>
      <point x="279" y="709" type="line"/>
      <point x="245" y="658" type="line"/>
      <point x="71" y="752" type="line"/>
      <point x="136" y="834" type="line"/>
    </contour>
    <contour>
      <point x="461" y="717" type="line"/>
      <point x="427" y="666" type="line"/>
      <point x="253" y="760" type="line"/>
      <point x="318" y="842" type="line"/>
    </contour>
  </outline>
</glyph>
<glyph name="uni0209" format="2">
  <advance width="243"/>
  <unicode hex="0209"/>
  <outline>
    <contour>
      <point x="175" y="525" type="line"/>
      <point x="175" y="0" type="line"/>
      <point x="72" y="0" type="line"/>
      <point x="72" y="525" type="line"/>
    </contour>
    <contour>
      <point x="96" y="704" type="line"/>
      <point x="62" y="653" type="line"/>
      <point x="-112" y="747" type="line"/>
      <point x="-47" y="829" type="line"/>
    </contour>
    <contour>
      <point x="278" y="712" type="line"/>
      <point x="244" y="661" type="line"/>
      <point x="70" y="755" type="line"/>
      <point x="135" y="837" type="line"/>
    </contour>
  </outline>
</glyph>
<glyph name="uni020A" format="2">
  <advance width="478"/>
  <unicode hex="020A"/>
  <outline>
    <contour>
      <point x="293" y="700" type="qcurve"/>
      <point x="293" y="0" type="line"/>
      <point x="185" y="0" type="line"/>
      <point x="185" y="700" type="line"/>
      <point x="212" y="700"/>
      <point x="266" y="700"/>
    </contour>
    <contour>
      <point x="406" y="700" type="line"/>
      <point x="406" y="600" type="line"/>
      <point x="72" y="600" type="line"/>
      <point x="72" y="700" type="line"/>
    </contour>
    <contour>
      <point x="406" y="100" type="line"/>
      <point x="406" y="0" type="line"/>
      <point x="72" y="0" type="line"/>
      <point x="72" y="100" type="line"/>
    </contour>
    <contour>
      <point x="234" y="945" type="qcurve"/>
      <point x="295" y="945"/>
      <point x="382" y="862"/>
      <point x="396" y="791" type="qcurve"/>
      <point x="322" y="779" type="line"/>
      <point x="309" y="818"/>
      <point x="261" y="864"/>
      <point x="234" y="864" type="qcurve"/>
      <point x="207" y="864"/>
      <point x="159" y="818"/>
      <point x="146" y="779" type="qcurve"/>
      <point x="72" y="791" type="line"/>
      <point x="86" y="862"/>
      <point x="173" y="945"/>
    </contour>
  </outline>
</glyph>
<glyph name="uni020E" format="2">
  <advance width="782"/>
  <unicode hex="020E"/>
  <outline>
    <contour>
      <point x="391" y="710" type="qcurve"/>
      <point x="539" y="710"/>
      <point x="734" y="504"/>
      <point x="734" y="350" type="qcurve"/>
      <point x="734" y="196"/>
      <point x="539" y="-10"/>
      <point x="391" y="-10" type="qcurve"/>
      <point x="243" y="-10"/>
      <point x="48" y="195"/>
      <point x="48" y="350" type="qcurve"/>
      <point x="48" y="505"/>
      <point x="243" y="710"/>
    </contour>
    <contour>
      <point x="391" y="95" type="qcurve"/>
      <point x="492" y="95"/>
      <point x="624" y="240"/>
      <point x="624" y="350" type="qcurve"/>
      <point x="624" y="460"/>
      <point x="492" y="605"/>
      <point x="391" y="605" type="qcurve"/>
      <point x="289" y="605"/>
      <point x="158" y="461"/>
      <point x="158" y="350" type="qcurve"/>
      <point x="158" y="239"/>
      <point x="289" y="95"/>
    </contour>
    <contour>
      <point x="382" y="945" type="qcurve"/>
      <point x="443" y="945"/>
      <point x="530" y="862"/>
      <point x="544" y="791" type="qcurve"/>
      <point x="470" y="779" type="line"/>
      <point x="457" y="818"/>
      <point x="409" y="864"/>
      <point x="382" y="864" type="qcurve"/>
      <point x="355" y="864"/>
      <point x="307" y="818"/>
      <point x="294" y="779" type="qcurve"/>
      <point x="220" y="791" type="line"/>
      <point x="234" y="862"/>
      <point x="321" y="945"/>
    </contour>
  </outline>
</glyph>
<glyph name="uni0211" format="2">
  <advance width="403"/>
  <unicode hex="0211"/>
  <outline>
    <contour>
      <point x="393" y="526" type="qcurve"/>
      <point x="366" y="414" type="line"/>
      <point x="354" y="419"/>
      <point x="325" y="426"/>
      <point x="311" y="426" type="qcurve"/>
      <point x="257" y="426"/>
      <point x="176" y="347"/>
      <point x="176" y="290" type="qcurve"/>
      <point x="176" y="0" type="line"/>
      <point x="72" y="0" type="line"/>
      <point x="72" y="525" type="line"/>
      <point x="176" y="525" type="line"/>
      <point x="176" y="360" type="line"/>
      <point x="166" y="400" type="line"/>
      <point x="183" y="457"/>
      <point x="281" y="536"/>
      <point x="336" y="536" type="qcurve"/>
      <point x="353" y="536"/>
      <point x="384" y="530"/>
    </contour>
    <contour>
      <point x="189" y="689" type="line"/>
      <point x="155" y="638" type="line"/>
      <point x="-19" y="732" type="line"/>
      <point x="46" y="814" type="line"/>
    </contour>
    <contour>
      <point x="371" y="697" type="line"/>
      <point x="337" y="646" type="line"/>
      <point x="163" y="740" type="line"/>
      <point x="228" y="822" type="line"/>
    </contour>
  </outline>
</glyph>
<glyph name="uni0212" format="2">
  <advance width="695"/>
  <unicode hex="0212"/>
  <outline>
    <contour>
      <point x="617" y="477" type="qcurve"/>
      <point x="617" y="391"/>
      <point x="487" y="263"/>
      <point x="396" y="263" type="qcurve"/>
      <point x="193" y="263" type="line"/>
      <point x="193" y="367" type="line"/>
      <point x="406" y="367" type="line"/>
      <point x="450" y="367"/>
      <point x="507" y="431"/>
      <point x="507" y="478" type="qcurve"/>
      <point x="507" y="530"/>
      <point x="434" y="596"/>
      <point x="378" y="596" type="qcurve"/>
      <point x="196" y="596" type="line"/>
      <point x="206" y="630" type="line"/>
      <point x="206" y="0" type="line"/>
      <point x="98" y="0" type="line"/>
      <point x="98" y="700" type="line"/>
      <point x="396" y="700" type="line"/>
      <point x="486" y="700"/>
      <point x="617" y="572"/>
    </contour>
    <contour>
      <point x="336" y="316" type="line"/>
      <point x="447" y="341" type="line"/>
      <point x="645" y="-1" type="line"/>
      <point x="514" y="0" type="line"/>
    </contour>
    <contour>
      <point x="321" y="945" type="qcurve"/>
      <point x="382" y="945"/>
      <point x="469" y="862"/>
      <point x="483" y="791" type="qcurve"/>
      <point x="409" y="779" type="line"/>
      <point x="396" y="818"/>
      <point x="348" y="864"/>
      <point x="321" y="864" type="qcurve"/>
      <point x="294" y="864"/>
      <point x="246" y="818"/>
      <point x="233" y="779" type="qcurve"/>
      <point x="159" y="791" type="line"/>
      <point x="173" y="862"/>
      <point x="260" y="945"/>
    </contour>
  </outline>
</glyph>
<glyph name="uni0213" format="2">
  <advance width="403"/>
  <unicode hex="0213"/>
  <outline>
    <contour>
      <point x="393" y="526" type="qcurve"/>
      <point x="366" y="414" type="line"/>
      <point x="354" y="419"/>
      <point x="325" y="426"/>
      <point x="311" y="426" type="qcurve"/>
      <point x="257" y="426"/>
      <point x="176" y="347"/>
      <point x="176" y="290" type="qcurve"/>
      <point x="176" y="0" type="line"/>
      <point x="72" y="0" type="line"/>
      <point x="72" y="525" type="line"/>
      <point x="176" y="525" type="line"/>
      <point x="176" y="360" type="line"/>
      <point x="166" y="400" type="line"/>
      <point x="183" y="457"/>
      <point x="281" y="536"/>
      <point x="336" y="536" type="qcurve"/>
      <point x="353" y="536"/>
      <point x="384" y="530"/>
    </contour>
    <contour>
      <point x="211" y="770" type="qcurve"/>
      <point x="272" y="770"/>
      <point x="359" y="687"/>
      <point x="373" y="616" type="qcurve"/>
      <point x="299" y="604" type="line"/>
      <point x="286" y="643"/>
      <point x="238" y="689"/>
      <point x="211" y="689" type="qcurve"/>
      <point x="184" y="689"/>
      <point x="136" y="643"/>
      <point x="123" y="604" type="qcurve"/>
      <point x="49" y="616" type="line"/>
      <point x="63" y="687"/>
      <point x="150" y="770"/>
    </contour>
  </outline>
</glyph>
<glyph name="uni0214" format="2">
  <advance width="740"/>
  <unicode hex="0214"/>
  <outline>
    <contour>
      <point x="549" y="701" type="line"/>
      <point x="652" y="701" type="line"/>
      <point x="652" y="269" type="line"/>
      <point x="652" y="150"/>
      <point x="492" y="-6"/>
      <point x="370" y="-6" type="qcurve"/>
      <point x="248" y="-6"/>
      <point x="88" y="150"/>
      <point x="88" y="269" type="qcurve"/>
      <point x="88" y="701" type="line"/>
      <point x="196" y="701" type="line"/>
      <point x="196" y="278" type="line"/>
      <point x="196" y="202"/>
      <point x="299" y="98"/>
      <point x="370" y="98" type="qcurve"/>
      <point x="445" y="98"/>
      <point x="549" y="202"/>
      <point x="549" y="278" type="qcurve"/>
    </contour>
    <contour>
      <point x="336" y="804" type="line"/>
      <point x="302" y="763" type="line"/>
      <point x="142" y="847" type="line"/>
      <point x="197" y="919" type="line"/>
    </contour>
    <contour>
      <point x="526" y="804" type="line"/>
      <point x="492" y="763" type="line"/>
      <point x="332" y="847" type="line"/>
      <point x="387" y="919" type="line"/>
    </contour>
  </outline>
</glyph>
<glyph name="uni0215" format="2">
  <advance width="605"/>
  <unicode hex="0215"/>
  <outline>
    <contour>
      <point x="298" y="80" type="qcurve"/>
      <point x="355" y="80"/>
      <point x="430" y="152"/>
      <point x="430" y="209" type="qcurve"/>
      <point x="430" y="525" type="line"/>
      <point x="533" y="525" type="line"/>
      <point x="533" y="0" type="line"/>
      <point x="430" y="0" type="line"/>
      <point x="430" y="110" type="line"/>
      <point x="448" y="122" type="line"/>
      <point x="430" y="66"/>
      <point x="323" y="-10"/>
      <point x="256" y="-10" type="qcurve"/>
      <point x="172" y="-10"/>
      <point x="72" y="104"/>
      <point x="72" y="201" type="qcurve"/>
      <point x="72" y="525" type="line"/>
      <point x="175" y="525" type="line"/>
      <point x="175" y="229" type="line"/>
      <point x="175" y="160"/>
      <point x="240" y="80"/>
    </contour>
    <contour>
      <point x="271" y="689" type="line"/>
      <point x="237" y="638" type="line"/>
      <point x="63" y="732" type="line"/>
      <point x="128" y="814" type="line"/>
    </contour>
    <contour>
      <point x="453" y="697" type="line"/>
      <point x="419" y="646" type="line"/>
      <point x="245" y="740" type="line"/>
      <point x="310" y="822" type="line"/>
    </contour>
  </outline>
</glyph>
<glyph name="uni0217" format="2">
  <advance width="605"/>
  <unicode hex="0217"/>
  <outline>
    <contour>
      <point x="298" y="80" type="qcurve"/>
      <point x="355" y="80"/>
      <point x="430" y="152"/>
      <point x="430" y="209" type="qcurve"/>
      <point x="430" y="525" type="line"/>
      <point x="533" y="525" type="line"/>
      <point x="533" y="0" type="line"/>
      <point x="430" y="0" type="line"/>
      <point x="430" y="110" type="line"/>
      <point x="448" y="122" type="line"/>
      <point x="430" y="66"/>
      <point x="323" y="-10"/>
      <point x="256" y="-10" type="qcurve"/>
      <point x="172" y="-10"/>
      <point x="72" y="104"/>
      <point x="72" y="201" type="qcurve"/>
      <point x="72" y="525" type="line"/>
      <point x="175" y="525" type="line"/>
      <point x="175" y="229" type="line"/>
      <point x="175" y="160"/>
      <point x="240" y="80"/>
    </contour>
    <contour>
      <point x="293" y="770" type="qcurve"/>
      <point x="354" y="770"/>
      <point x="441" y="687"/>
      <point x="455" y="616" type="qcurve"/>
      <point x="381" y="604" type="line"/>
      <point x="368" y="643"/>
      <point x="320" y="689"/>
      <point x="293" y="689" type="qcurve"/>
      <point x="266" y="689"/>
      <point x="218" y="643"/>
      <point x="205" y="604" type="qcurve"/>
      <point x="131" y="616" type="line"/>
      <point x="145" y="687"/>
      <point x="232" y="770"/>
    </contour>
  </outline>
</glyph>
<glyph name="uni0219" format="2">
  <advance width="479"/>
  <unicode hex="0219"/>
  <outline>
    <contour>
      <point x="40" y="81" type="qcurve"/>
      <point x="110" y="141" type="line"/>
      <point x="140" y="106"/>
      <point x="211" y="75"/>
      <point x="256" y="75" type="qcurve"/>
      <point x="293" y="75"/>
      <point x="340" y="111"/>
      <point x="340" y="142" type="qcurve"/>
      <point x="340" y="168"/>
      <point x="302" y="199"/>
      <point x="234" y="217" type="qcurve"/>
      <point x="132" y="244"/>
      <point x="53" y="323"/>
      <point x="53" y="385" type="qcurve"/>
      <point x="53" y="451"/>
      <point x="162" y="536"/>
      <point x="241" y="536" type="qcurve"/>
      <point x="297" y="536"/>
      <point x="402" y="491"/>
      <point x="434" y="452" type="qcurve"/>
      <point x="375" y="387" type="line"/>
      <point x="346" y="416"/>
      <point x="275" y="451"/>
      <point x="246" y="451" type="qcurve"/>
      <point x="203" y="451"/>
      <point x="156" y="419"/>
      <point x="156" y="388" type="qcurve"/>
      <point x="157" y="361"/>
      <point x="199" y="327"/>
      <point x="267" y="310" type="qcurve"/>
      <point x="366" y="284"/>
      <point x="437" y="208"/>
      <point x="437" y="146" type="qcurve"/>
      <point x="437" y="78"/>
      <point x="326" y="-10"/>
      <point x="247" y="-10" type="qcurve"/>
      <point x="181" y="-10"/>
      <point x="75" y="36"/>
    </contour>
    <contour>
      <point x="193" y="-243" type="qcurve"/>
      <point x="169" y="-201" type="line"/>
      <point x="190" y="-196"/>
      <point x="223" y="-164"/>
      <point x="223" y="-149" type="qcurve"/>
      <point x="223" y="-143"/>
      <point x="216" y="-135"/>
      <point x="204" y="-132" type="qcurve"/>
      <point x="186" y="-127"/>
      <point x="174" y="-109"/>
      <point x="174" y="-94" type="qcurve"/>
      <point x="174" y="-72"/>
      <point x="210" y="-45"/>
      <point x="239" y="-45" type="qcurve"/>
      <point x="272" y="-45"/>
      <point x="317" y="-87"/>
      <point x="317" y="-122" type="qcurve"/>
      <point x="317" y="-160"/>
      <point x="249" y="-224"/>
    </contour>
  </outline>
</glyph>
<glyph name="uni022A" format="2">
  <advance width="782"/>
  <unicode hex="022A"/>
  <outline>
    <contour>
      <point x="391" y="710" type="qcurve"/>
      <point x="539" y="710"/>
      <point x="734" y="504"/>
      <point x="734" y="350" type="qcurve"/>
      <point x="734" y="196"/>
      <point x="539" y="-10"/>
      <point x="391" y="-10" type="qcurve"/>
      <point x="243" y="-10"/>
      <point x="48" y="195"/>
      <point x="48" y="350" type="qcurve"/>
      <point x="48" y="505"/>
      <point x="243" y="710"/>
    </contour>
    <contour>
      <point x="391" y="95" type="qcurve"/>
      <point x="492" y="95"/>
      <point x="624" y="240"/>
      <point x="624" y="350" type="qcurve"/>
      <point x="624" y="460"/>
      <point x="492" y="605"/>
      <point x="391" y="605" type="qcurve"/>
      <point x="289" y="605"/>
      <point x="158" y="461"/>
      <point x="158" y="350" type="qcurve"/>
      <point x="158" y="239"/>
      <point x="289" y="95"/>
    </contour>
    <contour>
      <point x="358" y="821" type="qcurve"/>
      <point x="358" y="792"/>
      <point x="321" y="756"/>
      <point x="289" y="756" type="qcurve"/>
      <point x="256" y="756"/>
      <point x="220" y="790"/>
      <point x="220" y="821" type="qcurve"/>
      <point x="220" y="850"/>
      <point x="257" y="886"/>
      <point x="289" y="886" type="qcurve"/>
      <point x="322" y="886"/>
      <point x="358" y="852"/>
    </contour>
    <contour>
      <point x="558" y="821" type="qcurve"/>
      <point x="558" y="792"/>
      <point x="521" y="756"/>
      <point x="489" y="756" type="qcurve"/>
      <point x="456" y="756"/>
      <point x="420" y="790"/>
      <point x="420" y="821" type="qcurve"/>
      <point x="420" y="850"/>
      <point x="457" y="886"/>
      <point x="489" y="886" type="qcurve"/>
      <point x="522" y="886"/>
      <point x="558" y="852"/>
    </contour>
    <contour>
      <point x="530" y="963" type="line"/>
      <point x="246" y="963" type="line"/>
      <point x="246" y="1038" type="line"/>
      <point x="530" y="1038" type="line"/>
    </contour>
  </outline>
</glyph>
<glyph name="uni022B" format="2">
  <advance width="615"/>
  <unicode hex="022B"/>
  <outline>
    <contour>
      <point x="308" y="536" type="qcurve"/>
      <point x="422" y="536"/>
      <point x="575" y="381"/>
      <point x="575" y="263" type="qcurve"/>
      <point x="575" y="145"/>
      <point x="422" y="-10"/>
      <point x="308" y="-10" type="qcurve"/>
      <point x="193" y="-10"/>
      <point x="40" y="145"/>
      <point x="40" y="263" type="qcurve"/>
      <point x="40" y="381"/>
      <point x="193" y="536"/>
    </contour>
    <contour>
      <point x="308" y="84" type="qcurve"/>
      <point x="379" y="84"/>
      <point x="471" y="186"/>
      <point x="470" y="263" type="qcurve"/>
      <point x="471" y="341"/>
      <point x="379" y="442"/>
      <point x="308" y="442" type="qcurve"/>
      <point x="237" y="442"/>
      <point x="144" y="340"/>
      <point x="145" y="263" type="qcurve"/>
      <point x="144" y="186"/>
      <point x="237" y="84"/>
    </contour>
    <contour>
      <point x="279" y="651" type="qcurve"/>
      <point x="279" y="622"/>
      <point x="242" y="586"/>
      <point x="210" y="586" type="qcurve"/>
      <point x="177" y="586"/>
      <point x="141" y="620"/>
      <point x="141" y="651" type="qcurve"/>
      <point x="141" y="680"/>
      <point x="178" y="716"/>
      <point x="210" y="716" type="qcurve"/>
      <point x="243" y="716"/>
      <point x="279" y="682"/>
    </contour>
    <contour>
      <point x="479" y="651" type="qcurve"/>
      <point x="479" y="622"/>
      <point x="442" y="586"/>
      <point x="410" y="586" type="qcurve"/>
      <point x="377" y="586"/>
      <point x="341" y="620"/>
      <point x="341" y="651" type="qcurve"/>
      <point x="341" y="680"/>
      <point x="378" y="716"/>
      <point x="410" y="716" type="qcurve"/>
      <point x="443" y="716"/>
      <point x="479" y="682"/>
    </contour>
    <contour>
      <point x="451" y="793" type="line"/>
      <point x="167" y="793" type="line"/>
      <point x="167" y="868" type="line"/>
      <point x="451" y="868" type="line"/>
    </contour>
  </outline>
</glyph>
<glyph name="uni022C" format="2">
  <advance width="782"/>
  <unicode hex="022C"/>
  <outline>
    <contour>
      <point x="391" y="710" type="qcurve"/>
      <point x="539" y="710"/>
      <point x="734" y="504"/>
      <point x="734" y="350" type="qcurve"/>
      <point x="734" y="196"/>
      <point x="539" y="-10"/>
      <point x="391" y="-10" type="qcurve"/>
      <point x="243" y="-10"/>
      <point x="48" y="195"/>
      <point x="48" y="350" type="qcurve"/>
      <point x="48" y="505"/>
      <point x="243" y="710"/>
    </contour>
    <contour>
      <point x="391" y="95" type="qcurve"/>
      <point x="492" y="95"/>
      <point x="624" y="240"/>
      <point x="624" y="350" type="qcurve"/>
      <point x="624" y="460"/>
      <point x="492" y="605"/>
      <point x="391" y="605" type="qcurve"/>
      <point x="289" y="605"/>
      <point x="158" y="461"/>
      <point x="158" y="350" type="qcurve"/>
      <point x="158" y="239"/>
      <point x="289" y="95"/>
    </contour>
    <contour>
      <point x="303" y="817" type="qcurve"/>
      <point x="230" y="827" type="line"/>
      <point x="232" y="879"/>
      <point x="294" y="948"/>
      <point x="340" y="948" type="qcurve"/>
      <point x="359" y="948"/>
      <point x="392" y="932"/>
      <point x="414" y="909" type="qcurve"/>
      <point x="429" y="894"/>
      <point x="443" y="886"/>
      <point x="450" y="886" type="qcurve"/>
      <point x="463" y="886"/>
      <point x="479" y="915"/>
      <point x="478" y="936" type="qcurve"/>
      <point x="551" y="920" type="line"/>
      <point x="548" y="876"/>
      <point x="492" y="814"/>
      <point x="450" y="814" type="qcurve"/>
      <point x="427" y="814"/>
      <point x="389" y="832"/>
      <point x="365" y="856" type="qcurve"/>
      <point x="353" y="868"/>
      <point x="343" y="875"/>
      <point x="338" y="875" type="qcurve"/>
      <point x="321" y="875"/>
      <point x="303" y="846"/>
    </contour>
    <contour>
      <point x="541" y="1019" type="line"/>
      <point x="257" y="1019" type="line"/>
      <point x="257" y="1094" type="line"/>
      <point x="541" y="1094" type="line"/>
    </contour>
  </outline>
</glyph>
<glyph name="uni022D" format="2">
  <advance width="615"/>
  <unicode hex="022D"/>
  <outline>
    <contour>
      <point x="308" y="536" type="qcurve"/>
      <point x="422" y="536"/>
      <point x="575" y="381"/>
      <point x="575" y="263" type="qcurve"/>
      <point x="575" y="145"/>
      <point x="422" y="-10"/>
      <point x="308" y="-10" type="qcurve"/>
      <point x="193" y="-10"/>
      <point x="40" y="145"/>
      <point x="40" y="263" type="qcurve"/>
      <point x="40" y="381"/>
      <point x="193" y="536"/>
    </contour>
    <contour>
      <point x="308" y="84" type="qcurve"/>
      <point x="379" y="84"/>
      <point x="471" y="186"/>
      <point x="470" y="263" type="qcurve"/>
      <point x="471" y="341"/>
      <point x="379" y="442"/>
      <point x="308" y="442" type="qcurve"/>
      <point x="237" y="442"/>
      <point x="144" y="340"/>
      <point x="145" y="263" type="qcurve"/>
      <point x="144" y="186"/>
      <point x="237" y="84"/>
    </contour>
    <contour>
      <point x="216" y="617" type="qcurve"/>
      <point x="143" y="627" type="line"/>
      <point x="145" y="679"/>
      <point x="207" y="748"/>
      <point x="253" y="748" type="qcurve"/>
      <point x="272" y="748"/>
      <point x="305" y="732"/>
      <point x="327" y="709" type="qcurve"/>
      <point x="342" y="694"/>
      <point x="356" y="686"/>
      <point x="363" y="686" type="qcurve"/>
      <point x="376" y="686"/>
      <point x="392" y="715"/>
      <point x="391" y="736" type="qcurve"/>
      <point x="464" y="720" type="line"/>
      <point x="461" y="676"/>
      <point x="405" y="614"/>
      <point x="363" y="614" type="qcurve"/>
      <point x="340" y="614"/>
      <point x="302" y="632"/>
      <point x="278" y="656" type="qcurve"/>
      <point x="266" y="668"/>
      <point x="256" y="675"/>
      <point x="251" y="675" type="qcurve"/>
      <point x="234" y="675"/>
      <point x="216" y="646"/>
    </contour>
    <contour>
      <point x="454" y="819" type="line"/>
      <point x="170" y="819" type="line"/>
      <point x="170" y="894" type="line"/>
      <point x="454" y="894" type="line"/>
    </contour>
  </outline>
</glyph>
<glyph name="uni0231" format="2">
  <advance width="615"/>
  <unicode hex="0231"/>
  <outline>
    <contour>
      <point x="308" y="536" type="qcurve"/>
      <point x="422" y="536"/>
      <point x="575" y="381"/>
      <point x="575" y="263" type="qcurve"/>
      <point x="575" y="145"/>
      <point x="422" y="-10"/>
      <point x="308" y="-10" type="qcurve"/>
      <point x="193" y="-10"/>
      <point x="40" y="145"/>
      <point x="40" y="263" type="qcurve"/>
      <point x="40" y="381"/>
      <point x="193" y="536"/>
    </contour>
    <contour>
      <point x="308" y="84" type="qcurve"/>
      <point x="379" y="84"/>
      <point x="471" y="186"/>
      <point x="470" y="263" type="qcurve"/>
      <point x="471" y="341"/>
      <point x="379" y="442"/>
      <point x="308" y="442" type="qcurve"/>
      <point x="237" y="442"/>
      <point x="144" y="340"/>
      <point x="145" y="263" type="qcurve"/>
      <point x="144" y="186"/>
      <point x="237" y="84"/>
    </contour>
    <contour>
      <point x="375" y="692" type="qcurve"/>
      <point x="375" y="663"/>
      <point x="338" y="627"/>
      <point x="306" y="627" type="qcurve"/>
      <point x="273" y="627"/>
      <point x="237" y="661"/>
      <point x="237" y="692" type="qcurve"/>
      <point x="237" y="721"/>
      <point x="274" y="757"/>
      <point x="306" y="757" type="qcurve"/>
      <point x="339" y="757"/>
      <point x="375" y="723"/>
    </contour>
    <contour>
      <point x="447" y="825" type="line"/>
      <point x="163" y="825" type="line"/>
      <point x="163" y="900" type="line"/>
      <point x="447" y="900" type="line"/>
    </contour>
  </outline>
</glyph>
<glyph name="uni0232" format="2">
  <advance width="660"/>
  <unicode hex="0232"/>
  <outline>
    <contour>
      <point x="526" y="700" type="line"/>
      <point x="650" y="700" type="line"/>
      <point x="379" y="289" type="line"/>
      <point x="394" y="357" type="line"/>
      <point x="394" y="0" type="line"/>
      <point x="286" y="0" type="line"/>
      <point x="286" y="349" type="line"/>
      <point x="293" y="300" type="line"/>
      <point x="10" y="700" type="line"/>
      <point x="140" y="700" type="line"/>
      <point x="356" y="390" type="line"/>
      <point x="331" y="393" type="line"/>
    </contour>
    <contour>
      <point x="498" y="776" type="line"/>
      <point x="167" y="776" type="line"/>
      <point x="167" y="851" type="line"/>
      <point x="498" y="851" type="line"/>
    </contour>
  </outline>
</glyph>
<glyph name="uni0259" format="2">
  <advance width="586"/>
  <unicode hex="0259"/>
  <outline>
    <contour>
      <point x="114" y="381" type="qcurve"/>
      <point x="62" y="454" type="line"/>
      <point x="99" y="490"/>
      <point x="213" y="535"/>
      <point x="269" y="535" type="qcurve"/>
      <point x="391" y="535"/>
      <point x="546" y="385"/>
      <point x="546" y="268" type="qcurve"/>
      <point x="546" y="144"/>
      <point x="395" y="-11"/>
      <point x="278" y="-12" type="qcurve"/>
      <point x="176" y="-11"/>
      <point x="40" y="133"/>
      <point x="40" y="243" type="qcurve"/>
      <point x="41" y="287" type="line"/>
      <point x="470" y="287" type="line"/>
      <point x="493" y="205" type="line"/>
      <point x="130" y="205" type="line"/>
      <point x="145" y="222" type="line"/>
      <point x="145" y="198" type="line"/>
      <point x="150" y="149"/>
      <point x="227" y="83"/>
      <point x="278" y="83" type="qcurve"/>
      <point x="359" y="83"/>
      <point x="444" y="174"/>
      <point x="444" y="261" type="qcurve"/>
      <point x="444" y="343"/>
      <point x="342" y="441"/>
      <point x="259" y="441" type="qcurve"/>
      <point x="220" y="441"/>
      <point x="153" y="415"/>
    </contour>
  </outline>
</glyph>
<glyph name="uni0272" format="2">
  <advance width="610"/>
  <unicode hex="0272"/>
  <outline>
    <contour>
      <point x="362" y="536" type="qcurve"/>
      <point x="452" y="536"/>
      <point x="542" y="429"/>
      <point x="542" y="320" type="qcurve"/>
      <point x="542" y="0" type="line"/>
      <point x="439" y="0" type="line"/>
      <point x="439" y="313" type="line"/>
      <point x="439" y="381"/>
      <point x="384" y="445"/>
      <point x="328" y="442" type="qcurve"/>
      <point x="269" y="442"/>
      <point x="190" y="370"/>
      <point x="190" y="318" type="qcurve"/>
      <point x="190" y="0" type="line"/>
      <point x="164" y="0"/>
      <point x="113" y="0"/>
      <point x="87" y="0" type="qcurve"/>
      <point x="87" y="525" type="line"/>
      <point x="190" y="525" type="line"/>
      <point x="190" y="417" type="line"/>
      <point x="172" y="405" type="line"/>
      <point x="187" y="457"/>
      <point x="299" y="536"/>
    </contour>
    <contour>
      <point x="87" y="15" type="line"/>
      <point x="190" y="25" type="line"/>
      <point x="190" y="-24" type="line"/>
      <point x="190" y="-101"/>
      <point x="90" y="-197"/>
      <point x="10" y="-197" type="qcurve"/>
      <point x="-29" y="-118" type="line"/>
      <point x="29" y="-118"/>
      <point x="87" y="-58"/>
      <point x="87" y="1" type="qcurve"/>
    </contour>
  </outline>
</glyph>
<glyph name="uni02BC" format="2">
  <advance width="205"/>
  <unicode hex="02BC"/>
  <outline>
    <contour>
      <point x="37" y="442" type="line"/>
      <point x="60" y="700" type="line"/>
      <point x="178" y="700" type="line"/>
      <point x="97" y="442" type="line"/>
    </contour>
  </outline>
</glyph>
<glyph name="uni02BE" format="2">
  <advance width="221"/>
  <unicode hex="02BE"/>
  <outline>
    <contour>
      <point x="62" y="530" type="qcurve"/>
      <point x="62" y="591" type="line"/>
      <point x="82" y="591"/>
      <point x="109" y="616"/>
      <point x="109" y="635" type="qcurve"/>
      <point x="109" y="655"/>
      <point x="83" y="679"/>
      <point x="62" y="679" type="qcurve"/>
      <point x="63" y="741" type="line"/>
      <point x="107" y="740"/>
      <point x="171" y="678"/>
      <point x="171" y="635" type="qcurve"/>
      <point x="171" y="593"/>
      <point x="105" y="530"/>
    </contour>
  </outline>
</glyph>
<glyph name="uni02CB" format="2">
  <advance width="205"/>
  <unicode hex="02CB"/>
  <outline>
    <contour>
      <point x="168" y="442" type="line"/>
      <point x="145" y="700" type="line"/>
      <point x="27" y="700" type="line"/>
      <point x="108" y="442" type="line"/>
    </contour>
  </outline>
</glyph>
<glyph name="gravecomb" format="2">
  <unicode hex="0300"/>
  <outline>
    <contour>
      <point x="214" y="673" type="line"/>
      <point x="180" y="622" type="line"/>
      <point x="6" y="716" type="line"/>
      <point x="71" y="798" type="line"/>
    </contour>
  </outline>
</glyph>
<glyph name="uni0302" format="2">
  <unicode hex="0302"/>
  <outline>
    <contour>
      <point x="301" y="637" type="line"/>
      <point x="166" y="710" type="line"/>
      <point x="196" y="710" type="line"/>
      <point x="61" y="637" type="line"/>
      <point x="23" y="670" type="line"/>
      <point x="138" y="783" type="line"/>
      <point x="224" y="783" type="line"/>
      <point x="339" y="670" type="line"/>
    </contour>
  </outline>
</glyph>
<glyph name="tildecomb" format="2">
  <unicode hex="0303"/>
  <outline>
    <contour>
      <point x="113" y="617" type="qcurve"/>
      <point x="40" y="627" type="line"/>
      <point x="42" y="679"/>
      <point x="104" y="748"/>
      <point x="150" y="748" type="qcurve"/>
      <point x="169" y="748"/>
      <point x="202" y="732"/>
      <point x="224" y="709" type="qcurve"/>
      <point x="239" y="694"/>
      <point x="253" y="686"/>
      <point x="260" y="686" type="qcurve"/>
      <point x="273" y="686"/>
      <point x="289" y="715"/>
      <point x="288" y="736" type="qcurve"/>
      <point x="361" y="720" type="line"/>
      <point x="358" y="676"/>
      <point x="302" y="614"/>
      <point x="260" y="614" type="qcurve"/>
      <point x="237" y="614"/>
      <point x="199" y="632"/>
      <point x="175" y="656" type="qcurve"/>
      <point x="163" y="668"/>
      <point x="153" y="675"/>
      <point x="148" y="675" type="qcurve"/>
      <point x="131" y="675"/>
      <point x="113" y="646"/>
    </contour>
  </outline>
</glyph>
<glyph name="uni0304" format="2">
  <unicode hex="0304"/>
  <outline>
    <contour>
      <point x="354" y="636" type="line"/>
      <point x="70" y="636" type="line"/>
      <point x="70" y="711" type="line"/>
      <point x="354" y="711" type="line"/>
    </contour>
  </outline>
</glyph>
<glyph name="uni030F" format="2">
  <unicode hex="030F"/>
  <outline>
    <contour>
      <point x="231" y="678" type="line"/>
      <point x="197" y="627" type="line"/>
      <point x="23" y="721" type="line"/>
      <point x="88" y="803" type="line"/>
    </contour>
    <contour>
      <point x="413" y="686" type="line"/>
      <point x="379" y="635" type="line"/>
      <point x="205" y="729" type="line"/>
      <point x="270" y="811" type="line"/>
    </contour>
  </outline>
</glyph>
<glyph name="uni031B" format="2">
  <unicode hex="031B"/>
  <outline>
    <contour>
      <point x="74" y="420" type="qcurve"/>
      <point x="74" y="502" type="line"/>
      <point x="118" y="502"/>
      <point x="162" y="559"/>
      <point x="162" y="616" type="qcurve"/>
      <point x="244" y="616" type="line"/>
      <point x="244" y="525"/>
      <point x="154" y="420"/>
    </contour>
  </outline>
</glyph>
<glyph name="uni0324" format="2">
  <unicode hex="0324"/>
  <outline>
    <contour>
      <point x="291" y="-150" type="qcurve"/>
      <point x="264" y="-150"/>
      <point x="239" y="-128"/>
      <point x="239" y="-104" type="qcurve"/>
      <point x="239" y="-89" type="line"/>
      <point x="239" y="-66"/>
      <point x="265" y="-43"/>
      <point x="292" y="-43" type="qcurve"/>
      <point x="320" y="-43"/>
      <point x="346" y="-65"/>
      <point x="346" y="-89" type="qcurve"/>
      <point x="346" y="-104" type="line"/>
      <point x="346" y="-129"/>
      <point x="321" y="-150"/>
    </contour>
    <contour>
      <point x="102" y="-150" type="qcurve"/>
      <point x="75" y="-150"/>
      <point x="50" y="-128"/>
      <point x="50" y="-104" type="qcurve"/>
      <point x="50" y="-89" type="line"/>
      <point x="50" y="-66"/>
      <point x="76" y="-43"/>
      <point x="102" y="-43" type="qcurve"/>
      <point x="131" y="-43"/>
      <point x="157" y="-64"/>
      <point x="157" y="-89" type="qcurve"/>
      <point x="157" y="-104" type="line"/>
      <point x="157" y="-129"/>
      <point x="132" y="-150"/>
    </contour>
  </outline>
</glyph>
<glyph name="uni032E" format="2">
  <unicode hex="032E"/>
  <outline>
    <contour>
      <point x="202" y="-178" type="qcurve"/>
      <point x="141" y="-178"/>
      <point x="54" y="-95"/>
      <point x="40" y="-24" type="qcurve"/>
      <point x="114" y="-12" type="line"/>
      <point x="127" y="-51"/>
      <point x="175" y="-97"/>
      <point x="202" y="-97" type="qcurve"/>
      <point x="229" y="-97"/>
      <point x="277" y="-51"/>
      <point x="290" y="-12" type="qcurve"/>
      <point x="364" y="-24" type="line"/>
      <point x="350" y="-95"/>
      <point x="263" y="-178"/>
    </contour>
  </outline>
</glyph>
<glyph name="uni1E09" format="2">
  <advance width="535"/>
  <unicode hex="1E09"/>
  <outline>
    <contour>
      <point x="305" y="443" type="qcurve"/>
      <point x="233" y="443"/>
      <point x="138" y="340"/>
      <point x="138" y="263" type="qcurve"/>
      <point x="138" y="187"/>
      <point x="237" y="83"/>
      <point x="306" y="83" type="qcurve"/>
      <point x="346" y="83"/>
      <point x="421" y="124"/>
      <point x="453" y="163" type="qcurve"/>
      <point x="510" y="93" type="line"/>
      <point x="478" y="48"/>
      <point x="359" y="-10"/>
      <point x="295" y="-10" type="qcurve"/>
      <point x="186" y="-10"/>
      <point x="40" y="147"/>
      <point x="40" y="263" type="qcurve"/>
      <point x="40" y="379"/>
      <point x="186" y="536"/>
      <point x="295" y="536" type="qcurve"/>
      <point x="365" y="536"/>
      <point x="480" y="479"/>
      <point x="510" y="430" type="qcurve"/>
      <point x="453" y="360" type="line"/>
      <point x="429" y="395"/>
      <point x="344" y="443"/>
    </contour>
    <contour>
      <point x="239" y="-97" type="line"/>
      <point x="181" y="-90" type="line"/>
      <point x="253" y="24" type="line"/>
      <point x="312" y="24" type="line"/>
    </contour>
    <contour>
      <point x="369" y="-139" type="qcurve"/>
      <point x="369" y="-162"/>
      <point x="329" y="-210"/>
      <point x="295" y="-225" type="qcurve"/>
      <point x="271" y="-235"/>
      <point x="212" y="-245"/>
      <point x="179" y="-244" type="qcurve"/>
      <point x="172" y="-191" type="line"/>
      <point x="208" y="-191"/>
      <point x="284" y="-157"/>
      <point x="284" y="-138" type="qcurve"/>
      <point x="284" y="-124"/>
      <point x="233" y="-101"/>
      <point x="194" y="-100" type="qcurve"/>
      <point x="181" y="-92" type="line"/>
      <point x="181" y="-90" type="line"/>
      <point x="240" y="-41" type="line"/>
      <point x="304" y="-49"/>
      <point x="369" y="-99"/>
    </contour>
    <contour>
      <point x="456" y="725" type="line"/>
      <point x="282" y="631" type="line"/>
      <point x="248" y="682" type="line"/>
      <point x="391" y="807" type="line"/>
    </contour>
  </outline>
</glyph>
<glyph name="uni1E0C" format="2">
  <advance width="748"/>
  <unicode hex="1E0C"/>
  <outline>
    <contour>
      <point x="98" y="700" type="line"/>
      <point x="372" y="700" type="line"/>
      <point x="522" y="700"/>
      <point x="700" y="506"/>
      <point x="700" y="350" type="qcurve"/>
      <point x="700" y="193"/>
      <point x="523" y="0"/>
      <point x="372" y="0" type="qcurve"/>
      <point x="98" y="0" type="line"/>
    </contour>
    <contour>
      <point x="203" y="104" type="line"/>
      <point x="367" y="104" type="line"/>
      <point x="473" y="104"/>
      <point x="590" y="235"/>
      <point x="590" y="350" type="qcurve"/>
      <point x="590" y="464"/>
      <point x="472" y="596"/>
      <point x="367" y="596" type="qcurve"/>
      <point x="200" y="596" type="line"/>
      <point x="206" y="605" type="line"/>
      <point x="206" y="93" type="line"/>
    </contour>
    <contour>
      <point x="405" y="-126" type="qcurve"/>
      <point x="405" y="-155"/>
      <point x="368" y="-191"/>
      <point x="336" y="-191" type="qcurve"/>
      <point x="303" y="-191"/>
      <point x="267" y="-157"/>
      <point x="267" y="-126" type="qcurve"/>
      <point x="267" y="-97"/>
      <point x="304" y="-61"/>
      <point x="336" y="-61" type="qcurve"/>
      <point x="369" y="-61"/>
      <point x="405" y="-95"/>
    </contour>
  </outline>
</glyph>
<glyph name="uni1E14" format="2">
  <advance width="614"/>
  <unicode hex="1E14"/>
  <outline>
    <contour>
      <point x="206" y="0" type="line"/>
      <point x="98" y="0" type="line"/>
      <point x="98" y="700" type="line"/>
      <point x="206" y="700" type="line"/>
    </contour>
    <contour>
      <point x="539" y="0" type="line"/>
      <point x="147" y="0" type="line"/>
      <point x="147" y="104" type="line"/>
      <point x="539" y="104" type="line"/>
    </contour>
    <contour>
      <point x="484" y="307" type="line"/>
      <point x="147" y="307" type="line"/>
      <point x="147" y="411" type="line"/>
      <point x="484" y="411" type="line"/>
    </contour>
    <contour>
      <point x="539" y="596" type="line"/>
      <point x="147" y="596" type="line"/>
      <point x="147" y="700" type="line"/>
      <point x="539" y="700" type="line"/>
    </contour>
    <contour>
      <point x="468" y="776" type="line"/>
      <point x="184" y="776" type="line"/>
      <point x="184" y="851" type="line"/>
      <point x="468" y="851" type="line"/>
    </contour>
    <contour>
      <point x="392" y="957" type="line"/>
      <point x="358" y="906" type="line"/>
      <point x="184" y="1000" type="line"/>
      <point x="249" y="1082" type="line"/>
    </contour>
  </outline>
</glyph>
<glyph name="uni1E1C" format="2">
  <advance width="614"/>
  <unicode hex="1E1C"/>
  <outline>
    <contour>
      <point x="206" y="0" type="line"/>
      <point x="98" y="0" type="line"/>
      <point x="98" y="700" type="line"/>
      <point x="206" y="700" type="line"/>
    </contour>
    <contour>
      <point x="539" y="0" type="line"/>
      <point x="147" y="0" type="line"/>
      <point x="147" y="104" type="line"/>
      <point x="539" y="104" type="line"/>
    </contour>
    <contour>
      <point x="484" y="307" type="line"/>
      <point x="147" y="307" type="line"/>
      <point x="147" y="411" type="line"/>
      <point x="484" y="411" type="line"/>
    </contour>
    <contour>
      <point x="539" y="596" type="line"/>
      <point x="147" y="596" type="line"/>
      <point x="147" y="700" type="line"/>
      <point x="539" y="700" type="line"/>
    </contour>
    <contour>
      <point x="292" y="-97" type="line"/>
      <point x="234" y="-90" type="line"/>
      <point x="306" y="24" type="line"/>
      <point x="365" y="24" type="line"/>
    </contour>
    <contour>
      <point x="422" y="-139" type="qcurve"/>
      <point x="422" y="-162"/>
      <point x="382" y="-210"/>
      <point x="348" y="-225" type="qcurve"/>
      <point x="324" y="-235"/>
      <point x="265" y="-245"/>
      <point x="232" y="-244" type="qcurve"/>
      <point x="225" y="-191" type="line"/>
      <point x="261" y="-191"/>
      <point x="337" y="-157"/>
      <point x="337" y="-138" type="qcurve"/>
      <point x="337" y="-124"/>
      <point x="286" y="-101"/>
      <point x="247" y="-100" type="qcurve"/>
      <point x="234" y="-92" type="line"/>
      <point x="234" y="-90" type="line"/>
      <point x="293" y="-41" type="line"/>
      <point x="357" y="-49"/>
      <point x="422" y="-99"/>
    </contour>
    <contour>
      <point x="314" y="751" type="qcurve"/>
      <point x="253" y="751"/>
      <point x="166" y="834"/>
      <point x="152" y="905" type="qcurve"/>
      <point x="226" y="917" type="line"/>
      <point x="239" y="878"/>
      <point x="287" y="832"/>
      <point x="314" y="832" type="qcurve"/>
      <point x="341" y="832"/>
      <point x="389" y="878"/>
      <point x="402" y="917" type="qcurve"/>
      <point x="476" y="905" type="line"/>
      <point x="462" y="834"/>
      <point x="375" y="751"/>
    </contour>
  </outline>
</glyph>
<glyph name="uni1E1D" format="2">
  <advance width="586"/>
  <unicode hex="1E1D"/>
  <outline>
    <contour>
      <point x="472" y="144" type="qcurve"/>
      <point x="524" y="71" type="line"/>
      <point x="487" y="35"/>
      <point x="373" y="-10"/>
      <point x="317" y="-10" type="qcurve"/>
      <point x="195" y="-10"/>
      <point x="40" y="140"/>
      <point x="40" y="257" type="qcurve"/>
      <point x="40" y="381"/>
      <point x="191" y="536"/>
      <point x="308" y="537" type="qcurve"/>
      <point x="410" y="536"/>
      <point x="546" y="392"/>
      <point x="546" y="282" type="qcurve"/>
      <point x="545" y="238" type="line"/>
      <point x="116" y="238" type="line"/>
      <point x="93" y="320" type="line"/>
      <point x="456" y="320" type="line"/>
      <point x="441" y="303" type="line"/>
      <point x="441" y="327" type="line"/>
      <point x="436" y="376"/>
      <point x="359" y="442"/>
      <point x="308" y="442" type="qcurve"/>
      <point x="227" y="442"/>
      <point x="142" y="351"/>
      <point x="142" y="264" type="qcurve"/>
      <point x="142" y="182"/>
      <point x="244" y="84"/>
      <point x="327" y="84" type="qcurve"/>
      <point x="366" y="84"/>
      <point x="433" y="110"/>
    </contour>
    <contour>
      <point x="272" y="-117" type="line"/>
      <point x="214" y="-110" type="line"/>
      <point x="286" y="4" type="line"/>
      <point x="345" y="4" type="line"/>
    </contour>
    <contour>
      <point x="402" y="-159" type="qcurve"/>
      <point x="402" y="-182"/>
      <point x="362" y="-230"/>
      <point x="328" y="-245" type="qcurve"/>
      <point x="304" y="-255"/>
      <point x="245" y="-265"/>
      <point x="212" y="-264" type="qcurve"/>
      <point x="205" y="-211" type="line"/>
      <point x="241" y="-211"/>
      <point x="317" y="-177"/>
      <point x="317" y="-158" type="qcurve"/>
      <point x="317" y="-144"/>
      <point x="266" y="-121"/>
      <point x="227" y="-120" type="qcurve"/>
      <point x="214" y="-112" type="line"/>
      <point x="214" y="-110" type="line"/>
      <point x="273" y="-61" type="line"/>
      <point x="337" y="-69"/>
      <point x="402" y="-119"/>
    </contour>
    <contour>
      <point x="290" y="634" type="qcurve"/>
      <point x="229" y="634"/>
      <point x="142" y="717"/>
      <point x="128" y="788" type="qcurve"/>
      <point x="202" y="800" type="line"/>
      <point x="215" y="761"/>
      <point x="263" y="715"/>
      <point x="290" y="715" type="qcurve"/>
      <point x="317" y="715"/>
      <point x="365" y="761"/>
      <point x="378" y="800" type="qcurve"/>
      <point x="452" y="788" type="line"/>
      <point x="438" y="717"/>
      <point x="351" y="634"/>
    </contour>
  </outline>
</glyph>
